<mxfile host="Electron" agent="Mozilla/5.0 (Macintosh; Intel Mac OS X 10_15_7) AppleWebKit/537.36 (KHTML, like Gecko) draw.io/28.0.6 Chrome/138.0.7204.100 Electron/37.2.3 Safari/537.36" version="28.0.6">
  <diagram name="페이지-1" id="BKDf_gXOX8GiVOMjLe9e">
    <mxGraphModel dx="1188" dy="669" grid="1" gridSize="10" guides="1" tooltips="1" connect="1" arrows="1" fold="1" page="1" pageScale="1" pageWidth="827" pageHeight="1169" math="0" shadow="0">
      <root>
        <mxCell id="0" />
        <mxCell id="1" parent="0" />
        <mxCell id="KUH8EgF7bkCMcGg_cEMo-10" value="" style="rounded=0;whiteSpace=wrap;html=1;fillColor=#FFFFFF;labelBackgroundColor=#FFFFFF;fontColor=#000000;strokeColor=#000000;" vertex="1" parent="1">
          <mxGeometry x="80" width="680" height="480" as="geometry" />
        </mxCell>
        <mxCell id="eoIN0Z875P-ENP-9NvoL-3" value="Nginx&#xa;Load Balancer" style="shape=image;verticalLabelPosition=bottom;labelBackgroundColor=#FFFFFF;verticalAlign=top;aspect=fixed;imageAspect=0;image=data:image/png,iVBORw0KGgoAAAANSUhEUgAAAeAAAAHgCAYAAAB91L6VAAAACXBIWXMAAAsTAAALEwEAmpwYAAAgAElEQVR4nO3dB5Rd1X3v8YN7r7iXuMcljp9NHNs87Mucc+8+V9IIizK2AIMxBBnjOLg+8vzsCDsucrATEzskCtKcc0eIMjQh0ZvoVSCqQCBQQRKod6FRmf3WGSDAoDLlzvz23uf7Weu7lpfDIvfu8z/7WNoz90YRAAAAAAAAAAAAAAAAAAAAAAAAAAAAAAAAAAAAAAAAAAAAAAAAAAAAAAAAAAAAAAAAAAAAAAAAAAAAAAAAAAAAAAAAAADDpNqoV4rUrwMAgFIw7eZ9SW46kiztTvLUxlk6I5mcfEj9ugAACFKto/baJEtPSvL0qeLB+/zizHTFuTmlPqX+BvXrBAAgDDbaK8nNkXFmlvZ+8L6ozKyI8/SEts62l6pfNgAA3opz87dxZm7e44P3RZk7W/LaV9SvHwAAr1Sm1N/7/HPegVacD9c6ah9Uvx8AAJzWOrH1NT3nvJnZPJgH787Oh/eddMDr1e8PAAC32GivOKu3JblZ0KwH74sexHm6JMnNuPHjx79E/XYBAJBL2uufT/L0pqF68O6kWdVGfT/1+wYAQCLOR72nGee8gzkfrmTpB9TrAADAsJ3zxrk5McnSDYoH7wsqzpqzdALnwwCAMpzzzpc/eF/8IF7M+TAAIDjVRvVv4jy9Uf6g3fNfS9+xf1b73+r1AgBgUKqTqu+O83RinJsd6odr3/80XJxJm86WSSP/Qr1+AAD0yxc7217dc86bm/XyB+pA/zScm03F+XCls/I69XoCALBHcXttdJylj6kfoE0+Hz6yOMNWry0AAC8St6efS3JzvfyBOXR/Ir49aaRfUq8zAAA90inpu3rOeTOzXf2QHK7z4Wqj+n71ugMASqqts+0VxVf/xZlZJ38was6HTyrOutXXAQBQtnPePH1U/SCUl5nHOR8GAAy5pFH/bJKl18kffK6VpbdWs/oX1dcHABCYytTWvYuv9CvFOe/gzoc7KtnId6qvFwDAc/tM3OflZT3nHWhxlm4szocrWeVV6usHAPD0nDfJzDz1A83X4jxd1HM+DABAX1Qb1U/EeXqp+gEWSnFuZtay2v9SX1cAgKOSRvJWznmH7CG8ozgfjk+L36G+zgAA185583St+kEVfMV3IGfpSfVT6q9UX3cAgFDSSKtJbh6QP5jKVpY+Unw3svr6AwCGmcnMx5MsvUT+ICp7WXpNy2TzGfU8AACGmDnNvKU4502ydJv84UMvOB+uddTerp4PAMAQnPMmuRmXZGaF+oFDu2xN8R3KnA8DQEjnvJm534EHDPWhOE8f5nwYADzWMin9yzg3F6kfKDTQB7G5qto+4tPqOQIA9NF+U0e9OcnSCXFmutQPERpkWbqt+K5lzocBwGGVmZWXFee8cW6Wyx8c1OQHsVldnA8X38GsnjMAQK9z3jhL75M/KGhIizMzN2mYVvW8AUDpJY0RH0ty06l+MNCwP4ivrHXU/ko9fwBQOpzz0rPnw/XJ9bep5xEAynPOm6XL5A8AciPOhwFgaFWzepJk5h75hk+OZh6qZuko9ZwCQDCq7dWPcs5L/TkfbsnTT6nnFgC8Vckqb+o5583NFvWmTt61tTgfrkxt3Vs9xwDgjfHjx78kyc2RSZ4+6cBGTh4X5+mq4ruei58dUM81ADgtzk1Lkqd3qzduCqs4Tx+M89oI9XwDgHMqHeYjnPPScJwPx5Prn1TPOwDI1Tpqr02y9CTOeWkY21p8J3R1YvWN6vkHgGHHOS+pi7N0ZXE+3NbZ9lL1/QAAwyLJ0v3jPJ2t3oCJiuIsnZNkpq6+LwBgyJh2874kNx3qDZdoZ8VZOqMlr39YfZ8AQNPPeZM8fUq9yRL15Xy4PqX+BvV9AwADZ6O9nj7nNU84sLES9b3MrOB8GICX9u+ofSHOzS3yjZRoEMWZuaslr31FfT8BwB5VptTf23POm6Xd6s2TqJnnw8nk5EPq+wsAXqR1Yutres55M7NZvVkSDUXFd09zPgzAHTbaK87qbXGWLlRvkETDUZyZpcV3UnM+DEAmaa9/PsnTm9QbIpGoWXF7+mX1fQigROJ81Hs45yV67ny41lH7oPq+BBD4OW+cmxOTLN2g3vSInKr42YcsnbDvpANer75PAQR4zpvkZoF8oyNyuDhPlxTnw8VnnatvWwCeqzaqfxPn6Y3qjY3Ip+IsvaPaqO+nvn8BeHrOG+fpxDg3O9SbGZGX9fyMhOmsZOkH1PczAA98sbPt1T3nvLlZL9/AiAIozs2m4ny40ll5nfr+BuCouL02OsnNfPWGRRRkmVlcfDZ68TMV6nsdgCNacrNPnJkb5BsUUQmKc3N7S7vZV33fAxCqTqq+m3NeIt35cLVRfb96HwAwjNo6215RfNVanJl18o2IqMQ9cz58UvGzF+p9AcAwnPPGWfqYeuMhoueVmcc5HwYCFbenn0uy9Dr5RkNEuy5Lb0sa6ZfU+wWAJqhMbd27+Aq1ODPb5ZsLEfX1fLgjnZK+S71/ABgAznmJ/C7O0o3F+XAlq7xKvZ8A6M85b54+qt5AiGjwxXm6iPNhwHFJo/7ZODPXqjcMImp+cW5u2b+j9gX1PgPgeZJG8lbOeYnC7+nf2TcdlWzkO9X7DlBq+0zc5+U957x5ula9MRDR8MX5MKD+3ObMzFNvBESkK87ShT3nwwCGXrVR/USSpZeob3wicqgsvaZlsvmMen8CgmROM2/hnJeI9nQ+HJ8Wv0O9XwFBnfMmebpGfYMTkQdl6YbifLh+Sv2V6v0L8FbSSKtJZu6X39BE5F1xnj4cZ/U29T4GeMVk5uNJbi5W38BEFERXx3n9r9X7GuDFOW+SpdscuGmJKLDz4VpH7e3qfQ5w7pw3yc24JDMr1DcqEQXdmjg3J3I+DDxzzhtn6X0O3JhEVJLizMzlfBillTRGfCzO0hnqG5GIylucm6uq7SM+rd4PgWGx39RRb06ydEKcmS71zUdEVPzMSZynE+uT629T74/AkKjMrLysOOeNc7NcfsMREfUuM6uL8+Hiu8TV+yXQNNWsnsS5uVd+gxER7THzUDVLR6n3TWBQqu3Vjya56dTfUERE/SvOzJUtefop9T4K9Eslq7yp55w3N1vUNxER0SDaWpwPV6a27q3eV4HdGj9+/EuKrwaLs3SZAzcOEVFTivN0VfGZ9MXPsqj3WeBFWtprcZKZe9Q3ChHRUBXn6YMt7fWR6v0W6FHpMB/hnJeIynY+HE+uf1K9/6KkKp2V1xVf+cU5LxGVtK3FZ9dXJ1bfqN6PUbJz3iRPn3TgBiAikhZn6crifLits+2l6v0ZAYtz05Lk6d3qgScicq04S+ckmamr92kEptqovr/4Ki/1gBMRuV7xGfctef3D6n0bnqt11F5bnPMmefqUeqiJiDyK82EM9pzXPOHAIBMReRnnw+iX/TtqX4hzc4t6cImIQinOzF3VRr2i3t/hKNNu3tdzzpul3ephJSIKsZ7vQJ+cfEi938MRnPMSEQ1fxXehF+fD9Sn1N6j3f6jYaK84q7fFWbpQPZBERGUrzszS4jvSOR8umTg3fxtn5mb1ABIRkbkzbk+/rH4uYIhVptTfyzkvEZGb58O1jtoH1c8JNFnrxNbXxLk5McnSDeohIyKiXZSZzcV3qe876YDXq58baNI5b5KbBfLBIiKiPhXn6ZLifLj4TAb1YwQDkLTXP5/k6U3qQSpbh517hP2XG39vpz043d659C67eP0Su75rg922Y5vtrfjvi4p/5r5l99vrFlxvz58zzZ56+0T7g0t/bEdPPVD+fqh8c1r07FzOWnJnzz/zuxt+bw895wj56y5hs6qN+n7q5wn6KM5HvYdz3uHt8HO/afPZHfbxdYttM3V3d9tFax+3Vz56tZ1ww8n24LO+Ln+vVO45LeYxm92wh597pPz9lO18uJKlH1A/X7ALnPMOf9+efnzPn1qLB+VwKP7/zH7ibnvyjX+wo6eOkb9/Ku+cFv+ua+dfb8dNP17+/kpTxvmws+I8XSQfkJJ0yNlje/5U2m2H58G7M5u2brKd95/b81eJ6vWg8s5p8e++Yt6V/O3MMBbn6SL18wa9qIeiLP36ut/aDV0brCuK87rijK7t7LHytaHyzmlxZvzP1/5G/r7LUgS3qAci9NKOUfbiuZdYV23ettn+96xJ1jRGyteKyjun0x+6qOc1qNch9CK4RT0QIdd6+pienxT1wbxV8+xxM74rXzMq75zesWRWz2tRr0fIRXCLeiBCrfhhpzkrHrQ+Kf5a+s+3nWqreV2+flTOOZ2z/EEewkNYBLeoByLEir9Kc+FPFAN1w8Kb2ARLkKtzWvxJmL+OHpoiuEU9ECHm8plvXz288hHbdvah8rWkcs5pcSasXp8Qi+AW9UCE+FOkoXhywzJ71AXHyNeUyjmn/HR084vgFvVAhPb7ky79qlEzrN682n7rgmPla0vlm9ONXRv5W5gmF8Et6oEIqeLDC0K0fNMKe8R5R8nXl8o3p5fPu0K+XiEVwS3qgQil4ld4lJ9wNdSWrl/KpxYFkG9zWrzWcdO/I1+3UIrgFvVAhFLxmbmhK35FZOSU0fK1pnLN6bXzr5OvWyhFcIt6IEL5tpjh+mIFtZsW3WJrjRHyNafyzGnxmvns8uYUwS3qgQihxuwptkyKX19RrzmVa07b78rl6xdCEdyiHogQavb3+fqg+H5Y9bpTeeZ04dqF8vULoQhuUQ+E7x16zhG2rP791j/L15/KM6fFe1Cvo+9FcIt6IHyv+JL7strevd3+v6v+SX4NqBxzOuGGk+Xr6HsR3KIeCN8rvlO3zLZs77L/cMkP5NeBwp/T8+dMk6+j70Vwi3ogfM/FD7Mfbuu2rOMjKx0vhDktvqRBvY6+F8Et6oHwveIDKmDtExuesG1nj5VfDwp3ThevXyJfR9+L4Bb1QPje+i3r1fuSMx5bPd9+9YyD5deEwpzTtVvWydfR9yK4RT0Qvld8iT2eM/uJu219Sqv8ulB4c7p1+1b5OvpeBLeoB8L38GLXPDbTVht1+bWh8OZUvY6+F8Et6oHwPezcWfd1yq8NhTen6nX0vQhuUQ+E72HXTr39v+TXh8KaU/U6+l4Et6gHwvew+6+S++31v5NfIwpnTtXr6HsR3KIeCN/D7hU//POTy/9Rfp3KXijU6+h7EdyiHgjfw55t2rrJjpt+vPxalblQqNfR9yK4RT0Qvoe+WblpJd/pypwOmnodfS+CW9QD4XvouwVrFtoxZx4iv2ZlLBTqdfS9CG5RD4TvoX/mrHjQjjz9APl1K1uhUK+j70Vwi3ogfA/9d/OiW2ytMUJ+7cpUKNTr6HsR3KIeCN/DwMyYe7H82pWpUKjX0fciuEU9EL6HgZt8Zya/fmUpFOp19L0IblEPhO9hcB/UcfJN/yq/hmUoFOp19L0IblEPhO9hcHZ077A/v/ok+XUMvVCo19H3IrhFPRC+h8Hbsm2L/d7F35dfy5ALhXodfS+CW9QD4XtojuLL1r95/tHy6xlqoVCvo+9FcIt6IHwPzbN0/VJ7yNlj5dc0xEKhXkffi+AW9UD4Hppr7sqHbevpY+TXNbRCoV5H34vgFvVA+B6a766ls23aMUp+bUMqFOp19L0IblEPhO9haFz96DW2mtfl1zeUQqFeR9+L4Bb1QPgehs4Z954lv76hFAr1OvpeBLeoB8L3MLT+fNup8mscQqFQr6PvRXCLeiB8D0Oru7vb/mLmr+TX2fdCoV5H34vgFvVA+B6GXtf2Lvv9S38kv9Y+Fwr1OvpeBLeoB8L3MDw2dm20x154nPx6+1oo1OvoexHcoh4I38PwWbFppT30nCPk19zHQqFeR9+L4Bb1QPgehtf8NQvsmDMOll933wqFeh19L4Jb1APhexh+9zx5rx0xZbT82vtUKNTr6HsR3KIeCN+Dxk2Lbra1xgj59felUKjX0fciuEU9EL4HnekPzZBff18KhXodfS+CW9QD4XvQ+u9Zk+Qz4EOhUK+j70Vwi3ogfA9a3bbb/suNv5fPgeuFQr2OvhfBLeqB8D3obduxzZ54xU/ls+ByoVCvo+9FcIt6IHwPbti0dbM9bsZ35fPgaqFQr6PvRXCLeiB8D+5Y+9Rae+T5R8tnwsVCoV5H34vgFvVA+B7csmT9UnvI2WPlc+FaoVCvo+9FcIt6IHwP7nloxVzbevoY+Wy4VCjU6+h7EdyiHgjfg5tuffx2axoj5fPhSqFQr6PvRXCLeiB8D+668tGrbTWvy2fEhUKhXkffi+AW9UD4Htw25e6p8hlxoVCo19H3IrhFPRC+B/f96bZT5XOiLhTqdfS9CG5RD4TvwX07unfY8TN/KZ8V5nTw1OvoexHcoh4I34Mftmzvsidc8kP5vDCng6NeR9+L4Bb1QPge/LFuyzr7rQuOlc8Mczpw6nX0vQhuUQ+E78EvyzetsGPP+YZ8bpjTgVGvo+9FcIt6IHwP/pm/Zr796hkHy2eHOe0/9Tr6XgS3qAfC9+Cnu5+4x9antMrnhzntH/U6+l4Et6gHwvfgr5nzr7XVRjk+qCMU6nX0vQhuUQ+E78FvFz40Qz5DzGnfqdfR9yK4RT0Qvgf//eftE+VzxJz2jXodfS+CW9QD4XvwX7ftthNuOFk+S8zpnqnX0fciuEU9EL6HMGzbsc2eeMVP5fPEnO6eeh19L4Jb1APhewjHpq2b7benHy+fKeZ019Tr6HsR3KIeCN9DWFZtXmUPP/dI+VwxpzunXkffi+AW9UD4HsKzeP0Se/BZX5fPFnP6Yup19L0IblEPhO8hTA+ueMiOOv2r8vliTl9IvY6+F8Et6oHwvVAsWrtI/RKcc9OiW2ytMUI+Y8zpc9Tr6HsR3KIeCN8LxdjOw+3yjcvVL8M5F8+9RD5jzOlz1OvoexHcoh4I3wtF8V6OmfZtu6Frg/qlOCef3SGfM+b0aep19L0IblEPhO+F4tn388PLfmK3bt+qfjnO+fdb/yyfNeaUB/Bgi+AW9UD4Xiie/55+dd1vbHd3t/olOWVH9w77T9f8Qj5vzKl+LX0uglvUA+F7oej9vibecZr6JTlny/Yu+w+X/EA+c8wpJQNM/bxBL+qB8L1Q7Oy9nfvAeeqX5Zx1W9bZoy44Rj53zCklA0j9vEEv6oHwvVDs7L1V87q9Yt5V6pfmnCc2PGHbzh4rnz3mlJJ+pn7eoBf1QPheKHb1/tKOUXbWkjvVL885j62eb796xsHy+WNOKelH6ucNelEPhO+FYnfvcfTUA+28VfPUL9E5s5+429antMpnkDmlpI+pnzfoRT0QvheKPb3Pr3UeZp/csEz9Mp1zzWMzbbVRl88hc0pJH1I/b9CLeiB8LxR9ea9HTzvWrt+yXv1SnXPWfZ3yOWROKelD6ucNelEPhO+Foq/v9+8vOsFu2bZF/XKdc+rt/yWfReaUkj2kft6gF/VA+F4o+vOef3b1+J4PpsBzum23/e31v5PPI3NKyW5SP2/Qi3ogfC8U/X3f/3bzKeqX7JxtO7bZn1z+j/KZZE4p2UXq5w16UQ+E74ViIO996r1nql+2czZt3WTHTT9ePpfMKSU7Sf28QS/qgfC9UAzkvRcf1HHpI5erX7pzVm5aaQ879wj5bDKnlPRK/bxBL+qB8L1QDPT9Fx/Ucdvi29Uv3zkL1iy0Y848RD6fzCklz0v9vEEv6oHwvVAMZg1Gnn6AfWD5HPVbcM6cFQ/2rI16RplTSp5J/bxBL+qB8L1QDHYdDjqzzT6+brH6bTjn5kW32FpjBHPaJOp19L0IblEPhO+Fohlr8Y3zjrKrN69WvxXnzJh7MXPaJOp19L0IblEPhO+Folnr8Z0Z37Obt21Wvx3nTL4zY06bQH2/+14Et6gHwvdC0cw1+fHlJ/b8Tixe+EEdJ9/0r8zpIKnvd9+L4Bb1QPheKJq9Lr+5/nc9Dx08p/gfJf/3yp8xp4Ogvt99L4Jb1APhe6EYirVpvytXvy3nFJ+j/b2Lv8+cDpD6fve9CG5RD4TvhWKo1ueCOdPUb805a7ess988/2jmdADU97vvRXCLeiB8LxRDtT7Fd+Vev+AG9dtzztL1S+0hZ49lTvtJfb/7XgS3qAfC90IxlGs0cspoe9+y+9Vv0TlzVz5sW08fw5z2g/p+970IblEPhO+FYqjX6YAzDrKPrZ6vfpvOuWvp7J6P82RO+0Z9v/teBLeoB8L3QjEcazW283C7fONy9Vt1ztWPXtPzxRbM6Z6p73ffi+AW9UD4XiiGa72OmfZtu6Frg/rtOqf4akfmdM/U97vvRXCLeiB8LxTDuWY/vOwnduv2req37Jw/33Yqc7oH6vvd9yK4RT0QvheK4V63f772N7a7mw/qeL5iPX4x81fM6W6o73ffi+AW9UD4XigUa3fKLX9Sv23ndG3vst+/9EfM6S6o73ffi+AW9UD4XihU63fOA+ep37pzNnZttMdeeBxzuhPq+933IrhFPRC+FwrV+hU//XvFvCvVb985KzattIeecwRz2ov6fve9CG5RD4TvhUK5hsXvwc5acqd6CZwzf80CO+aMg5nT51Hf774XwS3qgfC9UKjXcfTUA+0jq+apl8E59zx5rx0xZTRz6sic+l4Et6gHwvdCoV7HorazD7VPbHhSvRTOuWnRzbbWGMGcOjKnPhfBLeqB8L1QqNfx2Y4871t27VNr1cvhnOkPzWBOHZpTX4vgFvVA+F4o1Ov4/L570T/Yp7Y9pV4S5/z3rEnMqQPz6XMR3KIeCN8LhXode/f/rvonu717u3pZnNJtu+2/3Ph75pTsQFM/b9CLeiB8LxTqddxZf7j5j+plcc62HdvsiVf8lDklO5DUzxv0oh4I3wuFeh131en3nKFeGuds2rrZHjfju8wp2f6mft6gF/VA+F4o1Ou4uw/quOThy9TL45ziB9WOPP9o5pRsf1I/b9CLeiB8LxTqddxdxa/gFL+Kgxdasn6pPeTsscwp2b6mft6gF/VA+F4o1Ou4p0aefoB9YPkc9TI556EVc23r6WOYU7J9Sf28QS/qgfC9UKjXsS8ddGabXbT2cfVSOefWx2+3pjGSOSW7p9TPG/SiHgjfC4V6Hfva4ed+067avFq9XM658tGre87LmVNKdpP6eYNe1APhe6FQr2N/+s6Mv7ebt21WL5lzptw9lTklu7vUzxv0oh4I3wuFeh37248vP7Hnd2LxQn+69T+YU7K7Sv28QS/qgfC9UKjXcSD9+voJPZ8Ohefs6N5hx8/8JXNKdmepnzfoRT0QvhcK9ToOtEl3tquXzjlbtnfZEy75IXNKtnfq5w16UQ+E74VCvY6D6bw5F6iXzznrtqyz37rgWOaU7PNTP2/Qi3ogfC8U6nUcTNVG3V634Hr1Ejpn+aYVduw532BOyT6b+nmDXtQD4XuhUK/jYBsxZbS998n71MvonPlr5tuvnnGwDYV6znwvglvUA+F7oVCvYzMac8bBdsGaheqldM5dS2fbUKhnzPciuEU9EL4XCvU6Nquvdx5ml21cpl5ODBH1fPleBLeoB8L3QqFex2Z2zLRxdn3XBvWSYgioZ8v3IrhFPRC+Fwr1Oja7H1z6Y9u1vUu9rGgy9Vz5XgS3qAfC90KhXseh6OdXn9TzwRQIh3qmfC+CW9QD4XuhUK/jUPXHW/6kXlo0kXqefC+CW9QD4XuhUK/jUHb2feeolxdNop4l34vgFvVA+F4o1Os4lBVf03f5vCvUS4wmUM+S70Vwi3ogfC8U6nUc6tKOUfaOJbPUy4xBUs+R70Vwi3ogfC8U6nUcjkZPHWMfWTVPvdQYBPUM+V4Et6gHwvdCoV7H4eqgs75mF69fol5uDJB6fnwvglvUA+F7oVCv43B25HnfsmueWqNecgyAenZ8L4Jb1APhe6FQr+Nwd/xF37NPbXtKvezoJ/Xc+F4Et6gHwvdCoV5HRT+96ud2e/d29dKjH9Qz43sR3KIeCN8LhXodVf3hpn9TLz36QT0vvhfBLeqB8L1QqNdRWePuKerlRx+pZ8X3IrhFPRC+Fwr1Oqqb9uB09SVAH6jnxPciuEU9EL4XCvU6qqs1RtgbFt6kvgzYA/Wc+F4Et6gHwvdCoV5HFxo5ZbS9f9kD6kuB3VDPiO9FcIt6IHwvFOp1dKUDz2yzi9Y+rr4c2AX1fPheBLeoB8L3QqFeR5c6/Nxv2lWbV6svCXZCPRu+F8Et6oHwvVCo19G1/u7Cb9uNXRvVlwW9qOfC9yK4RT0QvhcK9Tq62I8u+z926/at6kuD51HPhO+pnzfoRT0QvhcK9Tq62q+v+63t7u5WXx48Qz0PvhfBLeqB8L1QqNfR5U6bNVl9efAM9Sz4XgS3qAfC90KhXkfXO/eB89WXCMzpoIvgFvVA+F4o1OvoetVG3V47/3r1ZSo99Rz4XgS3qAfC90KhXkcfSjtG2buWzlZfqlJTz4DvRXCLeiB8LxTqdfSl0VMPtPNWPaq+XKWlvv6+F8Et6oHwvVCo19GnvtZ5mF22cZn6kpWS+tr7XgS3qAfC90KhXkffOnrasXZ91wb1ZSsd9XX3vQhuUQ+E74VCvY4+9oNLf2y7tnepL12pqK+570Vwi3ogfC8U6nX0tZ9fPd7u6N6hvnylob7evhfBLeqB8L1QqNfR5/54y7+rL19pqK+170Vwi3ogfC8U6nX0vTPvO1t9CUtBfZ19L4Jb1APhe6FQr6PvVfO6veyRK9SXMXjq6+x7EdyiHgjfC4V6HUP5oI47lsxSX8qgqa+x70Vwi3ogfC8U6nUMpdFTx9iHVz6ivpzBUl9f34vgFvVA+F4o1OsYUged9TW7eN1i9SUNkvra+l4Et6gHwvdCoV7H0DrivKPs6s2r1Zc1OOrr6nsR3KIeCN8LhXodQ+z4i75nN2/brL60QVFfU9+L4Bb1QPheKNTrGGo/vepndnv3dvXlDYb6evpeBLeoB8L3QqFex5D77fW/s922W32Jg6C+lr4XwS3qgfC9UKjXMfTy2YNi1UsAAA9xSURBVB3qSxwE9XX0vQhuUQ+E74VCvY5l6IIHL1RfZu+pr6HvRXCLeiB8LxTqdSxDtcYIe8OCG9WX2mvqa+h7EdyiHgjfC4V6HcvSyCmj7X3L7ldfbm+pr5/vRXCLeiB8LxTqdSxTB57ZZhetXaS+5F5SXzvfi+AW9UD4XijU61i2xnYebpdvWqG+7N5RXzffi+AW9UD4XijU61jG/u7Cb9sNXRvUl94r6mvmexHcoh4I3wuFeh3L2g8v+4ndun2r+vJ7Q329fC+CW9QD4XuhUK9jmfvVdb+x3d18UEdfqK+V70Vwi3ogfC8U6nUsexNnnaYeAS+or5PvRXCLeiB8LxTqdaTUnvvAeeoxcJ76GvleBLeoB8L3QqFeR0ptNa/bK+ZdpR4Fp6mvke9FcIt6IHwvFOp1pKdLO0bZO5fepR4HZ6mvj+9FcIt6IHwvFOp1pOcaPfVAO2/VPPVIOEl9bXwvglvUA+F7oVCvI72wr3UeZp/csEw9Fs5RXxffi+AW9UD43rYd26zvit9DVa8jvbijpx1r129Zrx4PZzCngy+CW9QD4XshbJBrt6yTryPtvL+/6AS7ZdsW9Yg4gTkdfBHcoh4I31u6fqn13eL1S+TrSLtu/Mxf2h3dO2zZMaeDL4Jb1APheyH8xOodS2bJ15F237/dfIotO+Z08EVwi3ogfG/ag9Ot786fM02+jrTnzrj3LFtmzOngi+AW9UD43sk3/sH6bsINJ8vXkfr2QR2XPnK5LSvmdPBFcIt6IHzv0HOOsL4rvptWvY7U9w/quH3xHbaMmNPBF8Et6oEIoUVrH7e+WrBmoXz9qH+1nj7Gzl0515YJc9qcIrhFPRAhlM/usL6afGcmXz/qfwed2WYfX7fYlgVz2pwiuEU9ECF0+LlHevl9rsWvthx27hHy9aOBdeR537Jrn1prQ8ecNq8IblEPRChdt+B665trHpspXzcaXN+Z8T27edtmGzLmtHlFcIt6IEJp3PTjbbf150/BxWs99sLj5OtGg++nV/3Mbu/ebkPEnDa3CG5RD0RIXTHvSuuL4tdZ1OtFzevkm/7Vhog5bW4R3KIeiJA6+Kyv2/VdG6zritd40Flfk68XNbcLH5phQ8KcNr8IblEPRGj987W/sa775bW/kq8TDc3vCM+cf60NBXPa/CK4RT0QITb9oYusq4qPzlSvDw1d1UbdXjBnmvUdczo0RXCLeiBC/ZNI8cHxrik+Qal4ber1oaHvP277T2+/q5o5HboiuEU9ECF/WtGc5Q9aVzywfE7Pa1KvCw3vdwk/uWGZ9QlzOrRFcIt6IEKu2Ehc+JNw8ScKNrVy9tUzDrYXzb3Yi1+RY06HvghuUQ9E6BV/laY8Ey7O0vjrPPr+pT+yj65+zLqKOR2eIrhFPRBl+uno4fwVpfVb1vNTpPSiH9D69fUT7OL1S6wrmNPhLYJb1ANRpsaceUjPl4oP5edGF3/VeMW8q3p+J1n9fsndB/HPrh5v71x615DNIXPqZhHcoh6IMjZu+nfstfOva+qDuPh3Fb8Dysf2UX86Zto4e8a9Zw3bD2sxp9oiuEU9EGWu+IaX9rtyu3DtwkF9T2rx7zj0HL4thgbXURccY/94y596vlhk7ZZ1TX3wMqduFMEt6oGgpxt7zjfshBtO7vkQheInp4vvei3Ox4rf5Swq/nPx3xX/t+KvsYt/dmzn4fLXTeH+NfVRF/ydHX/NL+xpsybbSx++zN637P6e/7G4avPqnf6OMXPqfhHcoh4IIiIaniK4Jc7S4+LcLFcPBhERDU1xbpYXe736eYOdqHRWXpdk6UlxbraoB4WIiJrW1jg3p1SyypvUzxnsQbW9+tEkN50ODA0REQ2iODNXtuTpp9TPFfRTS3stTjJzj3qAiIiov5mHWtrrI9XPEQzC+PHjX5Lk5sg4S5fpB4qIiHZXnKer4jw9oTKz8jL18wNNUpwdJFk6gfNhIiIHy9JtcZ5OrExt3Vv9vMAQSRojPsb5MBGRW+e8tY7aX6mfDxgmSSOtxrm5Vz14RERlLc7M3KRhWtXPAwgUZwxJbsbx+8NERMNYZlbHuTmxrbPtFernAMT2mzrqzT3nw5npkg8mEVHg57z1yfW3qfd9OKZlUvqXcW4ukg8pEVFgxbm5qto+4tPqfR4enA8nmblfPbBERL4X5+nDcVZvU+/r8Mg+E/d5eXE+nGRmhXqAiYg8bE1xzls/pf5K9X4OT5nTzFuKzyAtzi4cGGgiIqeLc7MjyU1HraP2dvX+jUCYzHw8yc3F6uEmInK4q+O8/tfq/Rohnw/n5gEHBp2IyI2y9BHOeTFs58PFZ5XGebpWPvhERKqydEPxFbCc82LYJY3krcX5cJyZ7fIbgYhomM9549Pid6j3YZRctVH9RJynl6pvCiKiIS9Lr2mZbD6j3neBF4jba6OTzMyT3yBERE0uztKFxVe7qvdZYJc4HyaikIqzdGNxzlvJKq9S769An3A+TEQhnPNWspHvVO+nwIAkjfpn48xcq76ZiIj6XJbeWs3qX1Tvn0DTzofjPH1UfmMREe2iOE8X9Zzz2mgv9Z4JNFXx3Zc958OZWae+0YiIno1zXpRGOiV9V/GdmJwPE5G0LO1OctNZbVTfr94XgWEVt6efS7L0OvlNSETlK0tvSxrpl9T7IKA/H87Sx+Q3JBGFX2Ye55wX2Mn5cJKb9fIblIiCK87NpuKc94udba9W73eAk6qTqu/uOR/u+R08/U1LRGGc87ZMGvkX6v0N8EJLbvaJM3OD/OYlIm+Lc3N7S7vZV72fAf5+vnRu5qtvZCLyqMws5pwXaILizCbOzYmcDxNRH855J1Q6K69T71tAUOJ81Hs4HyaiXZ3zVrL0A+p9CghatVH9mzhPb5Tf9EQkL87SO6qN+n7qfQkoDxvtFWf1tiQ3C9QbABENf3GeLklyM278+PEvUW9HQCm1Tmx9Tc/5cJZuUG8IRDQMZWZzcc6776QDXq/efwA8cz5cfHfn02dBDmwSRNT04iydUeuofVC93wDYiaS9/vkkT29SbxRE1NRmxe3pl9X7C4A+ng/HWbrQgY2DiAZYnJmlxTlvW2fbS9XbCoB+ng8Xn/3ac2bkwGZCRH0rzkxXnJtT6lPqb1DvIwAGoTKl/l7Oh4n8OedNJicfUu8bAJpo/47aF+Lc3KLeYIhoZ5k7W/LaV9T7BIChYqO9is+ITXLzhH7DIaIkMyuKryLlnBcoiVpH7bU958N5+pR8AyIqZ1s55wVKzLSb93E+TDT857wtef3D6vsfgAOSLN0/ztPZ6o2JKOTiLJ1TbaSp+n4H4JjiM2WfPh9On1RvVEQhFWfpSs55AewR58NEzT3nrU6svlF9XwPwSKXDfKT4jlEHNjEi74ozc2U8uf5J9X0MwGNxblqSPL1bvaER+VCcpw/GeW2E+r4FEAjOh4l2X5ynq4pz3srMysvU9yuAAFWyypuK7yKNc7NFveEROdLWOE8nVqa27q2+PwGUQLW9+lHOh6nsFee8LXn6KfX9CKCEWtprcZKZe9QbIdHwZh5qaa+PVN9/AEru2fPhOEuX6TdGoqGLc14ATtpv6qg3cz5MQZal24pz3vrk+tvU9xkA7FLSGPExzocppHPeWkftr9T3FQD0WdJIq3GW3qfeQIkGUpyZuUnDtKrvIwAYkOKsLMnNuDg3y9UbKlGfyszqODcntnW2vUJ9/wBA886HM9Ml32CJdhbnvABC1jIp/cs4NxfJN1ui5xXn5qpq+4hPq+8PABiW8+EkM/erN14qd3GePhxn9Tb1/QAAw2qfifu8vDgfTjKzQr0RU+laU5zz1k+pv1J9HwCAjDnNvKX4ztTiDM6BjZkCLs7NjiQ3HbWO2tvVcw8AzjCZ+XiSm4vVmzQF29VxXv9r9ZwDgNvnw7l5wIENm0IoSx/hnBcA+nE+XHzmbpyna+UbOPlZlm5IsvQkznkBYACSRvLW4nw4zsx2+YZOXp3zxqfF71DPLwB4r9qofiLO00vVmzu5XZybmS2TzWfU8woAwYnba6OTzMxTb/TkVnGeLiq+ElM9nwAQNM6H6X8evFm6sTjnrWSVV6nnEgBKg/Ph8vbsOW8lG/lO9RwCQGkljfpn48xcq34o0DCVpbdWs/oX1XMHAHje+XCcp4/KHxA0tOe8NtpLPWsAgF6K73DtOR/OzDr1A4Oa9ODlnBcA/JFOSd9VfLcr58Mel6XdSW46q43q+9XzBADop7g9/VySm+vlDxPq78P3tqSRfkk9PwCAZpwPZ+lj8gcL7eHBax7nnBcAAvPFzrZXF98Bm+RmvfxBQy8ozs2mJEsnVDorr1PPCQBgiFQnVd/dcz7c87uk+odPqXvmnLdl0si/UM8FAGCYtORmnzgzN8gfQiUtzs3tLe1mX/UcAACUny+dm/nqB1JpysxiznkBAD04Hx76OOcFAOxSnI96D+fDQ3POW8nSD6ivLwDAcUl7/fNxnt4of3h5Xpyld1Qb9f3U1xMA4BMb7RVn9bYkNwvUDzLfivN0SZKbcePHj3+J+jICADzVOrH1NT3nw1m6Qf1gc77MbC7OefeddMDr1dcNABDQ+XDxHbRPn2k68LBzrDhLZ9Q6ah9UXycAQKDi3PxtnJmb1Q88dzJ3xu3pl9XXBQBQovPhOEsXlvdPvGZpcc7b1tn2UvXlAACU8Hy4+K7anrPP8jx4u+LcnFKfUn+Dev0BACVXmVJ/bxnOh4tz3mRy8iH1egMA8AL7d9S+EOfmlgD/1HtXS177inp9AQDYNRvtVXzWcZKbJ9QPzkGXmRVxnp7AOS8AwBu1jtpre86H8/Qp+YO0/23lnBcA4DXTbt7Xcz6sf6j2+Zy3Ja9/WL1uAAA0RZKl+8d5OtvhB++cJDN19ToBANB0xWcjP30+nD7p0IN3Jee8AIBSnQ/HudmiPuetTqy+Ub0eAAAMq0qH+UjxXbnD/6dec2U8uf5J9fsHAEAqzk1Lkqd3D/mDN08fjPPaCPX7BQCgFOfDcZ6uKs55KzMrL1O/TwAAnFTJKm8qvlO3SefDW+M8nViZ2rq3+n0BAOCFanv1o4M5Hy7OeVvy9FPq9wEAgJeqWT1JMnNP3x++5qFqlo5Sv24AALxXnN0W370bZ+my3Z/zmhPbOtteoX69AAAEZb+po97ccz6cma7/efhm6bbinLc+uf429esDACBoJjMfT7L0kqLiP6tfDwAAAAAAAAAAAAAAAAAAAAAAAAAAAAAAAAAAAAAAAAAAAAAAAAAAAAAAAAAAAAAAAAAAAAAAAAAAQLQb/x/dWjLh9HdJSgAAAABJRU5ErkJggg==;spacing=-9;fontColor=#000000;strokeColor=#000000;" parent="1" vertex="1">
          <mxGeometry x="360" y="80" width="80" height="80" as="geometry" />
        </mxCell>
        <mxCell id="eoIN0Z875P-ENP-9NvoL-4" value="FastAPI 1" style="shape=image;verticalLabelPosition=bottom;labelBackgroundColor=#FFFFFF;verticalAlign=top;aspect=fixed;imageAspect=0;image=data:image/png,iVBORw0KGgoAAAANSUhEUgAAAgAAAAIACAYAAAD0eNT6AAAAAXNSR0IArs4c6QAAIABJREFUeAHtnettI8e2hTkUA1AICkERHCiCgSO4cASGIzCgP+pp4gCEALY4/waOwHAEA0UgnAiMicAhzEW11BJFscl+1GM/PgOGNBTZrFq19tprV1dVLxb8BwIgIBeBZn29+vrf/yy39W+rr+s/Vrv19/b/pn5a7eqfcv5/btey+fIttPPi6/r/QrsXu+pKLri0DARAAARAAARKIfCS4J8T5vqPNoHu1t+XTf2vnOQewWi0hmX9ffW13rQG4aH+jEEoRTq+FwRAAARAIB0Cm81lSHDP/6//CEmvS+7PVXyEpCpqBiBGf15mN15MwvOsx3//s2jW1+kGiiuDAAiAAAiAwEQEQpIPyeotwcdIhlzjcAZkuav/+fS1/qubQVhsNpcTh4yPgQAIgAAIgMAEBJr1dUj4bTIyV4UrMx7h1sLXenPxUH/GEEzgMh8BARAAARA4gsDLNH53fz5M3Zu7N2/NwDT1U5iJeb19wCLEI8TmJRAAARAAgTcEdtVVqCLbRWokekG7C2LNSDwvQAxmjp0Jb7TnNxAAARDwiUC7Ar/erMRtqYuV9LjO4TqC7t9hPcHrrQOf7KfXIAACIOAMgZek3yYAa9Pf9GfSzEW4rRNuG7TrCJyFA90FARAAAZsI7KqrsEI/TPu294VD1UeSnJQkveAWzEC306DbxmkzOOgVCIAACFhCYFdddavzWazH9H9M0xJMQbt+gK2HlhSDvoAACKhGYLO5bFfpcx+fyj7D7E53u4DDiVSrBo0HARDQjEC4X/t88A6VbsxKl2sN51NYRxJmnNhVoFlJaDsIgIAOBLoFfNbOyc9QuZLYhyf2KVh1uwqYGdAhJbQSBEBAAwLtQr56w6r9tAlsStLjM8fHBDOgQVhoIwiAgEwEXhbzsT//eIIh8erB5dkMrP/gNoFMqaFVIAACEhB4WczH+fp6khtGZOxYrb+zk0CC2NAGEAABEQisdtVNu0ef+/qs4neyFoKdBCKkh0aAAAiUQoCte2OrR95vcsahqZ+YFSilQnwvCIBAPgTap+ut/+CQHpK5yWQ+YwajmxUIM2L5ApJvAgEQAIHUCIRFfc2Xb4g+iR8OnOdAWDjYzgqkjkuuDwIgAAKpEAjVzGq3/o7onxd9MAKjQw4EI9AeNMTxw6kkiuuCAAjERoD7+ySzw2TGv6dzor1l9nX9xwIjEFuquB4IgEAUBDaby1CttPueZ9wLJVFMTxRgZxs7jEAUpeIiIAAC0RBgYR/b9zB8WTmAEYimXlwIBEBgEgIk/qyiT3Vvu7qfMr4YgUnKxYdAAATmIBDu8bfiQ+WHCYADxTmAEZijZnwWBEBgEAJt4t/V/0ypVvgMFSwcSMsBjMAgGeNNIAACYxAg8acVbhIj+MbkAEZgjLrxXhAAgaMIkPhJTDETE9fKyyeMwFFZ40UQAIFTCLQP6GGqv/i9XRJm3oRpFW+MwCm1428gAAItApzcR8KxmgTpV/3z1QigdyAAAiDwisCuuuLIXpI/SdIHB3jWwKvy8QsIOEYgnN7HQ3qY6mcrn0sOtEbgof7FsQLSdRDwicDqK4/lpeL1UfEyzufGef19sauufCohvQYBRwiwwO+cGPJ3EqY/DrA+wFESoKsOEdhVV5++1n8h7v7EnTFnzAdzoKmfQpHgUCHpMgjYRKB9Sl9T/ztYBLgn7PKeMPzAKLxy4Gu94fHDNvMBvfKCAKv7SeSYOTgwkQPPj/ZmNsBLuqCfhhCg6qeae63mJiYAPg+HAgfCrUNmAwwlB7piGIFmfb1q7+MhXiQwOAAH4nAgLBK8YMug4cRB13QjsKuu2NMfR+xIGuAIB45zgNkA3WmC1htEIOzpR7COCxa4gAsciMsBZgMMJhG6pBABpvtZ4MX9fThQiAPMBijMGTTZBgIs8otb1VAlgiccGM8BZgNs5BN6oQWBzeaSA33GCxXiDmZwIB0HmA3QkkBop14EmvX1897cdIGMSIItHIADUzjAuQF6UwstF45AmPKfEpR8BjGHA3AgKwc4RVB4NqF5ehBgyp9FXoUWeWVNGvTRFs+b+mnRrK/1CC0tBQFpCDDlb0sUnSW55bb6sXyo/vy0rf8Ov2MofM1EhAWCYeZSmqzSHhAQjwBT/r7E0lpyDIn/MMiCEbDWT/pzPk5ZIHgYCfwbBPoQYMqfql/5TEGo9o/Re7W9uyVhnk+YFjEKCwS5JXAsKngNBDoEONiH5K88+YfkddFUv3aU3v+JAfCZ/PcNDbcE9iOC30HgBYEgmuGe2X6w8DuCqY0DgcN9T45bPtS/a+sP7Y0fg9wSIO2BwB4CPMQnvsgg3IUw3d7d7lH73a+rXXXDuBQaF2kzS+wSeBcb/MMjApvNJY/uRRAtJcXFrrrqC2UMAFzf53p7jHDP7aI+DvE6CJhAIIghU/4I4r4gav/92Mr//WDFAMD3oxwPBwfxHwh4QYAtfgjhUSGUNk07sj2nqv8Q2xgAeN/P+/X3vrUjXvIC/bSOwGZzyf1+RLBfBPVic676xwDoHdtsfGVdgPUM6Lh/u+qK+/2IYDYxHVm9z23XueofAwD3h3Ds+bZodeM4U9B1cwiEI33Z4sce/8xJeYjgxnjPkOofA4ABGMO1vrMkzOUGOmQbgUDkMcTnvQilNg4Mqf4xAPB6NK9ZHGg7OVrvHckf0RstespmCYZW/xgAYmFKLIQ1U9bzBP0ziACL/RC8KYKn7TNDq38MAPEwmdthceBmc2kwTdAliwiQ/BG7yWKnaAZgTPWPASAmZsUEJsBiqjTWp3Cy3279fRbRFSUA+ulb1MdU/xgA31yJohVsEzSWMC11h2N9WeXvyLyNrf4xABiAGCYg7KbiscKWEqeFvrDHn+TvKPkHIR9b/WMAMAAxDEC4BibAQtK00gf2+JP8nSX/KdU/BgADEMsAdCYgHC1tJY3QD40IkPxJ/s6SfxDfKdU/BgADENMAdNfiwCCNidNCm0n+JH+HyX9q9Y8BwAB0STv2T0yAhYSqqQ8kf5K/w+QfhHtq9Y8BwADETvz718MEaEqgmttK8if5O03+c6p/DAAGYD9hp/gdE6A5sWpoO8mf5O80+QfBnlP9YwAwACmS/uE1MQEaEqnGNpL8Sf6Ok//c6h8DgAE4TNap/o0J0JhgJbeZ5E/yd5z8g1DPrf4xABiAVAn/2HUxAZITqqa2kfxJ/s6Tf4zqHwOAATiWqFO+hgnQlGgltpXkT/J3nvyDQMeo/jEAGICUyb7v2pgAiYlVQ5s2m8tw5GQfsXgdQXPBge3dbaxwDSe3ucAM0yiscODEwFgx7OM6PNhHWABjNkokzvbM9YjPYccAwONiPG7W1z6SF72chwDJn+RPBffMgYjVfxuU7eOySYIlkqD37+QBQvPSoo9Pk/xJ/iT/lgOxq/9OQLwnIvpfzgBiAroo5OdRBD59rf8iQMsFKNgLwj529f8ScYyxoDF2aHaXu/qfRcTbWkcTCS/qQ2DZfPmGOCFOcODleeuJRBJ8ibHiHGjqJ0yAvhydrMUkf0SpuChJqsYSVf8hgMGZWBPBAUxAsnyq6sJhn6gIQkpKALTF7VqIVPf+O1Eg1jAAYjiACejC0udPkj9iJEaMpJiuhNV/UBnwJuYkcSDM/vrMfs57zZ5khEiSEEloS+rqHwNAzEng+Yc2NPW983TorPsc8et2ivtD8EupvCW0I3H1jwHAAEiNP44M9uIB2OtP8peQbIW1YbmtfuSQAKkJgHZhTsKscI4Y4DsKIrBq6ieCnWCHA+85kKsCAvf3uIOHHDw4KKhgYs7x1Wz3kxNsCJ+cschV/YcYZ9zljDtj8XEsOCgoRyYu8B2r7d0thP9IeDABk1zVPwYArqnQG7YHFsjQCb+S7X4IjwrhKbAuIGf1jwEgDrXEIdsDEybkrJdmxT+L/gokVi1Cl7P6xwBgALTERdtOtgdmTdXxv2yzuQz3dFSRjmSFYcnEgdzVPwYAA6BNiy8e6l/iJyaumAWB1W79XRvhaC8imYsDuat/DADczsXtWN/DzoAsqTr+l6ya+j4WCbgOwmWNAyWqfwwAcaQyjlgUGD9Bp7wii/4QGpVCk2nq/xmbMoeeMC7EpkYOsCgwZcaOeW0W/XEPPWsi1Sjo1WPMkBtzLY3iT5s1cjx+m5cP9e9juM57cyPAoj+SP8l/AAfKVP9BDkim8RMTmObEtFzs5E6n6r7v09f6L4IhZzDwXfr4Vq76xwAQL/ri5f2Y5XhiprrEK6HBYXpGO7lo//tgA48UeJStYBjTFGPKNbPyKiwK5D9BCDTr66wEYJp5wDQzoiSPk2Wr/6AY8jCBp4zJBA5keHS2oAwruCnc9ycZY8gGcqBs9Y8BmJBo4PZAbpfAtnw8Cc7MeZrGff8SxOc79VVN5at/DABxoy9u+seMJwfmyfG938J+/35yWgo0+hJjnGVUK4xljLHkGlJ4xPkAvek58R/Y7y94agyBkiJQoR3Lh+rPxNE4+PKScKEtxGkMDvC8gMHhH++Nq6Z+ijF4XAMRsM6Bxa66ihd5865kHWv6509P2q2BgmJsXoQq+PRqe3dLoPkLNMZ8/JhLqv6DtDCG48cQzDRgtv6uIHUaaCJb/pj6Z2X0YA5Iqv4xABoSGW2cbLjYGpjeYDD1T4BODlBnxkFa9Y8BIHatx+6iWV+nz4JOv4GpfwTEuoDE7J+06h8DQPzG5LfIa3FKYCJ3wtT/4GlfkYHhrPouPQYSq38MAAagdFzk+H6eGpjAAzD1j3jkCF4r3yGx+scAEMNW4utUP9gVENkAMPWPcJwKOP52wI+mvo8cgtEux1gdjBUzY0ZnNtkVEEc0dtUVooFowIFhHJD+uFLGcdg4gpN+nMJJtXGSoOOrrHbr7wSD/mBgDDONofCtSPAgEw+YWSg+syDdjIu3FWExBYKBYMCBYRzQIDiM5bCxBCcbOIWH1YlPtCIbGB7z29T/Egg2AoFxzDCOwqv/oDPwIAMPqP6LV//veS7jQVwi83xfo3jML0LxPojA4xQeGqp/DAAcPsVhq3/jscF9Wb7n9fB0JatkoF+IYBIOKKj+MQBwPwn3Ncx4KInPnpSc8eUw9b+r/3FLFA1kpo2iphi1VP8YAAyAV11vY5QnBp43EqumvvdKEvqNQE7igKLqYlL/MJyiDCdjOE2npJ7OeT4rZ3rHalfdQK5p5AI3n7gtt9WPTOEZ5WvgqU+eMu7duLMgsFdIOO63Iwk/EYxhHNB22AjjOmxcwckoTjws6Hj+D0IG6Y2SnincJFO42qr/EPnEODHunQPaTPvxjB3zVfb8J0kQ3gPNev81Con1MaF/GJxzHNC0aDdmmu+9Fg/7IWjOBQ1/f88RjdV/EADG8f04godTPAQ/sKs3USf5w666Co6IQHAaCNwemDT7o7H6xwAQ4+j8GwekPrI7SZ7vu2jYGgEp3kgBFmBxjgNaq38MANw+x21Pf2dbII/6nVT9eQoS+voxaWit/jEAH8cSfnvHxPG2QKp/7+Sn/+MTQPXYN5um4fXx/YUjYGaZA+vvGuI2fhup/qn+uf8/gQO6KwaSmeVkRt+m8Vt3TE8yB6vd+vs0sCAZuHnlgO7qPwgF3PXKXfrdz31nswAc+Usw9AcD2PRjo79S6O8b4w42fjkQnoA7qZLW+CGqf79ER+Smjr3+6p8ZgKljz+es60Z4Aq7GXD66zVT/BLP1YE7TP/3VPwaA2E8TGzZw1by7Z7ARoPq3QVYCOec42qj+MQA5OcN3adMo87MAVP8EpbaglNFeG9U/BoD4lxFPcsdh+VD/Pria1vZGqn+5xCMwpY6NneofAyCVY7RLiv61DwrSltiHtJfqnyCTEmSa2rFo1tdD4kvLezRhT1vRrBIcMLkWgOqfYCoRTJq/0+JZ4ZrHg7ajYTk4YG4tANU/gZMjcKx9h8WnhVkbI/qDtqXggKlZAM78J0hSBInla1qs/sNtCstjRt/QuVgcsDMLwJn/E857J5BiBZLW61is/jEAxLXWeCzRbhOzAFT/BH2J4NH8nVarfwwAWqA5LnO3Xf8sANU/1T9P/BvNAavVPwYAA5A7iWr/PtWzAFT/BLz2AMzdfsvVPwYAPcgdT9q/T+8swGZzGQ410D4AtB/RyskBy9U/BoBYyhlLdr5L4Umgq+3drZ0BIHAZy/QcsF79YwDSc4g4tYjx+nuIHVX/Uf1bJCJ9SiWw7RGgm82lqiCf0NhU+HFdYtM2BxTNAoSFC7YHg2BjfCNzYHt3OyGfqvsIvInMGxbZjl5kq5ODimYBVk39pBNkgpNxy88BL9V/cCvwKz+/wNwK5gpmATj21wrZ6Ec24XRS/WMAiKlsMWVwZuTTtv5b/JRfaCSDTKDDgWEc8FT9YwCGcYLYAac+DsjeJcTBP07uRxGgfQE6+nVH1T8GgLgZHR8GK/k5GIjeKcTBPwT4HHJ7+6y36h8DgD54i/EU/ZU5C8DBP1T/uPVxHHBW/WMAMAApEqK3a4qcBeDgH4LbWyDO6a/H6h8DgEbMiRk++8afhbQzQ8KZxQzQ2wCBBVic5IDD6h8DQEycjAlmEAfPIC4f6t9DPIn47+Kh/oWBJbjhwDAOLLfVD3EOPpOSwJFhHAEncDrNgeoxU8ie/xq2/kHW02QFn318VD/i87wcnHzHPg78TlzAgWkcaG8hnoy0XH9k69/gaRvIPo3slnBrq/9csSnweyyNJX0hnktyQMRugHAvoiQIfDdBqIkDnqv/4Ec0jRVtRVskc0CElnDuP0EiOUgktc179Y8BQCskxaP+tpR+QBDT/0z/s3J3MAdEOPbCtwX0iy5JnDGUw4GitwFWTX0PGeSQgbGQOxZU/8/OA47K5Shjo3Bsmvq+mKdn779CwlCxD67YYwoi1T8GICafuBbaGzhQbjdAs76GhJAQDpznANX/W40CX87zBYzAaAwHihQXTP9D0jEk9fzecFDWWwr0/ZtnHtB3NDMNBwosBmT6HzKnIbM1XAWd2CXAe8AZa/ymPxI4nXcxINP/Re4jSyAabRgreNWNgLwrpgnwZyx/eD+cGcCBnIsBmf4fMCAstsMk7aj+D50HYo52wIH4HAgz8oexluzfTP/HH0CCwiKmVP+HIgTPLfKcPkng9aJZXx/GW/R/r3bVjYTO0gaCTjYHqP6PiY/sMSOmGB+9HFg+VH8ei7mor4UvgSR6ScLY5Ro7qv9jwgP/cvGP7/HGtSxnAoQv8QYs/UVMxnGA6v9Y8g+vjcMR3oEXHBjDgaS3AcJ+5jGN4b2Q1ycHqP4xAMS+z9gvPO4pdwOw+r/w4LKzQMHOAqr/vuTPDAD6gSlIzIGmfjoVf7P+xur/xINHgleQ4E9zIO+BHLPCuciHSQCn+QM+4DOXA2k0iMN/1CenucTi86fFKcsq3CJpO96XwqHTHAIf8JnLgSRHjy8f6t/nNozPQ27LHEjjvOMlXwlXsjz+9A19E8GBFOsAPm3rv0V0jmlyZiIEcoDqf5i9QENIknAgMQdSrANg+1/iQROY1AjU4WNO9Y8BIF6GxwtYpcVqsdlcDovIIe/i/j9VNwallwNU/0NE5Pk9CH9a4Qdf8H3mQMStyNz/h1QISz8HqP4xAMRHf3yATQFsYq4D4PjfAgNIxd1bcUsSFKr/4ck/vFPS2NEWdM0sB2KuA2D/P4FiNlBmGi2qfwwAsYE+SuRAHG3i/r+KSlQiAc23aXt3Oy798W7znJhpKMEHMxGNAzH0ifv/EDIaIQ2JY/vkragrbX2YA7iEnsCBPBwIM/ezVWXV1E8MWJ4BA2dFOMdw17OjU98F4Lgijhsy7F55N+9UwF115RU4+o1Q9XGA6n+68ejDlNeJNzgQnwOzFikz/R9/QCC5AUyp/ic7APhvgP/MDKhZFzbrNgDT/wQrgv2eA1T/k3N/+0H49J5P4AEeqTkw7VRApv/VuLzUBOL6eyJF9T/LAcClPS5RSaOxWTgw4VTAsHiAYCVY4cAbB6j+Z+V+ZgCyiP0bX4ldsAgcCLfyR0fuant3C4EgEBzY4wDV/2gdOfxAMFFwao9TmAJmAVJzYIpu8fhfghShfuPAclv9mHYv7TAF+v73alc9wqs3XoEFWKTnQPU4WnUIVIiZnph6ML5oql9HBxEf+IAAuqKH88S/jbGatBOAHQA2Bp8gnj+ObfX/IZXxwhQEMADz+UhMg+FYDoyO1bFfwPshpVUOUP2Plo/eD2AA0AmrOiG7X2N2AvAAIBampF6YouT6VP+9uXzSHzAAGADZidLm+IzaCcAWQJskIPDGjyvV/6Q83/shDMB4DhK3YDaXA6OOBGYLIISbSzgLn6f6783jk/+AAUBbLGiDtj6MWghIkBKk2gieor1U/5PzfO8HV019n2KsuCaaBQdOc2Cxq656A3P/DwB5GkjwsY8P1f++IsT7ndlF+7GDPsoc42EFDQsAWQCoZIFeWqEZs2o2XoK0fiUMgMzkkDaW6LMEfAetA+ARwJBVAlnLtmHCyVnWM3es/rUFRjgNkP/PY4AWldUBW/gPWgcQXAKg2xp4xnPseFL9x8r3XCcBAs8m6iZM6a529f+I77Hx7ff9Z9cBcAKgX3IgJGHsqf4TpCwumQoBHtvOLdsRt2zDFv+TVCQJYAB8c4Dq/6RA8EdxCLBrC80erNmnngy42lU3gy80wnVwTQiqgwNU/+KyGw06iwALK9HXofoanvLbS6iXe0pMqWBunHKA6r9XHPiDWAQ4WwEDMNQAnFwIiJOESEOJZO99VP9iMxwNO4kAtwDQ7TF63EsmiASRxhDJ1nup/nuFgT/IRWCzubQVh2hw+vHs0bowPZD+yxlgMJbFgZP3xeRKPy0DgQWztrK0RIO29+4E0NB42gjhY3Pg7N5YEg0ISERgV10tm/rf2PHA9Yxr7NGdABwB7HThm3Gyn1nQOeh4TIniT5vcI8Chbb61a6pRO6p5bAGETFMJpflzVP/u86hOACjYKNjOFDf9unxkwTPPAMAA9BPGJjZHnbDOdECrnSGw2q2/e4tX+htHh49uBWQxSRxwIakeHKn+nWVNI91ltlaPxkjNBx9CIayEltpY2gXhY3OA6v+DBPCCEgSo/tHDuXq42Gwu39GdMwAg1VxSafo81f+78OcfShCg+ken4+jswVkAbCeBWHGIJR9Hqn8l2Y5mfkCA6l++vujQ0QMDoKPRDD7jNJ8DVP8f8govKECA6n9+7KOfLxi+OwuAZ0qzpWTylhJlQdnU9wq0niaCwAcEqP6VaY1kTd03ADhLiOXBGYfbXB8Wv3yQWV4AAXkIoNFodFSN3i+EIBfkikouqc533/XK03haBAK9CPCcFjQ6rkbvHQbEGQCQKy655OFJ9d+bW/iDcAQumupX6/FJ/3JrJgaA+/5SK/UU7aL6F57maF4fAlT/uZOj/e97dxpg2BaFA7M/6F7HmOq/L7XwunQEqP7R5VS6/cp9DgGCZKlIJuK6VP+vsc4vuhCg+kebU2noayRgACBZKpKVvi7V/2uY84syBKj+0eWU+vm6IyqIZMov4toQuRgHqP6VpT2a2yFA9Y9uptXNl9MA034Jgwi+ZThA9d+lEn5qQ4Dqv4xm+NJqDAA7AVKsuJdyTap/bXmP9r4gQPWPAUhvRoIBaNbX6b+IwQTjvBxYbqsfZBMQ0IgA1X9erfCqzYFnC04BhGwWA6Alt0b1p83uEaD6R5OzaHKYIcUAQLYsZMt4W4Dq330OVQsA1T96nE2PgwGAcBAuG+EymQCqf7X5z33Dqf7R42x63M4AbO9us31hpgRAf/wGEdW/+xyqFgCKMb+6VSRnYQAgXBHiJTSCVP9q85/7hlP9o8c59fjTtv57wZMAIV1O0qX8Lqp/9zlULQBU/+hwSm08fu3qccGDgCDecXLow4XqX23+c99wqn99eqNfN6vHsAvgUX9HII/3MaT6d59D1QJA9Y9+l9FvDAAnASa8H5+T1FT/avOf+4ZT/WMAcmrl23dhADAAJgxA9eg+iwCASgSo/kn+bwk5NxYYAAyADQNwo1L9abR7BKj+cyc9vq8zHIF7i1VTP3Uv8BNy6OMA1b/7LKoUAKp/9La03i5KN4DvJwjmceDlkZZKkwDN9osA1T/aN0/75uOHATAxBT6fCKWJOO37qf79pk/dPef8Fa+aJavfGAAMgOJ1EFT/utOg09ZvNpfLpv53mumVlUDog+7xwABgAJQaAKp/p+lTfbep/nUnTUumBwOAAdBqAFj5rz4VOuwA1b9SvbFpWjAAGACFAUn17zB1mugy1b/NRKp1VgADgAHQaACo/k2kQ2edoPpXqDW2DQsGAAOgKijbR1g6yxt01wYCVP+2k6nGWQAMAAZAlQFY7KorG+mAXrhCgOpflc5oTOZT2owBwACoCczw6GpXSYPOmkGA6p/qf0qCTv0ZDAAGQI0BoPo3kw99dYTqX43GpE640q6PAcAAqAhOqn9fOdNSb6n+qf6lJf6uPYvVrnrs/sFPiCqVA1T/llKio75Q/asoMKTqXup2YQCYARAfoFT/jhKmsa5S/VNUpU7ic66PAcAAiDcAVP/GsqKX7lD9i9eWOcnTwmcxABgA0UFK9e8lW9rrJ9U/1b90k4ABwACINgBU//YSo4seUf2L1hXpiTlX+xarpr7P9WV8D454FAea+t5FsqCT5hCg+kfrRmldoUJ0AVEhqkSihuelLzabS3OZgQ7ZR4Dqn+q/UEIfo+XLbfUDA6BgoMYMqpn3bu9u7WcKemgRAYoqiiodOlw9YgAwAOLcOtW/xbTopE9U/+L0REcyLmGaggHYVTcAVAJ8vrOXd1T/TrKlvW5S/aNrvbomrtjEAOBWhZGS6t9eUnTTI6p/9FSYnp42IxgACCuNsFT/bvKltY5S/VP9n064svB5PmNlV11pajRtlUWimONB9W8tJTrqD9U/xZS0Yupce7piK6aIcy27CTr52HaEdJQ36KoNBKj+0b3k+nguoY/9e6e36ho+tqOl8Y9BAAAbnUlEQVS8X7w7p/q3kQhd9oLqX7y+kOM+GrTlQ/17G6/hQAAA+ggQmOTD5KKpfnWZPOi0egSo/vPpBJocE+vqpg2+1a56BNiYwHKtMXxqT6RSnwbogEsEqP6p/tXOMGMAIK8A8lL9u0ydJjpN9U+xM6bYkfTe1wDkgUCQuBQxqf5fw5BftCFA9U8BJaCAmqrdr+GGi8UATCXR3M9R/b+GIb8oQwDdRDfn6l/Bz//vNdzCasCCDcFFKnaRc3hD9f8agvyiDQGqf3RbtW5Xj68hx/MAcLJzEvnUz1L9v4YgvyhDgOofzZyqeyI+19T3ryGHAYDM+Um550BfmcgvIKAAAap/qn/V1X/9MxjYd5GWPwGQdH1j/rIF5R0L+QcIyEeA6h/t1q/dB/qrv0OQUs8YUv3LT3O08CgCVP9U/9qr/7b9Hw3A//QkEJK97rE6IN9RpeVFEJCHANU/2qtbe5/H70NkcRogxM5DbKr/D8HHCzoQoPqn+jdR/dc/PwRceDZwngRAovWM86JZX38gHy+AgAIEqP7RbhvafaQIg9yQOzW5g8lUoPM0EQQ+IkD1T/VvpPoPs/0fCB72ZKdOAFzft8lY7KqrD8TjBRBQgAAFkm/tMpW7DrcAhvjjLAAInpTkx0inQPhpIggsqP6p/s1U/0fOAGhDfLO5TJoALAFIX8YKwtu50+QTEFCGANU/xZGt3NizC8tWJyGtnPHsIZyyREBzHSJA9T/W7PN+8QVijx6zFRDTENs08MAfh0nTUJep/tHE2JpY+nrhltbREP20rf8u3Ti+31jA7T904ijreBEEhCJA9U81L76aH58veqMNtzseTAzLacwuHupfegnHH0BAMALo4enYRvsU4tPUT70hF8SaQVU4qKJdas/9pl4W8gcQEIAA1T/Vv2hdnZanwix/f3Q162sMwDRgwa0PNwxAf8DxF6kIUP33xTOvq9b6c9uxVXfOoGPTPx4YAKlJjnb1IED1T/VvNJdcPNSfe1j//DI7AXC4MU3Hp6/1XycJxx9BQBgCVP9oYEwNlHSts6exrpr6XlKDaYv+YAxbAZfNl2+rr+s/nv//739WX/v/P0tSYQmD5hhCgOqf6t9o9b9s6n/PRmqYIiDp6k+6jKGDMWzqJ3ZZnJW0UW+g+ncQN0YT/HnNP/IQoA/Rsauuzl8IkoARHBDBgXOLej4EOC/0IkD1T/Vv2RwMPZMlTNmKEDfLg0HfEJsYHMAA9ObzsX+g+sfUW8574Ym/g2KCEwEJBMuBYKpvGIBBmnb2TVT/GPIYhlzwNQavrcIJYwBMJUnBQTkbZwzA2dw+5A1oHpo3OxYF68ygBYBdoKx21Y1lMOgbwW6GAxiATram/6T6p/oXnLzjaNWQBYBdCG02l3G+lEQDjnAgKQcwAJ1qTf5J9U+MJo1RCeZirE6EKQPzoEgYGNpA9TGHA2MDe3KaNPpBqn/ib078qfnsyBNZOREQV4wBVMABDMAsZ0L1r4DjapKsXCwXm83lqEDBAMgdTBIzY/PKAQzAKF1792aqf6p/D+bi1COA3wXE3j84Epgk85pkPASJ1j5iAPZUa9yvVP9onAeNWz5Uf46LjMViEQ4N8AAOfUQEVHMAAzBa29oPUP1T/Ws1/SPbPfgAoHeR1KyvVQvjSJDoK0ZAJQcwAO9ka+g/qP6Jd5XxPiGvDT4A6DB42AlAkHgJErX9xAAcytb5f1P9U/1PSKQaNSIc638+IHreEe4daOw0bca4uOEABqBHvfpfpvpHH7zoQ3gMe38knPlLeNSoF6DoJ6KgkgMYgDMqdvBnqn+qfyfVf9Czaff/92JGpSg6GmDGx7lxwQDsqdX5X6n+nceLs9ww+f5/F0o8GZCAwWQI5gAGoJOq8z+p/qn+HRmAWff/u2hiO6Bg8XdEZkxIDw8xAJ1Unf1J9d/DIXTEpDGadf//NZp4MJBJcpBQjYghBuBVqk7+QvWPjjkzOrPv/3cBtWrqJxKGkYThLAjM8xYD0MnUyZ9U/+iXeS040PbZ9/+7iCJ4CB5vwaOmvxiATqb6f1L9U/0fJEc18T2x3VHu/3cRdfFQf7YOGP3D5KjkAAagk6nenxQwxLbK2J6Y/ENf49z/fwmp1a668QYg/UU0VHAAA9Cb+Ns/UP1T/c9IpCo04Ej/ot3/76JLKxC0m0RumgMYgE6ijv6k+if+Tcf/keQf+hvt/n8XVatd9egRSPqMgIjmAAagk6iPP6n+qf57EqTomJ7b5qZ++hgMM19ZbuvfTIM2F3Q+j9gU4EDUe30zNULax6n+Me8uc1ZT38ePxV115RLMAqIOzgjXcA5Uj/GD3cAVqf4x5E61OyzaTxLBHAtMYhqemMAqD1YYgGNiR/VP/OWJP3k4H4uHKK/xdEB5g+2V5PS74yIG4IO4Uf1T/Tut/kOR/iEeYr6wbOp/Ed9OfPkJF0pzAANwqG9U/6U5yfeX0sWwVu8wHqL+e/lQ/Vmqc3wvgQUHDjmAAXgncFT/VP9Oq/+gjdG3/70LrsViwaFAhwLMv0nKJTmAAdjXKKr/klzku4tqYYrtf/vB1f3ObQCIXpTojh3+R9wxAJ0uLaj+qf4da0Py6f8u0LgNgAH4mIjApAwmGIBOl6j+icEyMSgD9+TT/12gsRtAxoB7Jjt97ziIAWh1ieqf6t9x9b/KNf3fmQAEuBNgfsKFkhzAAARNovovyUG+u7QGLh/q37vcnOUnhwJB+tKk5/sDBzEA3PtHi7xrQbbp/85dhMcNeged/iM85TmAAaD6Jw7Lx2HJMSihAZvNpW/QSw443w33Og6UCP6uDBDwk3v/3Pv3fO9/V/8MxXiRSOQ2QCfC/CQhl+KAbwNA9V+Kd3yvBM0LW/LDLbAiBoDbAASBhCDw3QbHBoDqn+rfefUftuQXSf7tl3IbgAB0HoDlzYdfA0D1TwFSPv5Kj0F1U84ALBYLbgOUJgDf71sEnBoAqn+KD+fFx3Jb/Sia/MOXXzzUn30LMAmY8S/JAZ8GgOq/JOf4bhGat727LW4AQgOCExEBiHNHyBh4FCaHBoDqn+ofrU//5L+h7gI37jHx0GcZhsufAUBviD0ZsVduHMou/jt0BiwGxJHjyAtxwJkBoPovxLNyyc57sj/e/8KL/w49wLL58u14QyEOuMCBdBzwZQCo/omldLGkA1sRi/8ODUA4i9j7wNB/HQFka5wcGQCqf6p/Zhp/Lrf1bx/yr4QXwn0JW+JKQmM8pXPAjwGg+pfORdqXWi+Lnvx31mQwC4BDx6Fn5oATA0D1n5lXJPPUyXzK9WUt/jviCNgSSOBMITafmcobHwaA6n8qP/icJW1ZNOvrI2lXzkssBiTgLAWc/L44MABU/1T/zCz+XO00xHqzvpYvmiRpxsgKBzSIwrwCherfClfpxzzdFbb1ry+sg1OZ11GIAn5wYBgHjBsAqn+qf6r/nzK3/vU4AJ4PQPIalrzAaT5Otg0A1T8xMj9G9GN40VS/9qRbmS+zGFA/6Qg8DWNo2ABQ/VP9U/3/bLf+yUzz/a0KjoUEoiGB0EbdPLVrAKj+iU3dsRlp/KQ89a8/3R//C7MAkQiAC6YS6uWAUQNA9Q/neznvS1cXm83l8Qwr/FUcvC+i4tZLjLdNA4B2lOAS3ylNw8Qf/HPSg+DicfG4+MQcMGgA0I3EnCHRS0v0fe0Jz9g5mWOl/xEnT7D1kZvXY3DDngFAM2Lwgmto1xfd1X/nTHDzuHlmARJywJgBQC8ScgVToMkUqK/+Ow+AoyfwNAWerrbaMgBoBVqhK/7SjFc4Ur/Ln/p/4upx9cwCJOKAIQOATiTiSJokRaJOh6uZ6r9zLzj7dGQhED1ja8cALB/q3+GyZy7T98D/T9v67y5v2vmJu8fdMwuQgAOGDMCu/gcDQBKEA0oe+jPWnTALQHAT3LE5YMMAcHJobF5wPZ1aYyOej3sDZgESVIAEus5AjzVuNgRjSfWPNjBD+HPRrK+PJ08jrzILEEv4uY7vxN+Nv34DQPXfjSU/Pce0jX3/54wKswA4fZx+RA7oNwBU/yR+z4m/67u5lf99XoBZAAK+Iz0/53JBtwGg+p87/nzegobY2vffl/m718MswLb6YWHg6AMCVJYDug0A1T/xUzZ+ZODvpvrvPADOXwbxCD7t46DXAKAB2rlH+2Pop497/13m3/vJLAABFCOAfF9DrwGg+if+fcfu8/i7q/47D3DxUH+GAIgAHJjDAZ0GgOp/zpjzWTOasb277fKhy5+rXfVoZjBZ3R5xdTsiNywudBoAqn/4PYzfdnFaNvW/i83m0mXi7zq92lU33olA/+0Gefqx1WcAqP7he/q4UICx9+q/MwHh4QcQQgFhmeEQOMOhzwBQ/RPr3vU+rH/r8h8/d9VVmA7xTgr6jzCO54AuA0D1D8fHc9weZiEOSPx7CHA4kD2SE+g5xlSXAaD6z8EJvkO09jT1017q49cWAQ4HEji9jJCIFpL2loweA0D1TzzJj6ccY2T0cb9zrQzbAnOQj++wJUJ6DADVP7FnK/amjKeeeJ2bzyd9nm2BU0jFZ/wKiw5BofonRv3G6NvYuz30Z7AbaNbXEOWNMGABFqc5oMMAUP3D49M8doAP2/6G2YBVU9+7Jwtb7lgTMYQDTX0/LKrKvYvq30FyG8JVx+9pt/15P/RnsASxIJDk51gsRplfBVUF1T8GYBSnTcY+C/8G5//wRhYEIhqIxgAOCDcAVP8DxtBkwqPfnX6Fg+5GJT/e/IwAJwQSRF0Q8bOHC8INANV/z7iR9F3McnLe/xw3wwmBLoKE5D4jSQg2AFT/M8YVg2BC+y4e6l/mpED3n10+1L+TIBASONDDAcEGgOq/Z8xI7iaS+zlNYuo/kn1ZNfXTObD5O2LjkgNCDQDVP/HoMh5fzB1T/5GSf3sZzgZw4Zg9C8bkvgs1AFT/GIDJnDYwQxIWscdMge6vxcOCEBTPgtLbd4EGgOqfWO3lq4Hkfq5vTP0nsivcCkBYzgWfu78LNABU/8Spuzhk6j9R1t+/LLcCuBXgoIIYJZ7CDADVP8l/FH+NxTOr/vcTdoLfuRWAwHgWmA99F2YAqP6Jzw8cNZbk+/rH1H+ChH/sktwKQGT6gtDd64IMANU/ceku/pj6P5aiE7/WrK/DNguvZKPfCO0rBwQZAKp/ePnKSydVf9dfVv0nzvmHl19u69868PmJ8LjlgBADQPVPDLqNQQVP5DzMnyb+zbMCEB23otNVWEIMANU/segxFnnMb0krER4bzK0AdgZ0ydDjTwEGgOqf5O8x+Yc+L5r1dckU6P67w7YLr+Sj3whv2BVTWgSo/uGhSy0SEHulY1/E96+a+t4lAT1WvPT5/YxPYRGi+if5u9Tepn4SkfxoxGKx2Gwu2RqIELkUosIGYLVbf3eJO0b0vRF1hEf7oJ9ddUXulYQAWwPdBqTrBFTQAKx21Y1r7B0lPcb5rcDitD9JiX+vLawHeCMpAesEi6IGgOqfOHMSZy9mb/lQ/bmXcvhVGgKsB/AVkO4FuJABoPonzrzFHlv+pGX7nvawHgBxciNOxQwA1b8bjnGro729ypa/noQr7uVddcX5AJgAFwJdwABQ/RNbLmJrz/iEk2fF5Tka1I8A6wEQKRciVcQAUP274NZeAvTcX57y159nRf+F5wVgAswLV2YDQPVPTJmPqX3jE/b7bzaXohMdjetHIKzadEXYffLyu/2tkdkNANU/euLDBLX7/Tnqtz+5qvgLhwTZT4KejU5GA0D17yPxYXCexzmccqkix9HIMwiwKBATYNUkZDUAVP8kRycmKGNcncle/DkGAlQvTgLXaqLv61cmoSJ+iB8v5ofDfmJkXIHX4MEliJg5EctmAKj+zXGnz1Q6fn3ZfPkmMHXRpFgIcFIgJsCUkGcwAFT/xIypmOkzOKz4j5VmZV+HnQEImhlBy2IAqP7N8KUv+Tl/vV3xz3Y/2Yk7WuvYGcCiQCuCl9gAUP1jlq2bH7b7Rcusii602VyGhztYJzf9My7gyQ0A1T8xZDuG2O6nKG9HbWqzvuaZAbaD27x4JzQAVP/EhvX4IflHzagKL4YJ4HaA5tsBSQ0A1b/1BOi6fwljR2Em9NtktgdS6agVwkQiRvVPTKiNiQGGnr3+fvP90Z5jAhA8lYKXzABQ/avkw4Dk571f7PU/mgJ5EROACVAnjgkMANU/caAuDgYaHyp/8vxJBDgjAPFTJX5JDADVvyoODEx+7vvEQT8ncx9/fEEgTBG5DxZERcfiyNgGYFddwX1MsDkOkPzJ72MQYCYAEVQhgpENALyH9yp4P6ZAIfmPSX28t0OAmQDEULwYxjQAVP86Zn3GJD/v7yX5d+mMn1MQoCLCBIg2ARENAFyH66K5PtbMkPynpDw+c4gAMwEIo1hhjGUAqP6p/scmWMnvJ/kfpjH+PRkBHh6EOEoVu0gGgOofkyvW5I6NPZL/5FTHB/sQwARgAsYKUY73xzAAVP9wOwdXc3wHyb8vg/F6DASolKiURFVKEQwAnIbTojg91SiQ/GOkOK5xDgHWBCCYYgRzrgGg+qf6n5pwJX2O5H8ubfH3mAhQNWECRJiAmQYAHsNjETyeYyZI/jFTG9caigAzAYhncfGcYwCo/qn+5yReCZ8l+Q9NV7wvBQJUUJiAkiZgua1/m8pruAt3S3J39neT/KeGPp+LicBqe3c7m8wS3DRtUFgRVjeTuEz1r3CsMSxvOls9Ljaby0nc50MgEBsBHiWMOL2JU04sphkAqv+cY8R3xYyNwN3Y+s31QGA2ApgAhC6m0A271gQDEM60YLaHGQCFHAjrrmYLNRcAgWQINOvrZVP/i8BiBvJwYLwB4JYV3MzDzcg4N/V9Mt3mwiAQDQFMANVVtupqpAHYbC4xqJETU7ax9tvuMLsaTZ+5EAgkRyAssmrqJ5VOG0FTZGDGGQCqf79JVKMWBbNK8k+erfiCJAhsNpeftvXfGgOPNmtJFCMMANW/ImOnhX/p2hmS/6JZXyfRZi4KArkQYMV1OpHAqAw3AFT/8FBLvCy31Q+Sf64MxfckR4AdAohvGvEdaACo/qn+tdza44Cf5PmILyiAwMVD/ZkFWBiBuEZgmAGg+od3cXmXBk/2+BdITHxlRgTCDoFt9UNDMNLGNCIXF9dhBgDjqWEsfbdxzrHWGRWcrwKBmQi0B7FUj3ETgW/x8IvleQPA7SdiQ3J8PJvT8zyeqbp8HARkIbBq6nvJgUnbNCSO88LJjJOGcXTaxnC/n5X+shITrcmHQKjOmJ51Kn4RFmWdY+rFQ/0LRg5+SeRA2CLNA33ORTB/t48A6wJYoT3RDJwLjtWOW00Sk5/7Nm3vbs9xl7+DgB8EWBeACZhgAk4FCNU/lb80o8H9/lMRy9/cI8B2LUR7jGiHJH80aHgeBYZygqEcw73x760emfI/Gq28CAJvCKx21Q3rAjACQwS2PTFts7l8Y89iAX/gzhDuZH0PT/LbD1F+B4EzCIRbAjxMiCpuQBW33NX/hKS/CA+g+rr+I6uwD2gf7fFrSEIhEw5AO6N2/BkEQOAYAmwV9CueJE7GXjcHmPI/pum8BgKjEGBKl0SgOxEwft7Gj1P9Rkk8bwaBMwiwS4DbAUy3wwHpHOBgnzNCzp9BYAYC7BKgmvRWTdJfJZwPC/0OFqTOkDo+CgIgcBQBDg6iEpReCdI+Nxxlb/9RleZFEEiIQPt89y/fqI6UVEckRDcJ0VNMcpxvQo3n0iBwDoGwxYYzAzABnpIOfS3Pd7b3nVNm/g4CuRAIswEP1Z8IY3lhZAwYA+scoOrPJex8DwiMQWBXXYXgtC5A9I8kCwfyc4Cqf4wY814QKIQAtwXyiyMJCcwtc4Cqv5CY87UgMAmBzeaS2QCSkuWkRN/S8zs8a6I9ZnqSCPEhEACBogi0swFtEKcXCwQZjOGAIQ6wr7+odvPlIBAHgecHC90jzobEmW2FbCtMxQFO84uju1wFBEQhEJ4Wt6seMQIYATgABw450G4n3t7ditIsGgMCIBAXAW4LIP6H4s+/vXOiegyPk46rNFwNBEBALALhuQIcIuRd+Om/Z/MTFvldNNWvYkWKhoEACCREgPUB3EtOdS+Z64rl1ut0Pw/vSSiuXBoEtCCwq644TZBq2HM17KHvJH4tgkw7QaAEAs36moWCGAEPydBTH0n8JcSU7wQBpQiEwz8wAhgBT0nSYl9J/EoFmGaDgAQEWiPQ1E8WxZE+YXCscoDEL0E9aQMIGEEgrBR+PhaUpGE1adAv/dwm8RsRXLoBAhIRwAjoTxIkentjSOKXqJa0CQSMIoARsJdEMAb6xpTEb1Rg6RYIaEAAI6AvaZDo9Y9ZezsuHNvLPn4NMkkbQcA2AsEIsGtAf2LBHMgeQ07us62j9A4EVCPA9kHZCYQEr3N8SPyqZZHGg4AvBIIR+LSt/ybh6Ew4jJuQcWvqpzC75ks96C0IgIANBDhiWOx58CR5IUn+6DMTwmO7qxsbIkAvQAAEfCMQHjoUnj64rX6QeCQnHtpWkp/Pz+Mg8fsWS3oPAoYRYMEgSbZkkpX23WErX0j8i111ZTjs6RoIgAAI7CHQrK+D8LV7mY9Og5IopSUr2hORk939fbby7YkCv4IACPhCYLO5bGcFeOYA6wWMG8HXar9ZX/sKcnoLAiAAAucQYFYAE2DQBIS1L8tt/RsH95wTAP4OAiAAAt2swC6sho447cq1MBg5OdDU96zmR85AAARAYCoCu+qKHQSYIC1GMJx/0e7d597+1IjncyAAAiBwBIFmfb1q6nu2E2IIJBiC7p5+mN6n0j8Sr7wEAiAAAkkQCOsFgvCyeJBp/ZzT+rv6Z1vlP9Sfk/Cai4IACIAACIxAYFddhWnXIMxsK2R2IMXsQFfts19/RFzyVhAAARDIjcDFQ/2ZWwUYgTlG4NlIVo+BR4FPuTnM94EACIAACMxFIDyPYFv/xsOJMAQnDUG4ldQlexbwzY06Pg8CIAAC8hAIi7WC0LN2AEPQ3jIK+/M5hldeoNIiEAABEEiKQDhv4OV2wYozB8wvJmwP5Gm+fGun9Knyk4YWFwcBEAABfQi87C5on8zGDgO1puDdPfym+pUqX18o0mIQAAEQKI5AuG0Q1hFgCmTeNgiVfbvGY3t32+7Hp7ovHjM0AARAAARsIrDZXLZrCZ4TziNbD/MZg9fKfnt3207lc//eZozRKxAAARBQg0A4sjgsMNze3S6bL9/CmgKMwQxj0N5+qR6fj4F+OWmPyl5NONBQEAABEACBxWIRjEG72HDfHGyrHye3pWU+3a5MW6rHbur+9ThdKnpiBgRAAARAwAUCLzMH4STDUO2G/5/PLAhPQlT6NMSueg/tD1sug/F5OS+/vUfvYmDpJAiAAAiAAAjEQKBbdxBmE3rNQmca3n5Oe3DS2+efTcjbv7uKPST1th3htseuumGVfYxB5hogkA+B/wfiPXU+J7IT7gAAAABJRU5ErkJggg==;fontColor=#000000;strokeColor=#000000;" parent="1" vertex="1">
          <mxGeometry x="650" y="90" width="60" height="60" as="geometry" />
        </mxCell>
        <mxCell id="eoIN0Z875P-ENP-9NvoL-5" value="FastAPI 2" style="shape=image;verticalLabelPosition=bottom;labelBackgroundColor=#FFFFFF;verticalAlign=top;aspect=fixed;imageAspect=0;image=data:image/png,iVBORw0KGgoAAAANSUhEUgAAAgAAAAIACAYAAAD0eNT6AAAAAXNSR0IArs4c6QAAIABJREFUeAHtnettI8e2hTkUA1AICkERHCiCgSO4cASGIzCgP+pp4gCEALY4/waOwHAEA0UgnAiMicAhzEW11BJFscl+1GM/PgOGNBTZrFq19tprV1dVLxb8BwIgIBeBZn29+vrf/yy39W+rr+s/Vrv19/b/pn5a7eqfcv5/btey+fIttPPi6/r/QrsXu+pKLri0DARAAARAAARKIfCS4J8T5vqPNoHu1t+XTf2vnOQewWi0hmX9ffW13rQG4aH+jEEoRTq+FwRAAARAIB0Cm81lSHDP/6//CEmvS+7PVXyEpCpqBiBGf15mN15MwvOsx3//s2jW1+kGiiuDAAiAAAiAwEQEQpIPyeotwcdIhlzjcAZkuav/+fS1/qubQVhsNpcTh4yPgQAIgAAIgMAEBJr1dUj4bTIyV4UrMx7h1sLXenPxUH/GEEzgMh8BARAAARA4gsDLNH53fz5M3Zu7N2/NwDT1U5iJeb19wCLEI8TmJRAAARAAgTcEdtVVqCLbRWokekG7C2LNSDwvQAxmjp0Jb7TnNxAAARDwiUC7Ar/erMRtqYuV9LjO4TqC7t9hPcHrrQOf7KfXIAACIOAMgZek3yYAa9Pf9GfSzEW4rRNuG7TrCJyFA90FARAAAZsI7KqrsEI/TPu294VD1UeSnJQkveAWzEC306DbxmkzOOgVCIAACFhCYFdddavzWazH9H9M0xJMQbt+gK2HlhSDvoAACKhGYLO5bFfpcx+fyj7D7E53u4DDiVSrBo0HARDQjEC4X/t88A6VbsxKl2sN51NYRxJmnNhVoFlJaDsIgIAOBLoFfNbOyc9QuZLYhyf2KVh1uwqYGdAhJbQSBEBAAwLtQr56w6r9tAlsStLjM8fHBDOgQVhoIwiAgEwEXhbzsT//eIIh8erB5dkMrP/gNoFMqaFVIAACEhB4WczH+fp6khtGZOxYrb+zk0CC2NAGEAABEQisdtVNu0ef+/qs4neyFoKdBCKkh0aAAAiUQoCte2OrR95vcsahqZ+YFSilQnwvCIBAPgTap+ut/+CQHpK5yWQ+YwajmxUIM2L5ApJvAgEQAIHUCIRFfc2Xb4g+iR8OnOdAWDjYzgqkjkuuDwIgAAKpEAjVzGq3/o7onxd9MAKjQw4EI9AeNMTxw6kkiuuCAAjERoD7+ySzw2TGv6dzor1l9nX9xwIjEFuquB4IgEAUBDaby1CttPueZ9wLJVFMTxRgZxs7jEAUpeIiIAAC0RBgYR/b9zB8WTmAEYimXlwIBEBgEgIk/qyiT3Vvu7qfMr4YgUnKxYdAAATmIBDu8bfiQ+WHCYADxTmAEZijZnwWBEBgEAJt4t/V/0ypVvgMFSwcSMsBjMAgGeNNIAACYxAg8acVbhIj+MbkAEZgjLrxXhAAgaMIkPhJTDETE9fKyyeMwFFZ40UQAIFTCLQP6GGqv/i9XRJm3oRpFW+MwCm1428gAAItApzcR8KxmgTpV/3z1QigdyAAAiDwisCuuuLIXpI/SdIHB3jWwKvy8QsIOEYgnN7HQ3qY6mcrn0sOtEbgof7FsQLSdRDwicDqK4/lpeL1UfEyzufGef19sauufCohvQYBRwiwwO+cGPJ3EqY/DrA+wFESoKsOEdhVV5++1n8h7v7EnTFnzAdzoKmfQpHgUCHpMgjYRKB9Sl9T/ztYBLgn7PKeMPzAKLxy4Gu94fHDNvMBvfKCAKv7SeSYOTgwkQPPj/ZmNsBLuqCfhhCg6qeae63mJiYAPg+HAgfCrUNmAwwlB7piGIFmfb1q7+MhXiQwOAAH4nAgLBK8YMug4cRB13QjsKuu2NMfR+xIGuAIB45zgNkA3WmC1htEIOzpR7COCxa4gAsciMsBZgMMJhG6pBABpvtZ4MX9fThQiAPMBijMGTTZBgIs8otb1VAlgiccGM8BZgNs5BN6oQWBzeaSA33GCxXiDmZwIB0HmA3QkkBop14EmvX1897cdIGMSIItHIADUzjAuQF6UwstF45AmPKfEpR8BjGHA3AgKwc4RVB4NqF5ehBgyp9FXoUWeWVNGvTRFs+b+mnRrK/1CC0tBQFpCDDlb0sUnSW55bb6sXyo/vy0rf8Ov2MofM1EhAWCYeZSmqzSHhAQjwBT/r7E0lpyDIn/MMiCEbDWT/pzPk5ZIHgYCfwbBPoQYMqfql/5TEGo9o/Re7W9uyVhnk+YFjEKCwS5JXAsKngNBDoEONiH5K88+YfkddFUv3aU3v+JAfCZ/PcNDbcE9iOC30HgBYEgmuGe2X6w8DuCqY0DgcN9T45bPtS/a+sP7Y0fg9wSIO2BwB4CPMQnvsgg3IUw3d7d7lH73a+rXXXDuBQaF2kzS+wSeBcb/MMjApvNJY/uRRAtJcXFrrrqC2UMAFzf53p7jHDP7aI+DvE6CJhAIIghU/4I4r4gav/92Mr//WDFAMD3oxwPBwfxHwh4QYAtfgjhUSGUNk07sj2nqv8Q2xgAeN/P+/X3vrUjXvIC/bSOwGZzyf1+RLBfBPVic676xwDoHdtsfGVdgPUM6Lh/u+qK+/2IYDYxHVm9z23XueofAwD3h3Ds+bZodeM4U9B1cwiEI33Z4sce/8xJeYjgxnjPkOofA4ABGMO1vrMkzOUGOmQbgUDkMcTnvQilNg4Mqf4xAPB6NK9ZHGg7OVrvHckf0RstespmCYZW/xgAYmFKLIQ1U9bzBP0ziACL/RC8KYKn7TNDq38MAPEwmdthceBmc2kwTdAliwiQ/BG7yWKnaAZgTPWPASAmZsUEJsBiqjTWp3Cy3279fRbRFSUA+ulb1MdU/xgA31yJohVsEzSWMC11h2N9WeXvyLyNrf4xABiAGCYg7KbiscKWEqeFvrDHn+TvKPkHIR9b/WMAMAAxDEC4BibAQtK00gf2+JP8nSX/KdU/BgADEMsAdCYgHC1tJY3QD40IkPxJ/s6SfxDfKdU/BgADENMAdNfiwCCNidNCm0n+JH+HyX9q9Y8BwAB0STv2T0yAhYSqqQ8kf5K/w+QfhHtq9Y8BwADETvz718MEaEqgmttK8if5O03+c6p/DAAGYD9hp/gdE6A5sWpoO8mf5O80+QfBnlP9YwAwACmS/uE1MQEaEqnGNpL8Sf6Ok//c6h8DgAE4TNap/o0J0JhgJbeZ5E/yd5z8g1DPrf4xABiAVAn/2HUxAZITqqa2kfxJ/s6Tf4zqHwOAATiWqFO+hgnQlGgltpXkT/J3nvyDQMeo/jEAGICUyb7v2pgAiYlVQ5s2m8tw5GQfsXgdQXPBge3dbaxwDSe3ucAM0yiscODEwFgx7OM6PNhHWABjNkokzvbM9YjPYccAwONiPG7W1z6SF72chwDJn+RPBffMgYjVfxuU7eOySYIlkqD37+QBQvPSoo9Pk/xJ/iT/lgOxq/9OQLwnIvpfzgBiAroo5OdRBD59rf8iQMsFKNgLwj529f8ScYyxoDF2aHaXu/qfRcTbWkcTCS/qQ2DZfPmGOCFOcODleeuJRBJ8ibHiHGjqJ0yAvhydrMUkf0SpuChJqsYSVf8hgMGZWBPBAUxAsnyq6sJhn6gIQkpKALTF7VqIVPf+O1Eg1jAAYjiACejC0udPkj9iJEaMpJiuhNV/UBnwJuYkcSDM/vrMfs57zZ5khEiSEEloS+rqHwNAzEng+Yc2NPW983TorPsc8et2ivtD8EupvCW0I3H1jwHAAEiNP44M9uIB2OtP8peQbIW1YbmtfuSQAKkJgHZhTsKscI4Y4DsKIrBq6ieCnWCHA+85kKsCAvf3uIOHHDw4KKhgYs7x1Wz3kxNsCJ+cschV/YcYZ9zljDtj8XEsOCgoRyYu8B2r7d0thP9IeDABk1zVPwYArqnQG7YHFsjQCb+S7X4IjwrhKbAuIGf1jwEgDrXEIdsDEybkrJdmxT+L/gokVi1Cl7P6xwBgALTERdtOtgdmTdXxv2yzuQz3dFSRjmSFYcnEgdzVPwYAA6BNiy8e6l/iJyaumAWB1W79XRvhaC8imYsDuat/DADczsXtWN/DzoAsqTr+l6ya+j4WCbgOwmWNAyWqfwwAcaQyjlgUGD9Bp7wii/4QGpVCk2nq/xmbMoeeMC7EpkYOsCgwZcaOeW0W/XEPPWsi1Sjo1WPMkBtzLY3iT5s1cjx+m5cP9e9juM57cyPAoj+SP8l/AAfKVP9BDkim8RMTmObEtFzs5E6n6r7v09f6L4IhZzDwXfr4Vq76xwAQL/ri5f2Y5XhiprrEK6HBYXpGO7lo//tgA48UeJStYBjTFGPKNbPyKiwK5D9BCDTr66wEYJp5wDQzoiSPk2Wr/6AY8jCBp4zJBA5keHS2oAwruCnc9ycZY8gGcqBs9Y8BmJBo4PZAbpfAtnw8Cc7MeZrGff8SxOc79VVN5at/DABxoy9u+seMJwfmyfG938J+/35yWgo0+hJjnGVUK4xljLHkGlJ4xPkAvek58R/Y7y94agyBkiJQoR3Lh+rPxNE4+PKScKEtxGkMDvC8gMHhH++Nq6Z+ijF4XAMRsM6Bxa66ihd5865kHWv6509P2q2BgmJsXoQq+PRqe3dLoPkLNMZ8/JhLqv6DtDCG48cQzDRgtv6uIHUaaCJb/pj6Z2X0YA5Iqv4xABoSGW2cbLjYGpjeYDD1T4BODlBnxkFa9Y8BIHatx+6iWV+nz4JOv4GpfwTEuoDE7J+06h8DQPzG5LfIa3FKYCJ3wtT/4GlfkYHhrPouPQYSq38MAAagdFzk+H6eGpjAAzD1j3jkCF4r3yGx+scAEMNW4utUP9gVENkAMPWPcJwKOP52wI+mvo8cgtEux1gdjBUzY0ZnNtkVEEc0dtUVooFowIFhHJD+uFLGcdg4gpN+nMJJtXGSoOOrrHbr7wSD/mBgDDONofCtSPAgEw+YWSg+syDdjIu3FWExBYKBYMCBYRzQIDiM5bCxBCcbOIWH1YlPtCIbGB7z29T/Egg2AoFxzDCOwqv/oDPwIAMPqP6LV//veS7jQVwi83xfo3jML0LxPojA4xQeGqp/DAAcPsVhq3/jscF9Wb7n9fB0JatkoF+IYBIOKKj+MQBwPwn3Ncx4KInPnpSc8eUw9b+r/3FLFA1kpo2iphi1VP8YAAyAV11vY5QnBp43EqumvvdKEvqNQE7igKLqYlL/MJyiDCdjOE2npJ7OeT4rZ3rHalfdQK5p5AI3n7gtt9WPTOEZ5WvgqU+eMu7duLMgsFdIOO63Iwk/EYxhHNB22AjjOmxcwckoTjws6Hj+D0IG6Y2SnincJFO42qr/EPnEODHunQPaTPvxjB3zVfb8J0kQ3gPNev81Con1MaF/GJxzHNC0aDdmmu+9Fg/7IWjOBQ1/f88RjdV/EADG8f04godTPAQ/sKs3USf5w666Co6IQHAaCNwemDT7o7H6xwAQ4+j8GwekPrI7SZ7vu2jYGgEp3kgBFmBxjgNaq38MANw+x21Pf2dbII/6nVT9eQoS+voxaWit/jEAH8cSfnvHxPG2QKp/7+Sn/+MTQPXYN5um4fXx/YUjYGaZA+vvGuI2fhup/qn+uf8/gQO6KwaSmeVkRt+m8Vt3TE8yB6vd+vs0sCAZuHnlgO7qPwgF3PXKXfrdz31nswAc+Usw9AcD2PRjo79S6O8b4w42fjkQnoA7qZLW+CGqf79ER+Smjr3+6p8ZgKljz+es60Z4Aq7GXD66zVT/BLP1YE7TP/3VPwaA2E8TGzZw1by7Z7ARoPq3QVYCOec42qj+MQA5OcN3adMo87MAVP8EpbaglNFeG9U/BoD4lxFPcsdh+VD/Pria1vZGqn+5xCMwpY6NneofAyCVY7RLiv61DwrSltiHtJfqnyCTEmSa2rFo1tdD4kvLezRhT1vRrBIcMLkWgOqfYCoRTJq/0+JZ4ZrHg7ajYTk4YG4tANU/gZMjcKx9h8WnhVkbI/qDtqXggKlZAM78J0hSBInla1qs/sNtCstjRt/QuVgcsDMLwJn/E857J5BiBZLW61is/jEAxLXWeCzRbhOzAFT/BH2J4NH8nVarfwwAWqA5LnO3Xf8sANU/1T9P/BvNAavVPwYAA5A7iWr/PtWzAFT/BLz2AMzdfsvVPwYAPcgdT9q/T+8swGZzGQ410D4AtB/RyskBy9U/BoBYyhlLdr5L4Umgq+3drZ0BIHAZy/QcsF79YwDSc4g4tYjx+nuIHVX/Uf1bJCJ9SiWw7RGgm82lqiCf0NhU+HFdYtM2BxTNAoSFC7YHg2BjfCNzYHt3OyGfqvsIvInMGxbZjl5kq5ODimYBVk39pBNkgpNxy88BL9V/cCvwKz+/wNwK5gpmATj21wrZ6Ec24XRS/WMAiKlsMWVwZuTTtv5b/JRfaCSDTKDDgWEc8FT9YwCGcYLYAac+DsjeJcTBP07uRxGgfQE6+nVH1T8GgLgZHR8GK/k5GIjeKcTBPwT4HHJ7+6y36h8DgD54i/EU/ZU5C8DBP1T/uPVxHHBW/WMAMAApEqK3a4qcBeDgH4LbWyDO6a/H6h8DgEbMiRk++8afhbQzQ8KZxQzQ2wCBBVic5IDD6h8DQEycjAlmEAfPIC4f6t9DPIn47+Kh/oWBJbjhwDAOLLfVD3EOPpOSwJFhHAEncDrNgeoxU8ie/xq2/kHW02QFn318VD/i87wcnHzHPg78TlzAgWkcaG8hnoy0XH9k69/gaRvIPo3slnBrq/9csSnweyyNJX0hnktyQMRugHAvoiQIfDdBqIkDnqv/4Ec0jRVtRVskc0CElnDuP0EiOUgktc179Y8BQCskxaP+tpR+QBDT/0z/s3J3MAdEOPbCtwX0iy5JnDGUw4GitwFWTX0PGeSQgbGQOxZU/8/OA47K5Shjo3Bsmvq+mKdn779CwlCxD67YYwoi1T8GICafuBbaGzhQbjdAs76GhJAQDpznANX/W40CX87zBYzAaAwHihQXTP9D0jEk9fzecFDWWwr0/ZtnHtB3NDMNBwosBmT6HzKnIbM1XAWd2CXAe8AZa/ymPxI4nXcxINP/Re4jSyAabRgreNWNgLwrpgnwZyx/eD+cGcCBnIsBmf4fMCAstsMk7aj+D50HYo52wIH4HAgz8oexluzfTP/HH0CCwiKmVP+HIgTPLfKcPkng9aJZXx/GW/R/r3bVjYTO0gaCTjYHqP6PiY/sMSOmGB+9HFg+VH8ei7mor4UvgSR6ScLY5Ro7qv9jwgP/cvGP7/HGtSxnAoQv8QYs/UVMxnGA6v9Y8g+vjcMR3oEXHBjDgaS3AcJ+5jGN4b2Q1ycHqP4xAMS+z9gvPO4pdwOw+r/w4LKzQMHOAqr/vuTPDAD6gSlIzIGmfjoVf7P+xur/xINHgleQ4E9zIO+BHLPCuciHSQCn+QM+4DOXA2k0iMN/1CenucTi86fFKcsq3CJpO96XwqHTHAIf8JnLgSRHjy8f6t/nNozPQ27LHEjjvOMlXwlXsjz+9A19E8GBFOsAPm3rv0V0jmlyZiIEcoDqf5i9QENIknAgMQdSrANg+1/iQROY1AjU4WNO9Y8BIF6GxwtYpcVqsdlcDovIIe/i/j9VNwallwNU/0NE5Pk9CH9a4Qdf8H3mQMStyNz/h1QISz8HqP4xAMRHf3yATQFsYq4D4PjfAgNIxd1bcUsSFKr/4ck/vFPS2NEWdM0sB2KuA2D/P4FiNlBmGi2qfwwAsYE+SuRAHG3i/r+KSlQiAc23aXt3Oy798W7znJhpKMEHMxGNAzH0ifv/EDIaIQ2JY/vkragrbX2YA7iEnsCBPBwIM/ezVWXV1E8MWJ4BA2dFOMdw17OjU98F4Lgijhsy7F55N+9UwF115RU4+o1Q9XGA6n+68ejDlNeJNzgQnwOzFikz/R9/QCC5AUyp/ic7APhvgP/MDKhZFzbrNgDT/wQrgv2eA1T/k3N/+0H49J5P4AEeqTkw7VRApv/VuLzUBOL6eyJF9T/LAcClPS5RSaOxWTgw4VTAsHiAYCVY4cAbB6j+Z+V+ZgCyiP0bX4ldsAgcCLfyR0fuant3C4EgEBzY4wDV/2gdOfxAMFFwao9TmAJmAVJzYIpu8fhfghShfuPAclv9mHYv7TAF+v73alc9wqs3XoEFWKTnQPU4WnUIVIiZnph6ML5oql9HBxEf+IAAuqKH88S/jbGatBOAHQA2Bp8gnj+ObfX/IZXxwhQEMADz+UhMg+FYDoyO1bFfwPshpVUOUP2Plo/eD2AA0AmrOiG7X2N2AvAAIBampF6YouT6VP+9uXzSHzAAGADZidLm+IzaCcAWQJskIPDGjyvV/6Q83/shDMB4DhK3YDaXA6OOBGYLIISbSzgLn6f6783jk/+AAUBbLGiDtj6MWghIkBKk2gieor1U/5PzfO8HV019n2KsuCaaBQdOc2Cxq656A3P/DwB5GkjwsY8P1f++IsT7ndlF+7GDPsoc42EFDQsAWQCoZIFeWqEZs2o2XoK0fiUMgMzkkDaW6LMEfAetA+ARwJBVAlnLtmHCyVnWM3es/rUFRjgNkP/PY4AWldUBW/gPWgcQXAKg2xp4xnPseFL9x8r3XCcBAs8m6iZM6a529f+I77Hx7ff9Z9cBcAKgX3IgJGHsqf4TpCwumQoBHtvOLdsRt2zDFv+TVCQJYAB8c4Dq/6RA8EdxCLBrC80erNmnngy42lU3gy80wnVwTQiqgwNU/+KyGw06iwALK9HXofoanvLbS6iXe0pMqWBunHKA6r9XHPiDWAQ4WwEDMNQAnFwIiJOESEOJZO99VP9iMxwNO4kAtwDQ7TF63EsmiASRxhDJ1nup/nuFgT/IRWCzubQVh2hw+vHs0bowPZD+yxlgMJbFgZP3xeRKPy0DgQWztrK0RIO29+4E0NB42gjhY3Pg7N5YEg0ISERgV10tm/rf2PHA9Yxr7NGdABwB7HThm3Gyn1nQOeh4TIniT5vcI8Chbb61a6pRO6p5bAGETFMJpflzVP/u86hOACjYKNjOFDf9unxkwTPPAMAA9BPGJjZHnbDOdECrnSGw2q2/e4tX+htHh49uBWQxSRxwIakeHKn+nWVNI91ltlaPxkjNBx9CIayEltpY2gXhY3OA6v+DBPCCEgSo/tHDuXq42Gwu39GdMwAg1VxSafo81f+78OcfShCg+ken4+jswVkAbCeBWHGIJR9Hqn8l2Y5mfkCA6l++vujQ0QMDoKPRDD7jNJ8DVP8f8govKECA6n9+7KOfLxi+OwuAZ0qzpWTylhJlQdnU9wq0niaCwAcEqP6VaY1kTd03ADhLiOXBGYfbXB8Wv3yQWV4AAXkIoNFodFSN3i+EIBfkikouqc533/XK03haBAK9CPCcFjQ6rkbvHQbEGQCQKy655OFJ9d+bW/iDcAQumupX6/FJ/3JrJgaA+/5SK/UU7aL6F57maF4fAlT/uZOj/e97dxpg2BaFA7M/6F7HmOq/L7XwunQEqP7R5VS6/cp9DgGCZKlIJuK6VP+vsc4vuhCg+kebU2noayRgACBZKpKVvi7V/2uY84syBKj+0eWU+vm6IyqIZMov4toQuRgHqP6VpT2a2yFA9Y9uptXNl9MA034Jgwi+ZThA9d+lEn5qQ4Dqv4xm+NJqDAA7AVKsuJdyTap/bXmP9r4gQPWPAUhvRoIBaNbX6b+IwQTjvBxYbqsfZBMQ0IgA1X9erfCqzYFnC04BhGwWA6Alt0b1p83uEaD6R5OzaHKYIcUAQLYsZMt4W4Dq330OVQsA1T96nE2PgwGAcBAuG+EymQCqf7X5z33Dqf7R42x63M4AbO9us31hpgRAf/wGEdW/+xyqFgCKMb+6VSRnYQAgXBHiJTSCVP9q85/7hlP9o8c59fjTtv57wZMAIV1O0qX8Lqp/9zlULQBU/+hwSm08fu3qccGDgCDecXLow4XqX23+c99wqn99eqNfN6vHsAvgUX9HII/3MaT6d59D1QJA9Y9+l9FvDAAnASa8H5+T1FT/avOf+4ZT/WMAcmrl23dhADAAJgxA9eg+iwCASgSo/kn+bwk5NxYYAAyADQNwo1L9abR7BKj+cyc9vq8zHIF7i1VTP3Uv8BNy6OMA1b/7LKoUAKp/9La03i5KN4DvJwjmceDlkZZKkwDN9osA1T/aN0/75uOHATAxBT6fCKWJOO37qf79pk/dPef8Fa+aJavfGAAMgOJ1EFT/utOg09ZvNpfLpv53mumVlUDog+7xwABgAJQaAKp/p+lTfbep/nUnTUumBwOAAdBqAFj5rz4VOuwA1b9SvbFpWjAAGACFAUn17zB1mugy1b/NRKp1VgADgAHQaACo/k2kQ2edoPpXqDW2DQsGAAOgKijbR1g6yxt01wYCVP+2k6nGWQAMAAZAlQFY7KorG+mAXrhCgOpflc5oTOZT2owBwACoCczw6GpXSYPOmkGA6p/qf0qCTv0ZDAAGQI0BoPo3kw99dYTqX43GpE640q6PAcAAqAhOqn9fOdNSb6n+qf6lJf6uPYvVrnrs/sFPiCqVA1T/llKio75Q/asoMKTqXup2YQCYARAfoFT/jhKmsa5S/VNUpU7ic66PAcAAiDcAVP/GsqKX7lD9i9eWOcnTwmcxABgA0UFK9e8lW9rrJ9U/1b90k4ABwACINgBU//YSo4seUf2L1hXpiTlX+xarpr7P9WV8D454FAea+t5FsqCT5hCg+kfrRmldoUJ0AVEhqkSihuelLzabS3OZgQ7ZR4Dqn+q/UEIfo+XLbfUDA6BgoMYMqpn3bu9u7WcKemgRAYoqiiodOlw9YgAwAOLcOtW/xbTopE9U/+L0REcyLmGaggHYVTcAVAJ8vrOXd1T/TrKlvW5S/aNrvbomrtjEAOBWhZGS6t9eUnTTI6p/9FSYnp42IxgACCuNsFT/bvKltY5S/VP9n064svB5PmNlV11pajRtlUWimONB9W8tJTrqD9U/xZS0Yupce7piK6aIcy27CTr52HaEdJQ36KoNBKj+0b3k+nguoY/9e6e36ho+tqOl8Y9BAAAbnUlEQVS8X7w7p/q3kQhd9oLqX7y+kOM+GrTlQ/17G6/hQAAA+ggQmOTD5KKpfnWZPOi0egSo/vPpBJocE+vqpg2+1a56BNiYwHKtMXxqT6RSnwbogEsEqP6p/tXOMGMAIK8A8lL9u0ydJjpN9U+xM6bYkfTe1wDkgUCQuBQxqf5fw5BftCFA9U8BJaCAmqrdr+GGi8UATCXR3M9R/b+GIb8oQwDdRDfn6l/Bz//vNdzCasCCDcFFKnaRc3hD9f8agvyiDQGqf3RbtW5Xj68hx/MAcLJzEvnUz1L9v4YgvyhDgOofzZyqeyI+19T3ryGHAYDM+Um550BfmcgvIKAAAap/qn/V1X/9MxjYd5GWPwGQdH1j/rIF5R0L+QcIyEeA6h/t1q/dB/qrv0OQUs8YUv3LT3O08CgCVP9U/9qr/7b9Hw3A//QkEJK97rE6IN9RpeVFEJCHANU/2qtbe5/H70NkcRogxM5DbKr/D8HHCzoQoPqn+jdR/dc/PwRceDZwngRAovWM86JZX38gHy+AgAIEqP7RbhvafaQIg9yQOzW5g8lUoPM0EQQ+IkD1T/VvpPoPs/0fCB72ZKdOAFzft8lY7KqrD8TjBRBQgAAFkm/tMpW7DrcAhvjjLAAInpTkx0inQPhpIggsqP6p/s1U/0fOAGhDfLO5TJoALAFIX8YKwtu50+QTEFCGANU/xZGt3NizC8tWJyGtnPHsIZyyREBzHSJA9T/W7PN+8QVijx6zFRDTENs08MAfh0nTUJep/tHE2JpY+nrhltbREP20rf8u3Ti+31jA7T904ijreBEEhCJA9U81L76aH58veqMNtzseTAzLacwuHupfegnHH0BAMALo4enYRvsU4tPUT70hF8SaQVU4qKJdas/9pl4W8gcQEIAA1T/Vv2hdnZanwix/f3Q162sMwDRgwa0PNwxAf8DxF6kIUP33xTOvq9b6c9uxVXfOoGPTPx4YAKlJjnb1IED1T/VvNJdcPNSfe1j//DI7AXC4MU3Hp6/1XycJxx9BQBgCVP9oYEwNlHSts6exrpr6XlKDaYv+YAxbAZfNl2+rr+s/nv//739WX/v/P0tSYQmD5hhCgOqf6t9o9b9s6n/PRmqYIiDp6k+6jKGDMWzqJ3ZZnJW0UW+g+ncQN0YT/HnNP/IQoA/Rsauuzl8IkoARHBDBgXOLej4EOC/0IkD1T/Vv2RwMPZMlTNmKEDfLg0HfEJsYHMAA9ObzsX+g+sfUW8574Ym/g2KCEwEJBMuBYKpvGIBBmnb2TVT/GPIYhlzwNQavrcIJYwBMJUnBQTkbZwzA2dw+5A1oHpo3OxYF68ygBYBdoKx21Y1lMOgbwW6GAxiATram/6T6p/oXnLzjaNWQBYBdCG02l3G+lEQDjnAgKQcwAJ1qTf5J9U+MJo1RCeZirE6EKQPzoEgYGNpA9TGHA2MDe3KaNPpBqn/ib078qfnsyBNZOREQV4wBVMABDMAsZ0L1r4DjapKsXCwXm83lqEDBAMgdTBIzY/PKAQzAKF1792aqf6p/D+bi1COA3wXE3j84Epgk85pkPASJ1j5iAPZUa9yvVP9onAeNWz5Uf46LjMViEQ4N8AAOfUQEVHMAAzBa29oPUP1T/Ws1/SPbPfgAoHeR1KyvVQvjSJDoK0ZAJQcwAO9ka+g/qP6Jd5XxPiGvDT4A6DB42AlAkHgJErX9xAAcytb5f1P9U/1PSKQaNSIc638+IHreEe4daOw0bca4uOEABqBHvfpfpvpHH7zoQ3gMe38knPlLeNSoF6DoJ6KgkgMYgDMqdvBnqn+qfyfVf9Czaff/92JGpSg6GmDGx7lxwQDsqdX5X6n+nceLs9ww+f5/F0o8GZCAwWQI5gAGoJOq8z+p/qn+HRmAWff/u2hiO6Bg8XdEZkxIDw8xAJ1Unf1J9d/DIXTEpDGadf//NZp4MJBJcpBQjYghBuBVqk7+QvWPjjkzOrPv/3cBtWrqJxKGkYThLAjM8xYD0MnUyZ9U/+iXeS040PbZ9/+7iCJ4CB5vwaOmvxiATqb6f1L9U/0fJEc18T2x3VHu/3cRdfFQf7YOGP3D5KjkAAagk6nenxQwxLbK2J6Y/ENf49z/fwmp1a668QYg/UU0VHAAA9Cb+Ns/UP1T/c9IpCo04Ej/ot3/76JLKxC0m0RumgMYgE6ijv6k+if+Tcf/keQf+hvt/n8XVatd9egRSPqMgIjmAAagk6iPP6n+qf57EqTomJ7b5qZ++hgMM19ZbuvfTIM2F3Q+j9gU4EDUe30zNULax6n+Me8uc1ZT38ePxV115RLMAqIOzgjXcA5Uj/GD3cAVqf4x5E61OyzaTxLBHAtMYhqemMAqD1YYgGNiR/VP/OWJP3k4H4uHKK/xdEB5g+2V5PS74yIG4IO4Uf1T/Tut/kOR/iEeYr6wbOp/Ed9OfPkJF0pzAANwqG9U/6U5yfeX0sWwVu8wHqL+e/lQ/Vmqc3wvgQUHDjmAAXgncFT/VP9Oq/+gjdG3/70LrsViwaFAhwLMv0nKJTmAAdjXKKr/klzku4tqYYrtf/vB1f3ObQCIXpTojh3+R9wxAJ0uLaj+qf4da0Py6f8u0LgNgAH4mIjApAwmGIBOl6j+icEyMSgD9+TT/12gsRtAxoB7Jjt97ziIAWh1ieqf6t9x9b/KNf3fmQAEuBNgfsKFkhzAAARNovovyUG+u7QGLh/q37vcnOUnhwJB+tKk5/sDBzEA3PtHi7xrQbbp/85dhMcNeged/iM85TmAAaD6Jw7Lx2HJMSihAZvNpW/QSw443w33Og6UCP6uDBDwk3v/3Pv3fO9/V/8MxXiRSOQ2QCfC/CQhl+KAbwNA9V+Kd3yvBM0LW/LDLbAiBoDbAASBhCDw3QbHBoDqn+rfefUftuQXSf7tl3IbgAB0HoDlzYdfA0D1TwFSPv5Kj0F1U84ALBYLbgOUJgDf71sEnBoAqn+KD+fFx3Jb/Sia/MOXXzzUn30LMAmY8S/JAZ8GgOq/JOf4bhGat727LW4AQgOCExEBiHNHyBh4FCaHBoDqn+ofrU//5L+h7gI37jHx0GcZhsufAUBviD0ZsVduHMou/jt0BiwGxJHjyAtxwJkBoPovxLNyyc57sj/e/8KL/w49wLL58u14QyEOuMCBdBzwZQCo/omldLGkA1sRi/8ODUA4i9j7wNB/HQFka5wcGQCqf6p/Zhp/Lrf1bx/yr4QXwn0JW+JKQmM8pXPAjwGg+pfORdqXWi+Lnvx31mQwC4BDx6Fn5oATA0D1n5lXJPPUyXzK9WUt/jviCNgSSOBMITafmcobHwaA6n8qP/icJW1ZNOvrI2lXzkssBiTgLAWc/L44MABU/1T/zCz+XO00xHqzvpYvmiRpxsgKBzSIwrwCherfClfpxzzdFbb1ry+sg1OZ11GIAn5wYBgHjBsAqn+qf6r/nzK3/vU4AJ4PQPIalrzAaT5Otg0A1T8xMj9G9GN40VS/9qRbmS+zGFA/6Qg8DWNo2ABQ/VP9U/3/bLf+yUzz/a0KjoUEoiGB0EbdPLVrAKj+iU3dsRlp/KQ89a8/3R//C7MAkQiAC6YS6uWAUQNA9Q/neznvS1cXm83l8Qwr/FUcvC+i4tZLjLdNA4B2lOAS3ylNw8Qf/HPSg+DicfG4+MQcMGgA0I3EnCHRS0v0fe0Jz9g5mWOl/xEnT7D1kZvXY3DDngFAM2Lwgmto1xfd1X/nTHDzuHlmARJywJgBQC8ScgVToMkUqK/+Ow+AoyfwNAWerrbaMgBoBVqhK/7SjFc4Ur/Ln/p/4upx9cwCJOKAIQOATiTiSJokRaJOh6uZ6r9zLzj7dGQhED1ja8cALB/q3+GyZy7T98D/T9v67y5v2vmJu8fdMwuQgAOGDMCu/gcDQBKEA0oe+jPWnTALQHAT3LE5YMMAcHJobF5wPZ1aYyOej3sDZgESVIAEus5AjzVuNgRjSfWPNjBD+HPRrK+PJ08jrzILEEv4uY7vxN+Nv34DQPXfjSU/Pce0jX3/54wKswA4fZx+RA7oNwBU/yR+z4m/67u5lf99XoBZAAK+Iz0/53JBtwGg+p87/nzegobY2vffl/m718MswLb6YWHg6AMCVJYDug0A1T/xUzZ+ZODvpvrvPADOXwbxCD7t46DXAKAB2rlH+2Pop497/13m3/vJLAABFCOAfF9DrwGg+if+fcfu8/i7q/47D3DxUH+GAIgAHJjDAZ0GgOp/zpjzWTOasb277fKhy5+rXfVoZjBZ3R5xdTsiNywudBoAqn/4PYzfdnFaNvW/i83m0mXi7zq92lU33olA/+0Gefqx1WcAqP7he/q4UICx9+q/MwHh4QcQQgFhmeEQOMOhzwBQ/RPr3vU+rH/r8h8/d9VVmA7xTgr6jzCO54AuA0D1D8fHc9weZiEOSPx7CHA4kD2SE+g5xlSXAaD6z8EJvkO09jT1017q49cWAQ4HEji9jJCIFpL2loweA0D1TzzJj6ccY2T0cb9zrQzbAnOQj++wJUJ6DADVP7FnK/amjKeeeJ2bzyd9nm2BU0jFZ/wKiw5BofonRv3G6NvYuz30Z7AbaNbXEOWNMGABFqc5oMMAUP3D49M8doAP2/6G2YBVU9+7Jwtb7lgTMYQDTX0/LKrKvYvq30FyG8JVx+9pt/15P/RnsASxIJDk51gsRplfBVUF1T8GYBSnTcY+C/8G5//wRhYEIhqIxgAOCDcAVP8DxtBkwqPfnX6Fg+5GJT/e/IwAJwQSRF0Q8bOHC8INANV/z7iR9F3McnLe/xw3wwmBLoKE5D4jSQg2AFT/M8YVg2BC+y4e6l/mpED3n10+1L+TIBASONDDAcEGgOq/Z8xI7iaS+zlNYuo/kn1ZNfXTObD5O2LjkgNCDQDVP/HoMh5fzB1T/5GSf3sZzgZw4Zg9C8bkvgs1AFT/GIDJnDYwQxIWscdMge6vxcOCEBTPgtLbd4EGgOqfWO3lq4Hkfq5vTP0nsivcCkBYzgWfu78LNABU/8Spuzhk6j9R1t+/LLcCuBXgoIIYJZ7CDADVP8l/FH+NxTOr/vcTdoLfuRWAwHgWmA99F2YAqP6Jzw8cNZbk+/rH1H+ChH/sktwKQGT6gtDd64IMANU/ceku/pj6P5aiE7/WrK/DNguvZKPfCO0rBwQZAKp/ePnKSydVf9dfVv0nzvmHl19u69868PmJ8LjlgBADQPVPDLqNQQVP5DzMnyb+zbMCEB23otNVWEIMANU/segxFnnMb0krER4bzK0AdgZ0ydDjTwEGgOqf5O8x+Yc+L5r1dckU6P67w7YLr+Sj3whv2BVTWgSo/uGhSy0SEHulY1/E96+a+t4lAT1WvPT5/YxPYRGi+if5u9Tepn4SkfxoxGKx2Gwu2RqIELkUosIGYLVbf3eJO0b0vRF1hEf7oJ9ddUXulYQAWwPdBqTrBFTQAKx21Y1r7B0lPcb5rcDitD9JiX+vLawHeCMpAesEi6IGgOqfOHMSZy9mb/lQ/bmXcvhVGgKsB/AVkO4FuJABoPonzrzFHlv+pGX7nvawHgBxciNOxQwA1b8bjnGro729ypa/noQr7uVddcX5AJgAFwJdwABQ/RNbLmJrz/iEk2fF5Tka1I8A6wEQKRciVcQAUP274NZeAvTcX57y159nRf+F5wVgAswLV2YDQPVPTJmPqX3jE/b7bzaXohMdjetHIKzadEXYffLyu/2tkdkNANU/euLDBLX7/Tnqtz+5qvgLhwTZT4KejU5GA0D17yPxYXCexzmccqkix9HIMwiwKBATYNUkZDUAVP8kRycmKGNcncle/DkGAlQvTgLXaqLv61cmoSJ+iB8v5ofDfmJkXIHX4MEliJg5EctmAKj+zXGnz1Q6fn3ZfPkmMHXRpFgIcFIgJsCUkGcwAFT/xIypmOkzOKz4j5VmZV+HnQEImhlBy2IAqP7N8KUv+Tl/vV3xz3Y/2Yk7WuvYGcCiQCuCl9gAUP1jlq2bH7b7Rcusii602VyGhztYJzf9My7gyQ0A1T8xZDuG2O6nKG9HbWqzvuaZAbaD27x4JzQAVP/EhvX4IflHzagKL4YJ4HaA5tsBSQ0A1b/1BOi6fwljR2Em9NtktgdS6agVwkQiRvVPTKiNiQGGnr3+fvP90Z5jAhA8lYKXzABQ/avkw4Dk571f7PU/mgJ5EROACVAnjgkMANU/caAuDgYaHyp/8vxJBDgjAPFTJX5JDADVvyoODEx+7vvEQT8ncx9/fEEgTBG5DxZERcfiyNgGYFddwX1MsDkOkPzJ72MQYCYAEVQhgpENALyH9yp4P6ZAIfmPSX28t0OAmQDEULwYxjQAVP86Zn3GJD/v7yX5d+mMn1MQoCLCBIg2ARENAFyH66K5PtbMkPynpDw+c4gAMwEIo1hhjGUAqP6p/scmWMnvJ/kfpjH+PRkBHh6EOEoVu0gGgOofkyvW5I6NPZL/5FTHB/sQwARgAsYKUY73xzAAVP9wOwdXc3wHyb8vg/F6DASolKiURFVKEQwAnIbTojg91SiQ/GOkOK5xDgHWBCCYYgRzrgGg+qf6n5pwJX2O5H8ubfH3mAhQNWECRJiAmQYAHsNjETyeYyZI/jFTG9caigAzAYhncfGcYwCo/qn+5yReCZ8l+Q9NV7wvBQJUUJiAkiZgua1/m8pruAt3S3J39neT/KeGPp+LicBqe3c7m8wS3DRtUFgRVjeTuEz1r3CsMSxvOls9Ljaby0nc50MgEBsBHiWMOL2JU04sphkAqv+cY8R3xYyNwN3Y+s31QGA2ApgAhC6m0A271gQDEM60YLaHGQCFHAjrrmYLNRcAgWQINOvrZVP/i8BiBvJwYLwB4JYV3MzDzcg4N/V9Mt3mwiAQDQFMANVVtupqpAHYbC4xqJETU7ax9tvuMLsaTZ+5EAgkRyAssmrqJ5VOG0FTZGDGGQCqf79JVKMWBbNK8k+erfiCJAhsNpeftvXfGgOPNmtJFCMMANW/ImOnhX/p2hmS/6JZXyfRZi4KArkQYMV1OpHAqAw3AFT/8FBLvCy31Q+Sf64MxfckR4AdAohvGvEdaACo/qn+tdza44Cf5PmILyiAwMVD/ZkFWBiBuEZgmAGg+od3cXmXBk/2+BdITHxlRgTCDoFt9UNDMNLGNCIXF9dhBgDjqWEsfbdxzrHWGRWcrwKBmQi0B7FUj3ETgW/x8IvleQPA7SdiQ3J8PJvT8zyeqbp8HARkIbBq6nvJgUnbNCSO88LJjJOGcXTaxnC/n5X+shITrcmHQKjOmJ51Kn4RFmWdY+rFQ/0LRg5+SeRA2CLNA33ORTB/t48A6wJYoT3RDJwLjtWOW00Sk5/7Nm3vbs9xl7+DgB8EWBeACZhgAk4FCNU/lb80o8H9/lMRy9/cI8B2LUR7jGiHJH80aHgeBYZygqEcw73x760emfI/Gq28CAJvCKx21Q3rAjACQwS2PTFts7l8Y89iAX/gzhDuZH0PT/LbD1F+B4EzCIRbAjxMiCpuQBW33NX/hKS/CA+g+rr+I6uwD2gf7fFrSEIhEw5AO6N2/BkEQOAYAmwV9CueJE7GXjcHmPI/pum8BgKjEGBKl0SgOxEwft7Gj1P9Rkk8bwaBMwiwS4DbAUy3wwHpHOBgnzNCzp9BYAYC7BKgmvRWTdJfJZwPC/0OFqTOkDo+CgIgcBQBDg6iEpReCdI+Nxxlb/9RleZFEEiIQPt89y/fqI6UVEckRDcJ0VNMcpxvQo3n0iBwDoGwxYYzAzABnpIOfS3Pd7b3nVNm/g4CuRAIswEP1Z8IY3lhZAwYA+scoOrPJex8DwiMQWBXXYXgtC5A9I8kCwfyc4Cqf4wY814QKIQAtwXyiyMJCcwtc4Cqv5CY87UgMAmBzeaS2QCSkuWkRN/S8zs8a6I9ZnqSCPEhEACBogi0swFtEKcXCwQZjOGAIQ6wr7+odvPlIBAHgecHC90jzobEmW2FbCtMxQFO84uju1wFBEQhEJ4Wt6seMQIYATgABw450G4n3t7ditIsGgMCIBAXAW4LIP6H4s+/vXOiegyPk46rNFwNBEBALALhuQIcIuRd+Om/Z/MTFvldNNWvYkWKhoEACCREgPUB3EtOdS+Z64rl1ut0Pw/vSSiuXBoEtCCwq644TZBq2HM17KHvJH4tgkw7QaAEAs36moWCGAEPydBTH0n8JcSU7wQBpQiEwz8wAhgBT0nSYl9J/EoFmGaDgAQEWiPQ1E8WxZE+YXCscoDEL0E9aQMIGEEgrBR+PhaUpGE1adAv/dwm8RsRXLoBAhIRwAjoTxIkentjSOKXqJa0CQSMIoARsJdEMAb6xpTEb1Rg6RYIaEAAI6AvaZDo9Y9ZezsuHNvLPn4NMkkbQcA2AsEIsGtAf2LBHMgeQ07us62j9A4EVCPA9kHZCYQEr3N8SPyqZZHGg4AvBIIR+LSt/ybh6Ew4jJuQcWvqpzC75ks96C0IgIANBDhiWOx58CR5IUn+6DMTwmO7qxsbIkAvQAAEfCMQHjoUnj64rX6QeCQnHtpWkp/Pz+Mg8fsWS3oPAoYRYMEgSbZkkpX23WErX0j8i111ZTjs6RoIgAAI7CHQrK+D8LV7mY9Og5IopSUr2hORk939fbby7YkCv4IACPhCYLO5bGcFeOYA6wWMG8HXar9ZX/sKcnoLAiAAAucQYFYAE2DQBIS1L8tt/RsH95wTAP4OAiAAAt2swC6sho447cq1MBg5OdDU96zmR85AAARAYCoCu+qKHQSYIC1GMJx/0e7d597+1IjncyAAAiBwBIFmfb1q6nu2E2IIJBiC7p5+mN6n0j8Sr7wEAiAAAkkQCOsFgvCyeJBp/ZzT+rv6Z1vlP9Sfk/Cai4IACIAACIxAYFddhWnXIMxsK2R2IMXsQFfts19/RFzyVhAAARDIjcDFQ/2ZWwUYgTlG4NlIVo+BR4FPuTnM94EACIAACMxFIDyPYFv/xsOJMAQnDUG4ldQlexbwzY06Pg8CIAAC8hAIi7WC0LN2AEPQ3jIK+/M5hldeoNIiEAABEEiKQDhv4OV2wYozB8wvJmwP5Gm+fGun9Knyk4YWFwcBEAABfQi87C5on8zGDgO1puDdPfym+pUqX18o0mIQAAEQKI5AuG0Q1hFgCmTeNgiVfbvGY3t32+7Hp7ovHjM0AARAAARsIrDZXLZrCZ4TziNbD/MZg9fKfnt3207lc//eZozRKxAAARBQg0A4sjgsMNze3S6bL9/CmgKMwQxj0N5+qR6fj4F+OWmPyl5NONBQEAABEACBxWIRjEG72HDfHGyrHye3pWU+3a5MW6rHbur+9ThdKnpiBgRAAARAwAUCLzMH4STDUO2G/5/PLAhPQlT6NMSueg/tD1sug/F5OS+/vUfvYmDpJAiAAAiAAAjEQKBbdxBmE3rNQmca3n5Oe3DS2+efTcjbv7uKPST1th3htseuumGVfYxB5hogkA+B/wfiPXU+J7IT7gAAAABJRU5ErkJggg==;fontColor=#000000;strokeColor=#000000;" parent="1" vertex="1">
          <mxGeometry x="650" y="210" width="60" height="60" as="geometry" />
        </mxCell>
        <mxCell id="eoIN0Z875P-ENP-9NvoL-6" value="FastAPI 3" style="shape=image;verticalLabelPosition=bottom;labelBackgroundColor=#FFFFFF;verticalAlign=top;aspect=fixed;imageAspect=0;image=data:image/png,iVBORw0KGgoAAAANSUhEUgAAAgAAAAIACAYAAAD0eNT6AAAAAXNSR0IArs4c6QAAIABJREFUeAHtnettI8e2hTkUA1AICkERHCiCgSO4cASGIzCgP+pp4gCEALY4/waOwHAEA0UgnAiMicAhzEW11BJFscl+1GM/PgOGNBTZrFq19tprV1dVLxb8BwIgIBeBZn29+vrf/yy39W+rr+s/Vrv19/b/pn5a7eqfcv5/btey+fIttPPi6/r/QrsXu+pKLri0DARAAARAAARKIfCS4J8T5vqPNoHu1t+XTf2vnOQewWi0hmX9ffW13rQG4aH+jEEoRTq+FwRAAARAIB0Cm81lSHDP/6//CEmvS+7PVXyEpCpqBiBGf15mN15MwvOsx3//s2jW1+kGiiuDAAiAAAiAwEQEQpIPyeotwcdIhlzjcAZkuav/+fS1/qubQVhsNpcTh4yPgQAIgAAIgMAEBJr1dUj4bTIyV4UrMx7h1sLXenPxUH/GEEzgMh8BARAAARA4gsDLNH53fz5M3Zu7N2/NwDT1U5iJeb19wCLEI8TmJRAAARAAgTcEdtVVqCLbRWokekG7C2LNSDwvQAxmjp0Jb7TnNxAAARDwiUC7Ar/erMRtqYuV9LjO4TqC7t9hPcHrrQOf7KfXIAACIOAMgZek3yYAa9Pf9GfSzEW4rRNuG7TrCJyFA90FARAAAZsI7KqrsEI/TPu294VD1UeSnJQkveAWzEC306DbxmkzOOgVCIAACFhCYFdddavzWazH9H9M0xJMQbt+gK2HlhSDvoAACKhGYLO5bFfpcx+fyj7D7E53u4DDiVSrBo0HARDQjEC4X/t88A6VbsxKl2sN51NYRxJmnNhVoFlJaDsIgIAOBLoFfNbOyc9QuZLYhyf2KVh1uwqYGdAhJbQSBEBAAwLtQr56w6r9tAlsStLjM8fHBDOgQVhoIwiAgEwEXhbzsT//eIIh8erB5dkMrP/gNoFMqaFVIAACEhB4WczH+fp6khtGZOxYrb+zk0CC2NAGEAABEQisdtVNu0ef+/qs4neyFoKdBCKkh0aAAAiUQoCte2OrR95vcsahqZ+YFSilQnwvCIBAPgTap+ut/+CQHpK5yWQ+YwajmxUIM2L5ApJvAgEQAIHUCIRFfc2Xb4g+iR8OnOdAWDjYzgqkjkuuDwIgAAKpEAjVzGq3/o7onxd9MAKjQw4EI9AeNMTxw6kkiuuCAAjERoD7+ySzw2TGv6dzor1l9nX9xwIjEFuquB4IgEAUBDaby1CttPueZ9wLJVFMTxRgZxs7jEAUpeIiIAAC0RBgYR/b9zB8WTmAEYimXlwIBEBgEgIk/qyiT3Vvu7qfMr4YgUnKxYdAAATmIBDu8bfiQ+WHCYADxTmAEZijZnwWBEBgEAJt4t/V/0ypVvgMFSwcSMsBjMAgGeNNIAACYxAg8acVbhIj+MbkAEZgjLrxXhAAgaMIkPhJTDETE9fKyyeMwFFZ40UQAIFTCLQP6GGqv/i9XRJm3oRpFW+MwCm1428gAAItApzcR8KxmgTpV/3z1QigdyAAAiDwisCuuuLIXpI/SdIHB3jWwKvy8QsIOEYgnN7HQ3qY6mcrn0sOtEbgof7FsQLSdRDwicDqK4/lpeL1UfEyzufGef19sauufCohvQYBRwiwwO+cGPJ3EqY/DrA+wFESoKsOEdhVV5++1n8h7v7EnTFnzAdzoKmfQpHgUCHpMgjYRKB9Sl9T/ztYBLgn7PKeMPzAKLxy4Gu94fHDNvMBvfKCAKv7SeSYOTgwkQPPj/ZmNsBLuqCfhhCg6qeae63mJiYAPg+HAgfCrUNmAwwlB7piGIFmfb1q7+MhXiQwOAAH4nAgLBK8YMug4cRB13QjsKuu2NMfR+xIGuAIB45zgNkA3WmC1htEIOzpR7COCxa4gAsciMsBZgMMJhG6pBABpvtZ4MX9fThQiAPMBijMGTTZBgIs8otb1VAlgiccGM8BZgNs5BN6oQWBzeaSA33GCxXiDmZwIB0HmA3QkkBop14EmvX1897cdIGMSIItHIADUzjAuQF6UwstF45AmPKfEpR8BjGHA3AgKwc4RVB4NqF5ehBgyp9FXoUWeWVNGvTRFs+b+mnRrK/1CC0tBQFpCDDlb0sUnSW55bb6sXyo/vy0rf8Ov2MofM1EhAWCYeZSmqzSHhAQjwBT/r7E0lpyDIn/MMiCEbDWT/pzPk5ZIHgYCfwbBPoQYMqfql/5TEGo9o/Re7W9uyVhnk+YFjEKCwS5JXAsKngNBDoEONiH5K88+YfkddFUv3aU3v+JAfCZ/PcNDbcE9iOC30HgBYEgmuGe2X6w8DuCqY0DgcN9T45bPtS/a+sP7Y0fg9wSIO2BwB4CPMQnvsgg3IUw3d7d7lH73a+rXXXDuBQaF2kzS+wSeBcb/MMjApvNJY/uRRAtJcXFrrrqC2UMAFzf53p7jHDP7aI+DvE6CJhAIIghU/4I4r4gav/92Mr//WDFAMD3oxwPBwfxHwh4QYAtfgjhUSGUNk07sj2nqv8Q2xgAeN/P+/X3vrUjXvIC/bSOwGZzyf1+RLBfBPVic676xwDoHdtsfGVdgPUM6Lh/u+qK+/2IYDYxHVm9z23XueofAwD3h3Ds+bZodeM4U9B1cwiEI33Z4sce/8xJeYjgxnjPkOofA4ABGMO1vrMkzOUGOmQbgUDkMcTnvQilNg4Mqf4xAPB6NK9ZHGg7OVrvHckf0RstespmCYZW/xgAYmFKLIQ1U9bzBP0ziACL/RC8KYKn7TNDq38MAPEwmdthceBmc2kwTdAliwiQ/BG7yWKnaAZgTPWPASAmZsUEJsBiqjTWp3Cy3279fRbRFSUA+ulb1MdU/xgA31yJohVsEzSWMC11h2N9WeXvyLyNrf4xABiAGCYg7KbiscKWEqeFvrDHn+TvKPkHIR9b/WMAMAAxDEC4BibAQtK00gf2+JP8nSX/KdU/BgADEMsAdCYgHC1tJY3QD40IkPxJ/s6SfxDfKdU/BgADENMAdNfiwCCNidNCm0n+JH+HyX9q9Y8BwAB0STv2T0yAhYSqqQ8kf5K/w+QfhHtq9Y8BwADETvz718MEaEqgmttK8if5O03+c6p/DAAGYD9hp/gdE6A5sWpoO8mf5O80+QfBnlP9YwAwACmS/uE1MQEaEqnGNpL8Sf6Ok//c6h8DgAE4TNap/o0J0JhgJbeZ5E/yd5z8g1DPrf4xABiAVAn/2HUxAZITqqa2kfxJ/s6Tf4zqHwOAATiWqFO+hgnQlGgltpXkT/J3nvyDQMeo/jEAGICUyb7v2pgAiYlVQ5s2m8tw5GQfsXgdQXPBge3dbaxwDSe3ucAM0yiscODEwFgx7OM6PNhHWABjNkokzvbM9YjPYccAwONiPG7W1z6SF72chwDJn+RPBffMgYjVfxuU7eOySYIlkqD37+QBQvPSoo9Pk/xJ/iT/lgOxq/9OQLwnIvpfzgBiAroo5OdRBD59rf8iQMsFKNgLwj529f8ScYyxoDF2aHaXu/qfRcTbWkcTCS/qQ2DZfPmGOCFOcODleeuJRBJ8ibHiHGjqJ0yAvhydrMUkf0SpuChJqsYSVf8hgMGZWBPBAUxAsnyq6sJhn6gIQkpKALTF7VqIVPf+O1Eg1jAAYjiACejC0udPkj9iJEaMpJiuhNV/UBnwJuYkcSDM/vrMfs57zZ5khEiSEEloS+rqHwNAzEng+Yc2NPW983TorPsc8et2ivtD8EupvCW0I3H1jwHAAEiNP44M9uIB2OtP8peQbIW1YbmtfuSQAKkJgHZhTsKscI4Y4DsKIrBq6ieCnWCHA+85kKsCAvf3uIOHHDw4KKhgYs7x1Wz3kxNsCJ+cschV/YcYZ9zljDtj8XEsOCgoRyYu8B2r7d0thP9IeDABk1zVPwYArqnQG7YHFsjQCb+S7X4IjwrhKbAuIGf1jwEgDrXEIdsDEybkrJdmxT+L/gokVi1Cl7P6xwBgALTERdtOtgdmTdXxv2yzuQz3dFSRjmSFYcnEgdzVPwYAA6BNiy8e6l/iJyaumAWB1W79XRvhaC8imYsDuat/DADczsXtWN/DzoAsqTr+l6ya+j4WCbgOwmWNAyWqfwwAcaQyjlgUGD9Bp7wii/4QGpVCk2nq/xmbMoeeMC7EpkYOsCgwZcaOeW0W/XEPPWsi1Sjo1WPMkBtzLY3iT5s1cjx+m5cP9e9juM57cyPAoj+SP8l/AAfKVP9BDkim8RMTmObEtFzs5E6n6r7v09f6L4IhZzDwXfr4Vq76xwAQL/ri5f2Y5XhiprrEK6HBYXpGO7lo//tgA48UeJStYBjTFGPKNbPyKiwK5D9BCDTr66wEYJp5wDQzoiSPk2Wr/6AY8jCBp4zJBA5keHS2oAwruCnc9ycZY8gGcqBs9Y8BmJBo4PZAbpfAtnw8Cc7MeZrGff8SxOc79VVN5at/DABxoy9u+seMJwfmyfG938J+/35yWgo0+hJjnGVUK4xljLHkGlJ4xPkAvek58R/Y7y94agyBkiJQoR3Lh+rPxNE4+PKScKEtxGkMDvC8gMHhH++Nq6Z+ijF4XAMRsM6Bxa66ihd5865kHWv6509P2q2BgmJsXoQq+PRqe3dLoPkLNMZ8/JhLqv6DtDCG48cQzDRgtv6uIHUaaCJb/pj6Z2X0YA5Iqv4xABoSGW2cbLjYGpjeYDD1T4BODlBnxkFa9Y8BIHatx+6iWV+nz4JOv4GpfwTEuoDE7J+06h8DQPzG5LfIa3FKYCJ3wtT/4GlfkYHhrPouPQYSq38MAAagdFzk+H6eGpjAAzD1j3jkCF4r3yGx+scAEMNW4utUP9gVENkAMPWPcJwKOP52wI+mvo8cgtEux1gdjBUzY0ZnNtkVEEc0dtUVooFowIFhHJD+uFLGcdg4gpN+nMJJtXGSoOOrrHbr7wSD/mBgDDONofCtSPAgEw+YWSg+syDdjIu3FWExBYKBYMCBYRzQIDiM5bCxBCcbOIWH1YlPtCIbGB7z29T/Egg2AoFxzDCOwqv/oDPwIAMPqP6LV//veS7jQVwi83xfo3jML0LxPojA4xQeGqp/DAAcPsVhq3/jscF9Wb7n9fB0JatkoF+IYBIOKKj+MQBwPwn3Ncx4KInPnpSc8eUw9b+r/3FLFA1kpo2iphi1VP8YAAyAV11vY5QnBp43EqumvvdKEvqNQE7igKLqYlL/MJyiDCdjOE2npJ7OeT4rZ3rHalfdQK5p5AI3n7gtt9WPTOEZ5WvgqU+eMu7duLMgsFdIOO63Iwk/EYxhHNB22AjjOmxcwckoTjws6Hj+D0IG6Y2SnincJFO42qr/EPnEODHunQPaTPvxjB3zVfb8J0kQ3gPNev81Con1MaF/GJxzHNC0aDdmmu+9Fg/7IWjOBQ1/f88RjdV/EADG8f04godTPAQ/sKs3USf5w666Co6IQHAaCNwemDT7o7H6xwAQ4+j8GwekPrI7SZ7vu2jYGgEp3kgBFmBxjgNaq38MANw+x21Pf2dbII/6nVT9eQoS+voxaWit/jEAH8cSfnvHxPG2QKp/7+Sn/+MTQPXYN5um4fXx/YUjYGaZA+vvGuI2fhup/qn+uf8/gQO6KwaSmeVkRt+m8Vt3TE8yB6vd+vs0sCAZuHnlgO7qPwgF3PXKXfrdz31nswAc+Usw9AcD2PRjo79S6O8b4w42fjkQnoA7qZLW+CGqf79ER+Smjr3+6p8ZgKljz+es60Z4Aq7GXD66zVT/BLP1YE7TP/3VPwaA2E8TGzZw1by7Z7ARoPq3QVYCOec42qj+MQA5OcN3adMo87MAVP8EpbaglNFeG9U/BoD4lxFPcsdh+VD/Pria1vZGqn+5xCMwpY6NneofAyCVY7RLiv61DwrSltiHtJfqnyCTEmSa2rFo1tdD4kvLezRhT1vRrBIcMLkWgOqfYCoRTJq/0+JZ4ZrHg7ajYTk4YG4tANU/gZMjcKx9h8WnhVkbI/qDtqXggKlZAM78J0hSBInla1qs/sNtCstjRt/QuVgcsDMLwJn/E857J5BiBZLW61is/jEAxLXWeCzRbhOzAFT/BH2J4NH8nVarfwwAWqA5LnO3Xf8sANU/1T9P/BvNAavVPwYAA5A7iWr/PtWzAFT/BLz2AMzdfsvVPwYAPcgdT9q/T+8swGZzGQ410D4AtB/RyskBy9U/BoBYyhlLdr5L4Umgq+3drZ0BIHAZy/QcsF79YwDSc4g4tYjx+nuIHVX/Uf1bJCJ9SiWw7RGgm82lqiCf0NhU+HFdYtM2BxTNAoSFC7YHg2BjfCNzYHt3OyGfqvsIvInMGxbZjl5kq5ODimYBVk39pBNkgpNxy88BL9V/cCvwKz+/wNwK5gpmATj21wrZ6Ec24XRS/WMAiKlsMWVwZuTTtv5b/JRfaCSDTKDDgWEc8FT9YwCGcYLYAac+DsjeJcTBP07uRxGgfQE6+nVH1T8GgLgZHR8GK/k5GIjeKcTBPwT4HHJ7+6y36h8DgD54i/EU/ZU5C8DBP1T/uPVxHHBW/WMAMAApEqK3a4qcBeDgH4LbWyDO6a/H6h8DgEbMiRk++8afhbQzQ8KZxQzQ2wCBBVic5IDD6h8DQEycjAlmEAfPIC4f6t9DPIn47+Kh/oWBJbjhwDAOLLfVD3EOPpOSwJFhHAEncDrNgeoxU8ie/xq2/kHW02QFn318VD/i87wcnHzHPg78TlzAgWkcaG8hnoy0XH9k69/gaRvIPo3slnBrq/9csSnweyyNJX0hnktyQMRugHAvoiQIfDdBqIkDnqv/4Ec0jRVtRVskc0CElnDuP0EiOUgktc179Y8BQCskxaP+tpR+QBDT/0z/s3J3MAdEOPbCtwX0iy5JnDGUw4GitwFWTX0PGeSQgbGQOxZU/8/OA47K5Shjo3Bsmvq+mKdn779CwlCxD67YYwoi1T8GICafuBbaGzhQbjdAs76GhJAQDpznANX/W40CX87zBYzAaAwHihQXTP9D0jEk9fzecFDWWwr0/ZtnHtB3NDMNBwosBmT6HzKnIbM1XAWd2CXAe8AZa/ymPxI4nXcxINP/Re4jSyAabRgreNWNgLwrpgnwZyx/eD+cGcCBnIsBmf4fMCAstsMk7aj+D50HYo52wIH4HAgz8oexluzfTP/HH0CCwiKmVP+HIgTPLfKcPkng9aJZXx/GW/R/r3bVjYTO0gaCTjYHqP6PiY/sMSOmGB+9HFg+VH8ei7mor4UvgSR6ScLY5Ro7qv9jwgP/cvGP7/HGtSxnAoQv8QYs/UVMxnGA6v9Y8g+vjcMR3oEXHBjDgaS3AcJ+5jGN4b2Q1ycHqP4xAMS+z9gvPO4pdwOw+r/w4LKzQMHOAqr/vuTPDAD6gSlIzIGmfjoVf7P+xur/xINHgleQ4E9zIO+BHLPCuciHSQCn+QM+4DOXA2k0iMN/1CenucTi86fFKcsq3CJpO96XwqHTHAIf8JnLgSRHjy8f6t/nNozPQ27LHEjjvOMlXwlXsjz+9A19E8GBFOsAPm3rv0V0jmlyZiIEcoDqf5i9QENIknAgMQdSrANg+1/iQROY1AjU4WNO9Y8BIF6GxwtYpcVqsdlcDovIIe/i/j9VNwallwNU/0NE5Pk9CH9a4Qdf8H3mQMStyNz/h1QISz8HqP4xAMRHf3yATQFsYq4D4PjfAgNIxd1bcUsSFKr/4ck/vFPS2NEWdM0sB2KuA2D/P4FiNlBmGi2qfwwAsYE+SuRAHG3i/r+KSlQiAc23aXt3Oy798W7znJhpKMEHMxGNAzH0ifv/EDIaIQ2JY/vkragrbX2YA7iEnsCBPBwIM/ezVWXV1E8MWJ4BA2dFOMdw17OjU98F4Lgijhsy7F55N+9UwF115RU4+o1Q9XGA6n+68ejDlNeJNzgQnwOzFikz/R9/QCC5AUyp/ic7APhvgP/MDKhZFzbrNgDT/wQrgv2eA1T/k3N/+0H49J5P4AEeqTkw7VRApv/VuLzUBOL6eyJF9T/LAcClPS5RSaOxWTgw4VTAsHiAYCVY4cAbB6j+Z+V+ZgCyiP0bX4ldsAgcCLfyR0fuant3C4EgEBzY4wDV/2gdOfxAMFFwao9TmAJmAVJzYIpu8fhfghShfuPAclv9mHYv7TAF+v73alc9wqs3XoEFWKTnQPU4WnUIVIiZnph6ML5oql9HBxEf+IAAuqKH88S/jbGatBOAHQA2Bp8gnj+ObfX/IZXxwhQEMADz+UhMg+FYDoyO1bFfwPshpVUOUP2Plo/eD2AA0AmrOiG7X2N2AvAAIBampF6YouT6VP+9uXzSHzAAGADZidLm+IzaCcAWQJskIPDGjyvV/6Q83/shDMB4DhK3YDaXA6OOBGYLIISbSzgLn6f6783jk/+AAUBbLGiDtj6MWghIkBKk2gieor1U/5PzfO8HV019n2KsuCaaBQdOc2Cxq656A3P/DwB5GkjwsY8P1f++IsT7ndlF+7GDPsoc42EFDQsAWQCoZIFeWqEZs2o2XoK0fiUMgMzkkDaW6LMEfAetA+ARwJBVAlnLtmHCyVnWM3es/rUFRjgNkP/PY4AWldUBW/gPWgcQXAKg2xp4xnPseFL9x8r3XCcBAs8m6iZM6a529f+I77Hx7ff9Z9cBcAKgX3IgJGHsqf4TpCwumQoBHtvOLdsRt2zDFv+TVCQJYAB8c4Dq/6RA8EdxCLBrC80erNmnngy42lU3gy80wnVwTQiqgwNU/+KyGw06iwALK9HXofoanvLbS6iXe0pMqWBunHKA6r9XHPiDWAQ4WwEDMNQAnFwIiJOESEOJZO99VP9iMxwNO4kAtwDQ7TF63EsmiASRxhDJ1nup/nuFgT/IRWCzubQVh2hw+vHs0bowPZD+yxlgMJbFgZP3xeRKPy0DgQWztrK0RIO29+4E0NB42gjhY3Pg7N5YEg0ISERgV10tm/rf2PHA9Yxr7NGdABwB7HThm3Gyn1nQOeh4TIniT5vcI8Chbb61a6pRO6p5bAGETFMJpflzVP/u86hOACjYKNjOFDf9unxkwTPPAMAA9BPGJjZHnbDOdECrnSGw2q2/e4tX+htHh49uBWQxSRxwIakeHKn+nWVNI91ltlaPxkjNBx9CIayEltpY2gXhY3OA6v+DBPCCEgSo/tHDuXq42Gwu39GdMwAg1VxSafo81f+78OcfShCg+ken4+jswVkAbCeBWHGIJR9Hqn8l2Y5mfkCA6l++vujQ0QMDoKPRDD7jNJ8DVP8f8govKECA6n9+7KOfLxi+OwuAZ0qzpWTylhJlQdnU9wq0niaCwAcEqP6VaY1kTd03ADhLiOXBGYfbXB8Wv3yQWV4AAXkIoNFodFSN3i+EIBfkikouqc533/XK03haBAK9CPCcFjQ6rkbvHQbEGQCQKy655OFJ9d+bW/iDcAQumupX6/FJ/3JrJgaA+/5SK/UU7aL6F57maF4fAlT/uZOj/e97dxpg2BaFA7M/6F7HmOq/L7XwunQEqP7R5VS6/cp9DgGCZKlIJuK6VP+vsc4vuhCg+kebU2noayRgACBZKpKVvi7V/2uY84syBKj+0eWU+vm6IyqIZMov4toQuRgHqP6VpT2a2yFA9Y9uptXNl9MA034Jgwi+ZThA9d+lEn5qQ4Dqv4xm+NJqDAA7AVKsuJdyTap/bXmP9r4gQPWPAUhvRoIBaNbX6b+IwQTjvBxYbqsfZBMQ0IgA1X9erfCqzYFnC04BhGwWA6Alt0b1p83uEaD6R5OzaHKYIcUAQLYsZMt4W4Dq330OVQsA1T96nE2PgwGAcBAuG+EymQCqf7X5z33Dqf7R42x63M4AbO9us31hpgRAf/wGEdW/+xyqFgCKMb+6VSRnYQAgXBHiJTSCVP9q85/7hlP9o8c59fjTtv57wZMAIV1O0qX8Lqp/9zlULQBU/+hwSm08fu3qccGDgCDecXLow4XqX23+c99wqn99eqNfN6vHsAvgUX9HII/3MaT6d59D1QJA9Y9+l9FvDAAnASa8H5+T1FT/avOf+4ZT/WMAcmrl23dhADAAJgxA9eg+iwCASgSo/kn+bwk5NxYYAAyADQNwo1L9abR7BKj+cyc9vq8zHIF7i1VTP3Uv8BNy6OMA1b/7LKoUAKp/9La03i5KN4DvJwjmceDlkZZKkwDN9osA1T/aN0/75uOHATAxBT6fCKWJOO37qf79pk/dPef8Fa+aJavfGAAMgOJ1EFT/utOg09ZvNpfLpv53mumVlUDog+7xwABgAJQaAKp/p+lTfbep/nUnTUumBwOAAdBqAFj5rz4VOuwA1b9SvbFpWjAAGACFAUn17zB1mugy1b/NRKp1VgADgAHQaACo/k2kQ2edoPpXqDW2DQsGAAOgKijbR1g6yxt01wYCVP+2k6nGWQAMAAZAlQFY7KorG+mAXrhCgOpflc5oTOZT2owBwACoCczw6GpXSYPOmkGA6p/qf0qCTv0ZDAAGQI0BoPo3kw99dYTqX43GpE640q6PAcAAqAhOqn9fOdNSb6n+qf6lJf6uPYvVrnrs/sFPiCqVA1T/llKio75Q/asoMKTqXup2YQCYARAfoFT/jhKmsa5S/VNUpU7ic66PAcAAiDcAVP/GsqKX7lD9i9eWOcnTwmcxABgA0UFK9e8lW9rrJ9U/1b90k4ABwACINgBU//YSo4seUf2L1hXpiTlX+xarpr7P9WV8D454FAea+t5FsqCT5hCg+kfrRmldoUJ0AVEhqkSihuelLzabS3OZgQ7ZR4Dqn+q/UEIfo+XLbfUDA6BgoMYMqpn3bu9u7WcKemgRAYoqiiodOlw9YgAwAOLcOtW/xbTopE9U/+L0REcyLmGaggHYVTcAVAJ8vrOXd1T/TrKlvW5S/aNrvbomrtjEAOBWhZGS6t9eUnTTI6p/9FSYnp42IxgACCuNsFT/bvKltY5S/VP9n064svB5PmNlV11pajRtlUWimONB9W8tJTrqD9U/xZS0Yupce7piK6aIcy27CTr52HaEdJQ36KoNBKj+0b3k+nguoY/9e6e36ho+tqOl8Y9BAAAbnUlEQVS8X7w7p/q3kQhd9oLqX7y+kOM+GrTlQ/17G6/hQAAA+ggQmOTD5KKpfnWZPOi0egSo/vPpBJocE+vqpg2+1a56BNiYwHKtMXxqT6RSnwbogEsEqP6p/tXOMGMAIK8A8lL9u0ydJjpN9U+xM6bYkfTe1wDkgUCQuBQxqf5fw5BftCFA9U8BJaCAmqrdr+GGi8UATCXR3M9R/b+GIb8oQwDdRDfn6l/Bz//vNdzCasCCDcFFKnaRc3hD9f8agvyiDQGqf3RbtW5Xj68hx/MAcLJzEvnUz1L9v4YgvyhDgOofzZyqeyI+19T3ryGHAYDM+Um550BfmcgvIKAAAap/qn/V1X/9MxjYd5GWPwGQdH1j/rIF5R0L+QcIyEeA6h/t1q/dB/qrv0OQUs8YUv3LT3O08CgCVP9U/9qr/7b9Hw3A//QkEJK97rE6IN9RpeVFEJCHANU/2qtbe5/H70NkcRogxM5DbKr/D8HHCzoQoPqn+jdR/dc/PwRceDZwngRAovWM86JZX38gHy+AgAIEqP7RbhvafaQIg9yQOzW5g8lUoPM0EQQ+IkD1T/VvpPoPs/0fCB72ZKdOAFzft8lY7KqrD8TjBRBQgAAFkm/tMpW7DrcAhvjjLAAInpTkx0inQPhpIggsqP6p/s1U/0fOAGhDfLO5TJoALAFIX8YKwtu50+QTEFCGANU/xZGt3NizC8tWJyGtnPHsIZyyREBzHSJA9T/W7PN+8QVijx6zFRDTENs08MAfh0nTUJep/tHE2JpY+nrhltbREP20rf8u3Ti+31jA7T904ijreBEEhCJA9U81L76aH58veqMNtzseTAzLacwuHupfegnHH0BAMALo4enYRvsU4tPUT70hF8SaQVU4qKJdas/9pl4W8gcQEIAA1T/Vv2hdnZanwix/f3Q162sMwDRgwa0PNwxAf8DxF6kIUP33xTOvq9b6c9uxVXfOoGPTPx4YAKlJjnb1IED1T/VvNJdcPNSfe1j//DI7AXC4MU3Hp6/1XycJxx9BQBgCVP9oYEwNlHSts6exrpr6XlKDaYv+YAxbAZfNl2+rr+s/nv//739WX/v/P0tSYQmD5hhCgOqf6t9o9b9s6n/PRmqYIiDp6k+6jKGDMWzqJ3ZZnJW0UW+g+ncQN0YT/HnNP/IQoA/Rsauuzl8IkoARHBDBgXOLej4EOC/0IkD1T/Vv2RwMPZMlTNmKEDfLg0HfEJsYHMAA9ObzsX+g+sfUW8574Ym/g2KCEwEJBMuBYKpvGIBBmnb2TVT/GPIYhlzwNQavrcIJYwBMJUnBQTkbZwzA2dw+5A1oHpo3OxYF68ygBYBdoKx21Y1lMOgbwW6GAxiATram/6T6p/oXnLzjaNWQBYBdCG02l3G+lEQDjnAgKQcwAJ1qTf5J9U+MJo1RCeZirE6EKQPzoEgYGNpA9TGHA2MDe3KaNPpBqn/ib078qfnsyBNZOREQV4wBVMABDMAsZ0L1r4DjapKsXCwXm83lqEDBAMgdTBIzY/PKAQzAKF1792aqf6p/D+bi1COA3wXE3j84Epgk85pkPASJ1j5iAPZUa9yvVP9onAeNWz5Uf46LjMViEQ4N8AAOfUQEVHMAAzBa29oPUP1T/Ws1/SPbPfgAoHeR1KyvVQvjSJDoK0ZAJQcwAO9ka+g/qP6Jd5XxPiGvDT4A6DB42AlAkHgJErX9xAAcytb5f1P9U/1PSKQaNSIc638+IHreEe4daOw0bca4uOEABqBHvfpfpvpHH7zoQ3gMe38knPlLeNSoF6DoJ6KgkgMYgDMqdvBnqn+qfyfVf9Czaff/92JGpSg6GmDGx7lxwQDsqdX5X6n+nceLs9ww+f5/F0o8GZCAwWQI5gAGoJOq8z+p/qn+HRmAWff/u2hiO6Bg8XdEZkxIDw8xAJ1Unf1J9d/DIXTEpDGadf//NZp4MJBJcpBQjYghBuBVqk7+QvWPjjkzOrPv/3cBtWrqJxKGkYThLAjM8xYD0MnUyZ9U/+iXeS040PbZ9/+7iCJ4CB5vwaOmvxiATqb6f1L9U/0fJEc18T2x3VHu/3cRdfFQf7YOGP3D5KjkAAagk6nenxQwxLbK2J6Y/ENf49z/fwmp1a668QYg/UU0VHAAA9Cb+Ns/UP1T/c9IpCo04Ej/ot3/76JLKxC0m0RumgMYgE6ijv6k+if+Tcf/keQf+hvt/n8XVatd9egRSPqMgIjmAAagk6iPP6n+qf57EqTomJ7b5qZ++hgMM19ZbuvfTIM2F3Q+j9gU4EDUe30zNULax6n+Me8uc1ZT38ePxV115RLMAqIOzgjXcA5Uj/GD3cAVqf4x5E61OyzaTxLBHAtMYhqemMAqD1YYgGNiR/VP/OWJP3k4H4uHKK/xdEB5g+2V5PS74yIG4IO4Uf1T/Tut/kOR/iEeYr6wbOp/Ed9OfPkJF0pzAANwqG9U/6U5yfeX0sWwVu8wHqL+e/lQ/Vmqc3wvgQUHDjmAAXgncFT/VP9Oq/+gjdG3/70LrsViwaFAhwLMv0nKJTmAAdjXKKr/klzku4tqYYrtf/vB1f3ObQCIXpTojh3+R9wxAJ0uLaj+qf4da0Py6f8u0LgNgAH4mIjApAwmGIBOl6j+icEyMSgD9+TT/12gsRtAxoB7Jjt97ziIAWh1ieqf6t9x9b/KNf3fmQAEuBNgfsKFkhzAAARNovovyUG+u7QGLh/q37vcnOUnhwJB+tKk5/sDBzEA3PtHi7xrQbbp/85dhMcNeged/iM85TmAAaD6Jw7Lx2HJMSihAZvNpW/QSw443w33Og6UCP6uDBDwk3v/3Pv3fO9/V/8MxXiRSOQ2QCfC/CQhl+KAbwNA9V+Kd3yvBM0LW/LDLbAiBoDbAASBhCDw3QbHBoDqn+rfefUftuQXSf7tl3IbgAB0HoDlzYdfA0D1TwFSPv5Kj0F1U84ALBYLbgOUJgDf71sEnBoAqn+KD+fFx3Jb/Sia/MOXXzzUn30LMAmY8S/JAZ8GgOq/JOf4bhGat727LW4AQgOCExEBiHNHyBh4FCaHBoDqn+ofrU//5L+h7gI37jHx0GcZhsufAUBviD0ZsVduHMou/jt0BiwGxJHjyAtxwJkBoPovxLNyyc57sj/e/8KL/w49wLL58u14QyEOuMCBdBzwZQCo/omldLGkA1sRi/8ODUA4i9j7wNB/HQFka5wcGQCqf6p/Zhp/Lrf1bx/yr4QXwn0JW+JKQmM8pXPAjwGg+pfORdqXWi+Lnvx31mQwC4BDx6Fn5oATA0D1n5lXJPPUyXzK9WUt/jviCNgSSOBMITafmcobHwaA6n8qP/icJW1ZNOvrI2lXzkssBiTgLAWc/L44MABU/1T/zCz+XO00xHqzvpYvmiRpxsgKBzSIwrwCherfClfpxzzdFbb1ry+sg1OZ11GIAn5wYBgHjBsAqn+qf6r/nzK3/vU4AJ4PQPIalrzAaT5Otg0A1T8xMj9G9GN40VS/9qRbmS+zGFA/6Qg8DWNo2ABQ/VP9U/3/bLf+yUzz/a0KjoUEoiGB0EbdPLVrAKj+iU3dsRlp/KQ89a8/3R//C7MAkQiAC6YS6uWAUQNA9Q/neznvS1cXm83l8Qwr/FUcvC+i4tZLjLdNA4B2lOAS3ylNw8Qf/HPSg+DicfG4+MQcMGgA0I3EnCHRS0v0fe0Jz9g5mWOl/xEnT7D1kZvXY3DDngFAM2Lwgmto1xfd1X/nTHDzuHlmARJywJgBQC8ScgVToMkUqK/+Ow+AoyfwNAWerrbaMgBoBVqhK/7SjFc4Ur/Ln/p/4upx9cwCJOKAIQOATiTiSJokRaJOh6uZ6r9zLzj7dGQhED1ja8cALB/q3+GyZy7T98D/T9v67y5v2vmJu8fdMwuQgAOGDMCu/gcDQBKEA0oe+jPWnTALQHAT3LE5YMMAcHJobF5wPZ1aYyOej3sDZgESVIAEus5AjzVuNgRjSfWPNjBD+HPRrK+PJ08jrzILEEv4uY7vxN+Nv34DQPXfjSU/Pce0jX3/54wKswA4fZx+RA7oNwBU/yR+z4m/67u5lf99XoBZAAK+Iz0/53JBtwGg+p87/nzegobY2vffl/m718MswLb6YWHg6AMCVJYDug0A1T/xUzZ+ZODvpvrvPADOXwbxCD7t46DXAKAB2rlH+2Pop497/13m3/vJLAABFCOAfF9DrwGg+if+fcfu8/i7q/47D3DxUH+GAIgAHJjDAZ0GgOp/zpjzWTOasb277fKhy5+rXfVoZjBZ3R5xdTsiNywudBoAqn/4PYzfdnFaNvW/i83m0mXi7zq92lU33olA/+0Gefqx1WcAqP7he/q4UICx9+q/MwHh4QcQQgFhmeEQOMOhzwBQ/RPr3vU+rH/r8h8/d9VVmA7xTgr6jzCO54AuA0D1D8fHc9weZiEOSPx7CHA4kD2SE+g5xlSXAaD6z8EJvkO09jT1017q49cWAQ4HEji9jJCIFpL2loweA0D1TzzJj6ccY2T0cb9zrQzbAnOQj++wJUJ6DADVP7FnK/amjKeeeJ2bzyd9nm2BU0jFZ/wKiw5BofonRv3G6NvYuz30Z7AbaNbXEOWNMGABFqc5oMMAUP3D49M8doAP2/6G2YBVU9+7Jwtb7lgTMYQDTX0/LKrKvYvq30FyG8JVx+9pt/15P/RnsASxIJDk51gsRplfBVUF1T8GYBSnTcY+C/8G5//wRhYEIhqIxgAOCDcAVP8DxtBkwqPfnX6Fg+5GJT/e/IwAJwQSRF0Q8bOHC8INANV/z7iR9F3McnLe/xw3wwmBLoKE5D4jSQg2AFT/M8YVg2BC+y4e6l/mpED3n10+1L+TIBASONDDAcEGgOq/Z8xI7iaS+zlNYuo/kn1ZNfXTObD5O2LjkgNCDQDVP/HoMh5fzB1T/5GSf3sZzgZw4Zg9C8bkvgs1AFT/GIDJnDYwQxIWscdMge6vxcOCEBTPgtLbd4EGgOqfWO3lq4Hkfq5vTP0nsivcCkBYzgWfu78LNABU/8Spuzhk6j9R1t+/LLcCuBXgoIIYJZ7CDADVP8l/FH+NxTOr/vcTdoLfuRWAwHgWmA99F2YAqP6Jzw8cNZbk+/rH1H+ChH/sktwKQGT6gtDd64IMANU/ceku/pj6P5aiE7/WrK/DNguvZKPfCO0rBwQZAKp/ePnKSydVf9dfVv0nzvmHl19u69868PmJ8LjlgBADQPVPDLqNQQVP5DzMnyb+zbMCEB23otNVWEIMANU/segxFnnMb0krER4bzK0AdgZ0ydDjTwEGgOqf5O8x+Yc+L5r1dckU6P67w7YLr+Sj3whv2BVTWgSo/uGhSy0SEHulY1/E96+a+t4lAT1WvPT5/YxPYRGi+if5u9Tepn4SkfxoxGKx2Gwu2RqIELkUosIGYLVbf3eJO0b0vRF1hEf7oJ9ddUXulYQAWwPdBqTrBFTQAKx21Y1r7B0lPcb5rcDitD9JiX+vLawHeCMpAesEi6IGgOqfOHMSZy9mb/lQ/bmXcvhVGgKsB/AVkO4FuJABoPonzrzFHlv+pGX7nvawHgBxciNOxQwA1b8bjnGro729ypa/noQr7uVddcX5AJgAFwJdwABQ/RNbLmJrz/iEk2fF5Tka1I8A6wEQKRciVcQAUP274NZeAvTcX57y159nRf+F5wVgAswLV2YDQPVPTJmPqX3jE/b7bzaXohMdjetHIKzadEXYffLyu/2tkdkNANU/euLDBLX7/Tnqtz+5qvgLhwTZT4KejU5GA0D17yPxYXCexzmccqkix9HIMwiwKBATYNUkZDUAVP8kRycmKGNcncle/DkGAlQvTgLXaqLv61cmoSJ+iB8v5ofDfmJkXIHX4MEliJg5EctmAKj+zXGnz1Q6fn3ZfPkmMHXRpFgIcFIgJsCUkGcwAFT/xIypmOkzOKz4j5VmZV+HnQEImhlBy2IAqP7N8KUv+Tl/vV3xz3Y/2Yk7WuvYGcCiQCuCl9gAUP1jlq2bH7b7Rcusii602VyGhztYJzf9My7gyQ0A1T8xZDuG2O6nKG9HbWqzvuaZAbaD27x4JzQAVP/EhvX4IflHzagKL4YJ4HaA5tsBSQ0A1b/1BOi6fwljR2Em9NtktgdS6agVwkQiRvVPTKiNiQGGnr3+fvP90Z5jAhA8lYKXzABQ/avkw4Dk571f7PU/mgJ5EROACVAnjgkMANU/caAuDgYaHyp/8vxJBDgjAPFTJX5JDADVvyoODEx+7vvEQT8ncx9/fEEgTBG5DxZERcfiyNgGYFddwX1MsDkOkPzJ72MQYCYAEVQhgpENALyH9yp4P6ZAIfmPSX28t0OAmQDEULwYxjQAVP86Zn3GJD/v7yX5d+mMn1MQoCLCBIg2ARENAFyH66K5PtbMkPynpDw+c4gAMwEIo1hhjGUAqP6p/scmWMnvJ/kfpjH+PRkBHh6EOEoVu0gGgOofkyvW5I6NPZL/5FTHB/sQwARgAsYKUY73xzAAVP9wOwdXc3wHyb8vg/F6DASolKiURFVKEQwAnIbTojg91SiQ/GOkOK5xDgHWBCCYYgRzrgGg+qf6n5pwJX2O5H8ubfH3mAhQNWECRJiAmQYAHsNjETyeYyZI/jFTG9caigAzAYhncfGcYwCo/qn+5yReCZ8l+Q9NV7wvBQJUUJiAkiZgua1/m8pruAt3S3J39neT/KeGPp+LicBqe3c7m8wS3DRtUFgRVjeTuEz1r3CsMSxvOls9Ljaby0nc50MgEBsBHiWMOL2JU04sphkAqv+cY8R3xYyNwN3Y+s31QGA2ApgAhC6m0A271gQDEM60YLaHGQCFHAjrrmYLNRcAgWQINOvrZVP/i8BiBvJwYLwB4JYV3MzDzcg4N/V9Mt3mwiAQDQFMANVVtupqpAHYbC4xqJETU7ax9tvuMLsaTZ+5EAgkRyAssmrqJ5VOG0FTZGDGGQCqf79JVKMWBbNK8k+erfiCJAhsNpeftvXfGgOPNmtJFCMMANW/ImOnhX/p2hmS/6JZXyfRZi4KArkQYMV1OpHAqAw3AFT/8FBLvCy31Q+Sf64MxfckR4AdAohvGvEdaACo/qn+tdza44Cf5PmILyiAwMVD/ZkFWBiBuEZgmAGg+od3cXmXBk/2+BdITHxlRgTCDoFt9UNDMNLGNCIXF9dhBgDjqWEsfbdxzrHWGRWcrwKBmQi0B7FUj3ETgW/x8IvleQPA7SdiQ3J8PJvT8zyeqbp8HARkIbBq6nvJgUnbNCSO88LJjJOGcXTaxnC/n5X+shITrcmHQKjOmJ51Kn4RFmWdY+rFQ/0LRg5+SeRA2CLNA33ORTB/t48A6wJYoT3RDJwLjtWOW00Sk5/7Nm3vbs9xl7+DgB8EWBeACZhgAk4FCNU/lb80o8H9/lMRy9/cI8B2LUR7jGiHJH80aHgeBYZygqEcw73x760emfI/Gq28CAJvCKx21Q3rAjACQwS2PTFts7l8Y89iAX/gzhDuZH0PT/LbD1F+B4EzCIRbAjxMiCpuQBW33NX/hKS/CA+g+rr+I6uwD2gf7fFrSEIhEw5AO6N2/BkEQOAYAmwV9CueJE7GXjcHmPI/pum8BgKjEGBKl0SgOxEwft7Gj1P9Rkk8bwaBMwiwS4DbAUy3wwHpHOBgnzNCzp9BYAYC7BKgmvRWTdJfJZwPC/0OFqTOkDo+CgIgcBQBDg6iEpReCdI+Nxxlb/9RleZFEEiIQPt89y/fqI6UVEckRDcJ0VNMcpxvQo3n0iBwDoGwxYYzAzABnpIOfS3Pd7b3nVNm/g4CuRAIswEP1Z8IY3lhZAwYA+scoOrPJex8DwiMQWBXXYXgtC5A9I8kCwfyc4Cqf4wY814QKIQAtwXyiyMJCcwtc4Cqv5CY87UgMAmBzeaS2QCSkuWkRN/S8zs8a6I9ZnqSCPEhEACBogi0swFtEKcXCwQZjOGAIQ6wr7+odvPlIBAHgecHC90jzobEmW2FbCtMxQFO84uju1wFBEQhEJ4Wt6seMQIYATgABw450G4n3t7ditIsGgMCIBAXAW4LIP6H4s+/vXOiegyPk46rNFwNBEBALALhuQIcIuRd+Om/Z/MTFvldNNWvYkWKhoEACCREgPUB3EtOdS+Z64rl1ut0Pw/vSSiuXBoEtCCwq644TZBq2HM17KHvJH4tgkw7QaAEAs36moWCGAEPydBTH0n8JcSU7wQBpQiEwz8wAhgBT0nSYl9J/EoFmGaDgAQEWiPQ1E8WxZE+YXCscoDEL0E9aQMIGEEgrBR+PhaUpGE1adAv/dwm8RsRXLoBAhIRwAjoTxIkentjSOKXqJa0CQSMIoARsJdEMAb6xpTEb1Rg6RYIaEAAI6AvaZDo9Y9ZezsuHNvLPn4NMkkbQcA2AsEIsGtAf2LBHMgeQ07us62j9A4EVCPA9kHZCYQEr3N8SPyqZZHGg4AvBIIR+LSt/ybh6Ew4jJuQcWvqpzC75ks96C0IgIANBDhiWOx58CR5IUn+6DMTwmO7qxsbIkAvQAAEfCMQHjoUnj64rX6QeCQnHtpWkp/Pz+Mg8fsWS3oPAoYRYMEgSbZkkpX23WErX0j8i111ZTjs6RoIgAAI7CHQrK+D8LV7mY9Og5IopSUr2hORk939fbby7YkCv4IACPhCYLO5bGcFeOYA6wWMG8HXar9ZX/sKcnoLAiAAAucQYFYAE2DQBIS1L8tt/RsH95wTAP4OAiAAAt2swC6sho447cq1MBg5OdDU96zmR85AAARAYCoCu+qKHQSYIC1GMJx/0e7d597+1IjncyAAAiBwBIFmfb1q6nu2E2IIJBiC7p5+mN6n0j8Sr7wEAiAAAkkQCOsFgvCyeJBp/ZzT+rv6Z1vlP9Sfk/Cai4IACIAACIxAYFddhWnXIMxsK2R2IMXsQFfts19/RFzyVhAAARDIjcDFQ/2ZWwUYgTlG4NlIVo+BR4FPuTnM94EACIAACMxFIDyPYFv/xsOJMAQnDUG4ldQlexbwzY06Pg8CIAAC8hAIi7WC0LN2AEPQ3jIK+/M5hldeoNIiEAABEEiKQDhv4OV2wYozB8wvJmwP5Gm+fGun9Knyk4YWFwcBEAABfQi87C5on8zGDgO1puDdPfym+pUqX18o0mIQAAEQKI5AuG0Q1hFgCmTeNgiVfbvGY3t32+7Hp7ovHjM0AARAAARsIrDZXLZrCZ4TziNbD/MZg9fKfnt3207lc//eZozRKxAAARBQg0A4sjgsMNze3S6bL9/CmgKMwQxj0N5+qR6fj4F+OWmPyl5NONBQEAABEACBxWIRjEG72HDfHGyrHye3pWU+3a5MW6rHbur+9ThdKnpiBgRAAARAwAUCLzMH4STDUO2G/5/PLAhPQlT6NMSueg/tD1sug/F5OS+/vUfvYmDpJAiAAAiAAAjEQKBbdxBmE3rNQmca3n5Oe3DS2+efTcjbv7uKPST1th3htseuumGVfYxB5hogkA+B/wfiPXU+J7IT7gAAAABJRU5ErkJggg==;fontColor=#000000;strokeColor=#000000;" parent="1" vertex="1">
          <mxGeometry x="650" y="330" width="60" height="60" as="geometry" />
        </mxCell>
        <mxCell id="eoIN0Z875P-ENP-9NvoL-9" value="Client" style="verticalLabelPosition=bottom;aspect=fixed;shape=mxgraph.salesforce.personalization2;verticalAlign=top;labelBackgroundColor=none;fontColor=#000000;strokeColor=default;html=1;fillColor=#FFFFFF;" parent="1" vertex="1">
          <mxGeometry x="130" y="90" width="60" height="60" as="geometry" />
        </mxCell>
        <mxCell id="eoIN0Z875P-ENP-9NvoL-11" value="&amp;nbsp;2.1 Load Balanced&amp;nbsp;&lt;div&gt;Requests&lt;/div&gt;" style="endArrow=classic;html=1;rounded=0;labelBackgroundColor=#FFFFFF;fontColor=#000000;strokeColor=#000000;" parent="1" edge="1">
          <mxGeometry width="50" height="50" relative="1" as="geometry">
            <mxPoint x="440" y="120" as="sourcePoint" />
            <mxPoint x="640" y="120" as="targetPoint" />
          </mxGeometry>
        </mxCell>
        <mxCell id="eoIN0Z875P-ENP-9NvoL-14" value="&amp;nbsp;1. HTTP Requests&amp;nbsp;" style="endArrow=classic;html=1;rounded=0;labelBackgroundColor=#FFFFFF;fontColor=#000000;strokeColor=#000000;" parent="1" edge="1">
          <mxGeometry width="50" height="50" relative="1" as="geometry">
            <mxPoint x="200" y="120" as="sourcePoint" />
            <mxPoint x="360" y="120" as="targetPoint" />
          </mxGeometry>
        </mxCell>
        <mxCell id="eoIN0Z875P-ENP-9NvoL-15" value="&amp;nbsp;2.2 Load Balanced&amp;nbsp;&lt;div&gt;Requests&lt;/div&gt;" style="endArrow=classic;html=1;rounded=0;exitX=1;exitY=0.5;exitDx=0;exitDy=0;labelBackgroundColor=#FFFFFF;fontColor=#000000;strokeColor=#000000;" parent="1" source="eoIN0Z875P-ENP-9NvoL-3" edge="1">
          <mxGeometry width="50" height="50" relative="1" as="geometry">
            <mxPoint x="436" y="120" as="sourcePoint" />
            <mxPoint x="640" y="240" as="targetPoint" />
          </mxGeometry>
        </mxCell>
        <mxCell id="eoIN0Z875P-ENP-9NvoL-16" value="&amp;nbsp;2.3 Load Balanced&amp;nbsp;&lt;div&gt;Requests&lt;/div&gt;" style="endArrow=classic;html=1;rounded=0;exitX=1;exitY=0.5;exitDx=0;exitDy=0;labelBackgroundColor=#FFFFFF;fontColor=#000000;strokeColor=#000000;" parent="1" source="eoIN0Z875P-ENP-9NvoL-3" edge="1">
          <mxGeometry width="50" height="50" relative="1" as="geometry">
            <mxPoint x="436" y="120" as="sourcePoint" />
            <mxPoint x="640" y="360" as="targetPoint" />
          </mxGeometry>
        </mxCell>
        <mxCell id="KUH8EgF7bkCMcGg_cEMo-2" value="3. Write Access Logs" style="endArrow=classic;html=1;rounded=0;labelBackgroundColor=#FFFFFF;fontColor=#000000;strokeColor=#000000;" edge="1" parent="1" target="KUH8EgF7bkCMcGg_cEMo-1">
          <mxGeometry width="50" height="50" relative="1" as="geometry">
            <mxPoint x="400" y="200" as="sourcePoint" />
            <mxPoint x="400" y="320" as="targetPoint" />
          </mxGeometry>
        </mxCell>
        <mxCell id="KUH8EgF7bkCMcGg_cEMo-6" value="&amp;nbsp;4. Read Access Logs&amp;nbsp;" style="edgeStyle=orthogonalEdgeStyle;rounded=0;orthogonalLoop=1;jettySize=auto;html=1;labelBackgroundColor=#FFFFFF;fontColor=#000000;strokeColor=#000000;" edge="1" parent="1">
          <mxGeometry relative="1" as="geometry">
            <mxPoint x="200" y="360" as="sourcePoint" />
            <mxPoint x="360" y="360" as="targetPoint" />
          </mxGeometry>
        </mxCell>
        <mxCell id="KUH8EgF7bkCMcGg_cEMo-1" value="Shared Volume" style="verticalLabelPosition=bottom;aspect=fixed;html=1;shape=mxgraph.salesforce.data2;verticalAlign=top;labelBackgroundColor=#FFFFFF;fontColor=#000000;strokeColor=#000000;" vertex="1" parent="1">
          <mxGeometry x="370" y="330" width="60" height="60" as="geometry" />
        </mxCell>
        <mxCell id="KUH8EgF7bkCMcGg_cEMo-3" value="Plotly Dash" style="shape=image;verticalLabelPosition=bottom;labelBackgroundColor=#FFFFFF;verticalAlign=top;aspect=fixed;imageAspect=0;image=data:image/png,iVBORw0KGgoAAAANSUhEUgAAAgAAAAIACAYAAAD0eNT6AAAAAXNSR0IArs4c6QAAAERlWElmTU0AKgAAAAgAAYdpAAQAAAABAAAAGgAAAAAAA6ABAAMAAAABAAEAAKACAAQAAAABAAACAKADAAQAAAABAAACAAAAAAAL+LWFAABAAElEQVR4Ae3dCZwU5Zn48aebYRgQBhgGGDmHQ05BBEU5VNBoVIyJIVmTmGxiTMxhkt0/2SSbbDYxx+ZcTbK7ukmMyWajJsYQ1wOPGAGVw6gggiACwiA3DCMM13BN/+tp7KFmpqvPquq3qn7lB6e7rvd9v2911VNvvVUVE0OGaZd/uV+i44kp8bgMjiVkSKJZ+sdiMiARk+4Sk67SLFUSlwpDsks2EEAAAQQQaC/QLE3WsapBEnLQOpbtTyRkaywu26xj2abmZtkcO162dPFTP9refkH/x8T8T/J0itOu/IeRsQ4d3mMhzY7F4+c3W0f51BC3BO3fU+P5iwACCCCAQJAFYs3yohUQzBVJPLBo3k82lqosvgcAetCPd4hfn5DY+60z+7NLVXDSRQABBBBAoOQCCXlVYon7rRaD+/wOBnwLAKbPmvNxK+L5nJXguSUHJwMIIIAAAggYJpAQeTmekNufm3f7PX5kzdMAYNKkmzt2run6EasgX7PO9ofRrO9HlZIGAggggECgBRKyzjo4f+e5eZX3idx6+tq4y4XyLACYfs2cc6wmjT9aB/4RLueZ1SGAAAIIIBB6AW0RkBMnP7j4iZ+97kVhXQ8A9Ky/U03X78Rj8iUrw3EvMs06EUAAAQQQiIRAQo5bfQS+fWTHoR8uW/bL426W2dUA4O2z/nvo3OdmFbEuBBBAAIGoC5y6cyDxATc7Crp2hm4d/OdY9+09H4/F6dkf9S2V8iOAAAIIuCqQiMv5koit0A71bq246BaAsTM+27Vn105/FIld5VamWA8CCCCAAAIItBZ4uyN9s5yUhxY9fvt7W0/N/1tRAYAe/Ku6VMxPRib5p80SCCCAAAIIIFCIQCKxsOxQ96sWLry1qZDFdZmCA4DJl93Sq7yi00Jt8ueJfYXysxwCCCCAAAL5CyRbAxLNS9461PTO1QvvPJj/GgoMAN4++C+xDv4jOPgXws4yCCCAAAIIFC+gnQM7HK68uJCWgLw7Ac6YcWtFx86dntL7+zn4F195rAEBBBBAAIFCBfQS/Imu+/9sPTAo7+N5ngvcGteErOsGPM630NpiOQQQQAABBFwViF01/erGO/NdZYd8Fpg6a+L3Y7HYx/JZhnkRQAABBBBAwGOBmJw36KwL97y5/vkXc00p506AU6/+4sXxeOKZXFfMfAgggAACCCDgo4D11MDEyZPjFj/Rc30u7xDI6RKAdvqLxxJ/8rEYJIUAAggggAAC+QjEpGOsQ4eHZ8yQ8lwWyykAKO9c/jur019vve2AAQEEEEAAAQQMFbA66J88o/HHueQu6yWAabPmXBuLyUO5rIx5EEAAAQQQQKD0AokTJ0dle4tgxlN6fbNfLJa4o/RFIQcIIIAAAgggkKtArEP859nmzRgAdK7pOsd6VtCAbCthOgIIIIAAAggYJBCLzZh69ZzZmXLkGADoc/4lIf+SaWGmIYAAAggggICZAvGYfC9TzhwDgJ5dK262+vx1y7Qw0xBAAAEEEEDAUAGrQ6D243PKnUMAkHyk4BedFmI8AggggAACCJgvEJPE/3PKZdoA4KJZjR+yFujntBDjEUAAAQQQQMB8gXisw4zp18w5J11O0wYACUncxD3/6bgYhwACCCCAQHAEki/ta5bPpMtxu+cATLv8y/1inU5sSzcz4xBAAAEEEEAgOAJ6Mt+caN5zZOfB/suW/fK4PeftWgDi5cc/YZ+BzwgggAACCCAQTAFtAYjH4r079e3arjNguwAgIbEbgllMco0AAggggAACbQWsIKA5npB2x/ZWAYC+9Md65v+ItgvzHQEEEEAAAQQCK6BXAqa3zX2rAKBTRaer2s7AdwQQQAABBBAIuID1Qr+2dwO0CgASIjMDXkSyjwACCCCAAALpBJpjM+yjWwUA1oRL7BP5jAACCCCAAAIhEUgkWh3jWwIAffOfdf1/WEiKSTEQQAABBBBAwC4Ql7Naf01+uzVe0bvzUPsEPiOAAAIIIIBAiAQSMtxemrdbAG5tlg4dRvL0PzsNnxFAAAEEEAiRQFwq9GF/qRK1XAKwHgk4OvnIwNQU/iKAAAIIIIBAqAQSHU+2tAK0BADNIj1pAQhVPVMYBBBAAAEEWgnE4okzUyNaAgDrlYHltACkWPiLAAIIIIBA+ARiiUSvVKlaAoC4xDqmRvIXAQQQQAABBMInYF3ur06VqiUAaI5JRWokfxFAAAEEEEAgjAKx3qlStQQAqRH8RQABBBBAAIFwCthP9gkAwlnHlAoBBBBAAIGMAgQAGXmYiAACCCCAQDgFCADCWa+UCgEEEEAAgYwCBAAZeZiIAAIIIIBAOAUIAMJZr5QKAQQQQACBjAIEABl5mIgAAggggEA4BQgAwlmvlAoBBBBAAIGMAgQAGXmYiAACCCCAQDgFCADCWa+UCgEEEEAAgYwCBAAZeZiIAAIIIIBAOAUIAMJZr5QKAQQQQACBjAIEABl5mIgAAggggEA4BQgAwlmvlAoBBBBAAIGMAgQAGXmYiAACCCCAQDgFCADCWa+UCgEEEEAAgYwCBAAZeZiIAAIIIIBAOAUIAMJZr5QKAQQQQACBjAIEABl5mIgAAggggEA4BQgAwlmvlAoBBBBAAIGMAgQAGXmYiAACCCCAQDgFCADCWa+UCgEEEEAAgYwCBAAZeZiIAAIIIIBAOAUIAMJZr5QKAQQQQACBjAIEABl5mIgAAggggEA4BQgAwlmvlAoBBBBAAIGMAgQAGXmYiAACCCCAQDgFCADCWa+UCgEEEEAAgYwCBAAZeZiIAAIIIIBAOAUIAMJZr5QKAQQQQACBjAIEABl5mIgAAggggEA4BQgAwlmvlAoBBBBAAIGMAgQAGXmYiAACCCCAQDgFCADCWa+UCgEEEEAAgYwCBAAZeZiIAAIIIIBAOAUIAMJZr5QKAQQQQACBjAIEABl5mIgAAggggEA4BQgAwlmvlAoBBBBAAIGMAgQAGXmYiAACCCCAQDgFCADCWa+UCgEEEEAAgYwCBAAZeZiIAAIIIIBAOAUIAMJZr5QKAQQQQACBjAIEABl5mIgAAggggEA4BQgAwlmvlAoBBBBAAIGMAgQAGXmYiAACCCCAQDgFCADCWa+UCgEEEEAAgYwCBAAZeZiIAAIIIIBAOAUIAMJZr5QKAQQQQACBjAIEABl5mIgAAggggEA4BQgAwlmvlAoBBBBAAIGMAgQAGXmYiAACCCCAQDgFCADCWa+UCgEEEEAAgYwCBAAZeZiIAAIIIIBAOAUIAMJZr5QKAQQQQACBjAIEABl5mIgAAggggEA4BQgAwlmvlAoBBBBAAIGMAgQAGXmYiAACCCCAQDgFysJZLEqFgP8CFT26SJ/RfaV6TI10ramUgzsbpWnfYWl4o0Hq1+6SE03H/M8UKSJQoIBuz/3OHWhtz31EP6e2592rd1vb844C18piJgkQAJhUG+TFGIGyinKpHtVXuvTsksxTw6YGawe43/EgXlnTXSbcdKGUVZz+SfWorbKWrZKaCQOs5U7I1iV18ubSTY7rMKbwZCR0AqngVLdrDUQbdxyUfXV7HMvZb+JAGXXd+FbT7duzBrY7l29ne24lFLwvp/dWwcs7OUbAEwHd+Q2/akyrg3nt2yntq2tIm6ae8dsP/m1n0mm1lw6XAVNrpW7+uuSOs+08fEfAC4ERV41Nbndt161BqZ7VpxtOHezTTTk1TgMK3Z5rJvaTDfPWym5aBJyxDJ5CAGBw5eSSNf0hVvQ4w/pXkTxbTUX3umymCD+XdUdxnnRnPnaHbDtG+7zpPmsgMPzqMdK1X6Wsm/carQHpkNqM07PWrlYLiw5VQ7RVRURbZHRgG08yOP5vzOxzki1Q6WbQbbHY7Vn3P2ffMDHZurXu8dXpkmGcwQIEAAZXjlPWqkedKX3G9rGaqGsynnXq8hrh79vYkNxhct3OSfTUeD3Q6Jm/H4NeFtBWg+V3/40gIA24XlKpOXdAy/XntrPU2kZoc3T9mt1s4zYT/VhV28vx4N9m1qK/astWWZcygtqiJf1dAQGAv95FpdbHOvAPnzUq2SEn1xXpQUb/6Q9Ud5R6HXr7y9s46KQBHDBtSNaAKs1iBY/Sepn6xZmy4u7npdHqX8Agogf+4bPG5HVmqmehun3rv1Rfi+0vb0lu71E2HTCt1tfiE9T6yu1KYh1Saxk0Ysq1MZGJqe/8NUdAz0zPvn6Cdc3tLOsA1bHgjOmyVWf1lv6TB0viRLPs37qv4HWFccERVtN8eddOvhYtXhaXPuP7yVvr6+XowaO+pm1aYnqtetTs8VaA27ngrKlnD+sywcCpQyQmcTmw84A0nzhZ8PqCvODIa8eLevg56O9H9y+7Vu2wgrHjfiZNWrkLLN+ybukjOru/W0fuGWTOtwX0jGjyLdOSzf1uoaSuQ0++5aLkGZdb6w3yek5dZ64sSRG0Pk7dQVBekvRLnajaT7xpStqOasXkTTup6W9Hm8KjNuh+Q7erUgya7vgbJpUiadLMU4AAIE8wP2fXHeOpM6JTt6K5nbY2QeuBRzu+RX2orOlWUoKo7jRPHfwvyKvJP5+K0ssDuo0PmjIkn8UCP2/V2JqSlkH3LcNnjS1pHkg8uwABQHajks0x8aYLktfvvcyAHnj0ft+hM0d6mYzx666o8ibIyqfg2iO79rJo1cOIWaM938a1DvTOC+0Rz+CfwKALa0X7LTGYK0AAYGjd6IFAo2i/Bm0ujdrBx25b/vYDf+zjSvF56IzhkWmy1oODdhzza9C0ohIEVNZ09Ys1YzragqmXIxjMFCAAMLBetNlSDwR+D5pmFC8H6A6qz6g+fnM7pnf2DeeFfqeZurzliODRhCgEAbo996it9kgwv9UmWxitIEDrm8E8AQIAw+pEfyil7ECjlwOiFASotz7IxM/WlmybnO40NU9hHrTpX8tZikGDgLD2CdCDf9tHUpfC2J6m/rbGzB5nH8VnQwQIAAypCM2GHoz8uO6frcgaBESlqVQPRNriYtqgeTIxX244ZXo6nRvrz2Ud2idA7zwI25mpPkOhVIFVJndTWiQy5TGK0wgADKl1Pw7++hz7nSu2Jh+Wkq3YepaktwmGbQdpL7eeLWk5TR2qhobv9jWvD/765Mtct3HtdKkBd1gCLW25K/bRvl79FjQo0d8bg1kCBACG1EftZWd53gytOwf9IS65bYGsfXBl1ieladOd7iDDGgT4/aS0fDe16tHm9EvIN+/p5tdmd68DLt1m9YCuT1d89d7l1rsC0r+8KZU/nV8D3TAEAQOm1KaKZeTfPpPMDbaNBPMhUwQAPiBnS0J7Q+stM34M+v4A7WOwe82ulkBAH5/qNOgOUoOTMA5q4eaQybGQdDR/YTgwadn17K/20hGFMOS9jAa6eh28oW6v9a6FpclgwOmtd7pyDYqDfslLtxP9rbo5uL099zO4tc1NtyCtiwCgxLWlZ9d6q4yfg+4g9Rn0+ujVho17Ze3clRmTD+P9vPp0OLevlWrLSv3anRkt853YZ3TffBcxcn7dxt32zlRQTevif7k8eWDXA1m2bVx/E0G+DdaL7US3Z31/iFuD1kkUn8rolp8X6yEA8EI1j3X6/QKaVNb0x6gvT0k2f/asyNpUWnuZ/7clpvLqxd/KYe7fJpV8FfPOg65mt8fQU6+/dXWlPq9Mr027fXaaaxH0ksN5t0xPvllw48INGRfTQDeol7v09dJuDnrg1+25aV+Tm6sVL353rmYwYisjAChhhevOxq+mf6diaiCgPaIrelQ4zZIcrzvwMHXiMeVBKRnRrYmlOnBmy1c+0/W1vqUeNNjtN6Ffxmzob6HPmGC2uLi9naQO/BoEuDlUWS0tDOYIEACUsC50Z6M7HROGXK41h6kTT1DO9LRecqkbE7ahdHnQJl9tXjdhyMUxqB0v3Q4AUvXl9u/Eq3ym8svf/AQIAPLzcnVur3rtaoenbL2fCylIpcudjArJg1vLeBV4ZTvLLCT/XYp4PW4h6bm5TI1HPb+1iVpv93N74H7106J68Hc7ePPqd3c613zKR8CM0898chySefXH5UU0rDvF7cu2S+WZXWXr4jqpHtvHtVuvsl0mCFLVeGGv17pzOcsMklOxeXX7AKL50QBXO/X1GFIlK5Y9L13PtN48Z13GcmPgAHVaUR+S5cWglxIbd+73YtWsM08BAoA8wdya3avesNrpyX6vdabbn/ItCwe3zGL6BEUvBj3A6S1tQRt0eyl2m9Ee/G0Pyhq8ace+1ODmNq7r1N9mEL1THm78PRW4eXPppm19upFf1lGYAJcACnMreqnKYcX/uHK5T9eLM92iC88K0gpos3a6SzfxLsF8kYobTzLM5TY0t7fxw/uOpK2foI3MZf/gZZnSbctepse68xcgAMjfrKgltOlfH8TjRu9/t3voZitYLjvjbOswZXq6naPb9/DnW1bdYbp9MMs3D27NP3TmSPGqRcStPDqtJyzbeam35/o17j4Tw6m+GF+4AAFA4XYFLanNi249ga7Y5tV8C5C6NSjf5UycP12zcaN1D38pd/47l21t19ytdoe3NZpI6JinU0/9G+44PZ8JfgdE6QLDfPJr0rzHMjzh04987n5tlx/JkEYRAgQAReAVsmiX/u4+sKOQPBS6TEOW56oXul5TlutiPQth99rdJcmOnv037jyQNm2/W3rSZiKPkdo5L6jDvrr6QGY9XeCi49IFun4U8M3n68Tp7pV0efUjT6TRXoAAoL1JJMboDzTfofGNYO4c05Wz0epJ3nbQFpXd1lm434PuENfMfcV60FK3tEkHbYdpSp+FQm4T3LexIW0dmD4y3YFeO9ttXVrne9Y1L3VPr0/enZEuce4ASKdSmnEEAKVxL2mqekBpfCO/HZ0uE6ae0ekOqtrcrDsnvy8D6C1tmqbTY1KDtsM0JVCsX51/a05Qm63TbbP63A596Zffw/K7/5Z8jHB5VZd2SdMxsB1JSUcQAPjMf+wt916uUWjW9cxg+KxReS1eSItBXgn4PHO6g5S6aCfNrUvqfM1NaufdZ1T71/+ywyy8KvLdxrXTXKouCk+1NEse3N6+RUsDWr18VEhLSDGlSF2ySrc9B9W3GA+TlyUA8Ll20v1Qfc5CMrl8OxDuXLalFNn0LE2n6+36eObtL2+zdpzOr0h2M1N60NEzfK2PdB3e0l2qcDN9L9ZlSktRvtu4PjgrqMPBHe0DAA1otUOmdi71a0idKOgrztP579uUX8ujX/mOajoEAD7XfCmamIstor5FLWyRu56lpLtuqs+C12l+3UK1bt5ryeqpmTQwbTWVok9C2ozkOdIvvzyz5Ti75teUwMUxkxkmaN7TBa36/g6d5kdLku4jNsxbncylPoE03VCKSxLp8sG4UwIEACXYErav2F6CVAtLUn/UdU+/XtjChi+1c3n7MyO9RVMvA2y0OjF5PWjTrPpqeumeC6HTgnb9P2VW/1r+199Ty/r9Vw+ca+au8jtZ19NLF3SlmuF3vtx+W3c7A6n9mp75259GmkpH85e6PJAax9/SChAAlMB/6+JNJUi1sCS1g1pYB6cOXwOmDUkemNPtUN20SAUZmp4217YdUjvUtuOD8H378i2BaTWqm78uFAemdJ0e9WCs76jwuj40iErt18bMPiftJhrkSyxpCxSCkQQAJahEjYK1Wd30Qc9Qg9wsms1Xz7DTNY3q2biele+0Xqrk1aDpavp6jTbd2b99h+pVHrxe74Z5a71Oouj1ax28uTQ4AXmmAu9euyNt0FU7c3hyMS8DSr32r/s1vfaf7gVQur2HeV+SqV5MnkYAUKLa0Wb1dNegi82OHjjcOnNNnaEWmyeTl697el277OnZuL4JzWmH2m6BAkZouhpkjJo9Pu3Zf2qHWsCqjVlE/dIFWMVm0M1tvG6B+YF4Pl7pyqOtAIOmDEmeoaud24OuUzsJazCr23O6Id3vLN18jPNXgADAX+9WqWnzuhs/SF1H3fwNsuGxNbLy3uWy27r/udjgQg9AenYU9sGpg5Rew9SdZrodarEmGqDpXQgTb7ogbc9/rbtUc2qxaZV6+ZX3LnNlO0pt47qd6zaur7wudhvX4ESbxsM0ODX16+uS9THkqV76bpY5tc6zb5iYNpjV7Z2zfzfF3VtXh9SqBo2Ycm1MZGLqO3+9Fzh68Ki8tb5e+ozvJ/GywmMxXVYfv1p1Vm85c2J/6W3dylbetVPBBdAD/+r7V0jziZMFryNIC75l3Zp0pnWdtG0dqGf92l1S0bNzUZ5tLTY+uU5GW2dK6W7703lX/vZFORKS4Eu3of2b3nJtG9ftXLfxvuPPLKpONKBY8dsXrAD8eNvqCfz3QzsOSM3EAe3KUTWit2x5ZoNUj6lpt623mznHEbqv2LVsm5zz0clp60Od9cFAUdmX5MhW6tmWb1m39BHNROFHnVIXISTpay/vFXc/70pLgBsk+oN91TrDilJvXd2JOXV21DfaqYlbg6alZ0pOB3/tGxLUnv9ORqltXMtuyrDh8TWutEyYUh57PvRsO10fI720NeGmC4tuObGnpZ+dzvx12qlWzmP6kcFAAQIAAypFd5Av3PGc6z/MQoqmP9iwHYBycdDr1ammzLbzp+vU1HaeXL+nezhKalntdBnWWy5PbeOLXeufkjIr5O/aB1eGrum/rYNuR05PAPRre1Zn/V0xmCtAAGBI3ejZkTaVOf1ovc6mnuVG/QerDzEplb+mqy8ECvOgrUraJyDd2alf5dZ+MmG77u9kp9tTqbbnKARZTu5BGk8fAINqS6+T7bHeoX1ox0HR63Vtr0l7lVUNPvS6c/364Dy8xSsL9e/QpVy6D+jhVRLt1qstD68/FPwH0bQrmMOIfZv2Wv0CGqTH0Cqr01hHh7ncHa0B7hqrX8v2FeHq9JdNSbfnztZLeZwuOWVbvpDpHPwLUfN1mZY+AAQAvrrnltih+oOy7cUtcrI5Id2sF3p4GQjoGYL2qg5Lp7PchDPP1bB+jy9BmAZer1pnxNte3Jw5QyGcemTfEdmytE4S8bjn27j29tcOf/u3vhVCyexF0iDgpBUAaadWLwd11u2ZEwkvlV1ZNwGAK4werkRbA/RMSQOB49bdAuXdOqXtZVtoFvTHutZqItSHoNBDt72iBmG7Vu2Qbv26Wy816dx+hiLG6IG/bv56WfvwatF0ojzoNr75uTfk6P4mKevc0VVrvU1wzf0vy8YF+qS/8PX2z2e72b91n+y1Hs/cpU9XV401D+q88anXZd1jq0XvbGIwXqAlALDu/Ds1TLtmzl3Wl0+kvvPXPAHtQNZndN9k06k26WXqUJYu9/pD3b12d/KhHXoQYshNQO+frr1sRNonnKVbgzY3673P9vpR78P7mqRh9am3/6VbjnGSNKsa2it5W6t2VrMb5uKjzhrc6mNno9iZNRejfLfnlKm9LvQtlccaDos+Tpt9SS7q5syTEPnV4kdv/6TmiADAnHrJOyf6JLnKmm7JJ8p16V/puHzjG/XJB89E6dY+R4wiJqi3vi5Y3xion+29qTW40n/6ulN94xnWRUC3WVQPWOqdaRs/vK0x+bAZ3NvgZfiqB3Q9odDnAujQdntusAKpxjdOPcIX1wyQAZtkDwDav4EkYIWJcnb1R9nyhC1ut/F8U1Bv7UEelV7knoPmmADbeI5Qec6mZ+56CTAs70LIs/jMbglwGyCbAQIIIIAAAhEUIACIYKVTZAQQQAABBAgA2AYQQAABBBCIoAABQAQrnSIjgAACCCBAAMA2gAACCCCAQAQFCAAiWOkUGQEEEEAAAQIAtgEEEEAAAQQiKEAAEMFKp8gIIIAAAggQALANIIAAAgggEEEBAoAIVjpFRgABBBBAgACAbQABBBBAAIEIChAARLDSKTICCCCAAAIEAGwDCCCAAAIIRFCAACCClU6REUAAAQQQIABgG0AAAQQQQCCCAgQAEax0iowAAggggAABANsAAggggAACERQgAIhgpVNkBBBAAAEECADYBhBAAAEEEIigAAFABCudIiOAAAIIIEAAwDaAAAIIIIBABAUIACJY6RQZAQQQQAABAgC2AQQQQAABBCIoQAAQwUqnyAgggAACCBAAsA0ggAACCCAQQQECgAhWOkVGAAEEEECAAIBtAAEEEEAAgQgKEABEsNIpMgIIIIAAAgQAbAMIIIAAAghEUIAAIIKVTpERQAABBBAgAGAbQAABBBBAIIICBAARrHSKjAACCCCAAAEA2wACCCCAAAIRFCAAiGClU2QEEEAAAQQIANgGEEAAAQQQiKAAAUAEK50iI4AAAgggQADANoAAAggggEAEBcoiWGaKjIBrAmNGDJaK8vJW6zt4+Iis27i11Ti+IGC6gG7HZw0dIB3LOrTK6lv7D8imLTtbjeNLOAQIAMJRj5TCBwHdQU485yw59+yhMm7sEBk7crBjqseOnZBVr22S1Ws3y7KVG2T5yvWO8zIBgVIInNG5Qs6fOFLO0e15dK2MHDbAMRuHDzdZ2/Pm5Da9/JU3ZNXajY7zMiE4ArFUVqddM+cu68snUt/5GzyBHrW9pWnfIevf4eBl3uAcD+zXV25430y57OJzpKJT67P9XLO9v/GQPP7XF+X+h56V+ob9uS7GfG0EdBtvbjomjTsxbEOT89dRwwfL9dddJO+4+Nycl2k7Y/3eRnn4yeflz48ukv0HDrWdzHeDBRIiv1r86O2f1CwSABhcUU5ZK6sol+pRfaVqWJX0qK2Sih5d2s16oumEHNzZKAe3N0rDpgapX7uj3TyMyCxQ1aO7fP6T7ypqR5kuhT/8eaHcfe+T0nTsWLrJjHtboHrUmdJnbB/pWlOZ/JcOZl9dQzLg3b16t+yr2ysnrOCAIb1A/77V8oWb3y1TJ49JP0MBY7Vl4J4/zZffPfB0AUuzSCkECABKoe5CmnrgHzFrtHXwr5Gyivyv3uxcsVU2Pr2eFoIc6uLSi86Vf/rsbOnWtXMOc+c/y/adDfKtH98ja9dtkWbrP4ZTArqND5oyRAZMrS1oG69fu1O2Lq6TBisYYDgt8P53XSKf/tjVUl6e/37j9FqcP23YtF2+/eN76SvgTGTMFHsA0NLbY9CIKddazQETjcklGWkloDvFcTecJ5UDeki8rLCbN/RMauDUIdJzaLUc2nFAjh482ioNvoh0sQ5AX//ih+TjH7xCOpV39IxEA4tZl59vtcHFZOWrmyRh/Rf1oY91xj/uholSPbpvwdt4l+quUjNxgJxp/dNt/Mi+I5Fm1Vas7/zzR2X2u6ZJhw6F7TdyAazq2c3ani+QxgNHZO2GLbkswjylE1i+Zd3SRzR5AoDSVULOKY+ZfY4MumhYwTvFtglV9Ogs/SYPsq7/xOXAzgPSfOJk21ki+b2qsqvc+eMvyLnjhvlS/ph18Ne0zhraX55Z/Io0J6IbBAydOVJGvHusddbvTtCl69FAoFu/Stm7fm8kt3Ft8v/FbV+QEcP6+7I9a4Ax9fzR0rN7V1n60mu+pEkiBQkQABTEVoKF9OBfM8G5d24xWeoxpEp6jeht7SDrrWunx4tZVeCX7VtdJXf86HMysH+172UZNKCPjLZuJ3x2ySo5cTJ6wZhu4wOm1Hriri0C/ScPlresbTxKLV7Davtb2/Mtomfmfg+jRwySAWf2lmeXrvI7adLLTYAAIDen0s7l5cE/VbLyrp2s5tKBkdtBpsqvf7WZ9I4f3iL9aqrso339PKBftYwdNVj+unB5pFoC9NKWtm55OeglM23xOrq/SQ7saPQyKSPWPWRgjfzH9z8j3SvPKFl+hg050/o99ZLnnn+1ZHkgYUeBlgDAu4tCjmkzIRcBvR7q1Zl/2/S1Q+F5t0yXqtpebSeF/ntZPC63ffsTJT34p5AnWc8YuOWT7059Df3fypruMvxq93qkZwMbdd146WcFu2Ee9N7+27/zqZIe/FO+V156nnzwvTNTX/lroAABgIGVoj2hR80e73vOztZOhtZOOUrDZ2+6VoYP6WdMkd93zXTrOupYY/LjZUZKsY2HPQj453+4Xqp7VXpZbXmt+7M3XiP63AEGMwUIAAysF73Vr5Db/IotiqY54aYLrbQLe9hNsen7vbw2lc6+ZprfyWZN70u3vE+0ZSLMgzb9610ppRg0CAhjoKuB44xp/p84ZKvDf/rce7PNwvQSCYR7L1Mi1GKS9eO6f6b8aRAw9YszQ99UqgZzrPv84wYeaPUM7v3vuSRTNQV6mjbD+9n0nw5LL3npnQdhGj7/iWuNLI4+YviKSyYZmbeoZ4oAwKAtwOuDvz4ZUJ8QmG3QIEDPksK2g7SXe8LZw2WC9Qx0U4cPXneJlHf05qEtpSyzHvx12/Jq0Mdg5/oo7NpLh4v+5sIwXDnzfNGOpKYON37oClOzFul8EQAYUv3aJOp1pz99ZHDd/HXy0h2LRJ8KmG0I0w6ybVk//L5L244y6nvPHtaDVa64wKg8FZsZ7WTq5cFf86eXr7YuqZMVdz8vbz5flzXg1d/c5FsuCvxlrw+/3+ztWYOT6ReMK3YTYnmXBQgAXAYtZHV6YK69dEQhi+a1jJ7Za9Nrn0kDZM3cV2TJbQuyBgK6g9TgJEyD3vN/wSTzm39nz5oeGna/OramtvHhs8bIhnmrk9v4xoUbMgYC2heh9rKzAmutrVmDB/YxPv/vuWqK8XmMWgYJAAyo8fE3TPK109+gC2tl4k1TrE5Y3ZOBgO4gMw0anKR74VCmZUyedrU+gjcAg+7UR1jvZw/DoB1b/dyG9KCuZ/b60qy6p1+XtXNXZmTU34TeehvEIflI6QBkXINufdomgzkCBAAlrgu9JlqK3tD6FsHx1nPXdSfZsHpnxuumelalO/CwDNMu8O/e82LNgtBSka2M2uPe68tb6fKgv6sx1u20F//LO5OT9UVBmYbhs0ZlmmzstCnnBee3OXlScPJqbIW7mDECABcxC1lV7czhhSzm2jK6k9Qe0U37mjKuU99A6OcZXMbMFDFRX/ZzlkH3/WcryjljvX1KXrb03Zg+YFqtG6speB0awJ5tBbvZBt2+g9YKoLeylvKJf9lM206f4NN7Ntqmy/f0AgQA6V18Gaudokw5qGqLQLahj/WWtqAPI4YPMvLWPyfXEcPMeUiRUx4zjdftuxRn/+nypEFstqF6rPnX0u1lGDk8WE82HD40mJdZ7OZh+kwAUMLa9PLMKJfb/fItevWY7DvQfNfp9/yD+/f2O8mi0tO7AfTxrkEdBkzzrgNprrf75WOXSyCcz/q8nrcUL68qpkzaYsFgjkD4bjQ2xzZrTnI5I8m6kjYz6HXONXNXWU866yYVVV2Sb1lzq4+BNqUGfejTu0fgitD/zGpZtzH7bZsmFqwqh5alfPOtz7NYee+y5GLJ/gWT+lmd/dw5sJjSIperSdC25/LyMune7QzZf+BQrkVkPg8Fgr9H9xDHy1V79eKdHrXVVqeny5NZ11aAfXX1rnUydCuQ8NI127qD+HCd6l7dAxkA6K1/Xmwzus5T9+6XJW/v27nc3eBIg4rGnfuzbUpGTC8r62BEPvLJRN/ePQkA8gHzcF4uAXiIm2nVlcO8eWqX/SxdP7t1ZpSpLIGaZuCjf7P59a4qzTPzs+Ur23Q3glw92083pLZz/Ttgam26WSIxLh6PBa6cGtAymCFAAFCCeki+A92677jYYV9dQ7GryGt5L/oV5JUBN2ZubnZjLb6uQ99nH7RBD/5u3FaXOtD7Wf6gnP37aeJmWia+f8PN8gVpXVwC8Lm2kjtGl96B7neHJaezMZ8JSc5wAW3617dKujEE7Zq8G2VmHQj4JRC8Uwu/ZDxKx6umf4+y22q1jQ7Nsa1m4kvkBfqMCe7ton63qkV+YwGgpAIEACXlL13ihezoGt/w95JD6XRIuRiB8p5dilnctWUL2cYbfL6s5lphWRECBQgQABSAFvRF9Fp+3dPr8i5GQ93evJdhgegJHN6WvuOe3xJbF9flnaQ+FpsBgagIEAD4XNPNh4/5nGL75LRjVe1l+b19UF8ffKKp9HlvXxrGmCZgynaS74O2tI8LHQBN25rIj5cCBABe6qZZ98EdZpwd5duBsJCzqTTFZ1QEBBp3HjCilHlv40vrjMg3mUDALwECAL+k305Hm9GDdjudPl2QMyOfN5QAJ6ctAEG7Y0Tzu335lgCrk3UE8hcgAMjfrOglsr2WtOgEXFyBBivr5r3m4hpZVRQE3H46n9dmG+at8ToJ1o+AcQIEACWokiA1p9fNX2e9KvhwCZRIMsgC21/eFpiWrjefrxM6uAZ5ayPvhQoQABQqV8Ry2pwehFYAvY3qzaWbiigpi0ZVQC8D6IHV9OHUHTHrTc8m+UPAEwECAE9Ys69Um9W96gvg1noLuVUwe8mZIyoCWxdv8qz1yK1tXIMUU+5aiMp2QTnNEeBRwCWqC21W3/D4Ghl13fiic6A7Q92R6S2G+zY1yLGm4zL+hklFvYlNz/5pFi26aiK9Aj2wvnrv8uRjgYt9pn9qG1fQxjfqrU6pB2TiTRcUtY3rb1CDFAYEoipAAFDCmk/1Oi42CNCd69AZw10rie5s18x9xbX1saLoCujlLjcC3VbbuEvb+tq5Kzn7j+6mScktAS4BlHgz0CBg7YMrS5yL1snrDpuOf61N+Fa4gInbOB3/Cq9PlgyPAAGAAXWpO0htKnXrumYxRdIdY6plopj1sCwCdgHdpl66Y5ER27g+1XLDvNX27PEZgUgKEAAYUu271+6QFXc/X9IHqLBjNGRjCGk29HLAktsWSCEv6XGLRNPm8pZbmqwn6AIEAAbVoO4gl9/9t5LcIrjhsTXsGA3aFsKaFe0YuPzupbJx4Qbfi6gBrqbNgAACpwToBGjYlqA7yJX3LpOq2l4yavZ4qejh7atV9Vq/doaix79hG0LIs1P39Ouib94bPmuM5PvM/nxp9NKabuPaysaAAAKnBQgATlsY9UkPyNpcqoGAvtWselSNq/lL3ValO2IGBEohcKrFa2lyG6+ZNEBqJgxwPRvap6Xu6fX09nddlhWGQYAAwPBa1EBA/2lLQJ/RfaXH0CrrjKlaCr2vWl96snVpnexes4udouF1H5XspbZxfThWnzHWNj6kKhnwFrqNJ+/vX2J1Zk0+jphXWEdlO6Kc+QsQAORvVpIldKemj+VNPZq3sqZ7Mijo0r9SuvSoaLlUoDtNDRbsb2NrsDo+Hd7WmAwkeOpZSaqPRHMQ0G1T7xY4dRfKK8ntWLdz3cZ1u66sqWxZi142sHcmbLQC28Y3GpJvreQW1hYmPiCQUYAAICOPuRO1+VT/Cdc1za0kclaUgB7IkwdztvGiHFkYAScB7gJwkmE8AggggAACIRYgAAhx5VI0BBBAAAEEnAQIAJxkGI8AAggggECIBQgAQly5FA0BBBBAAAEnAQIAJxnGI4AAAgggEGIBAoAQVy5FQwABBBBAwEmAAMBJhvEIIIAAAgiEWIAAIMSVS9EQQAABBBBwEiAAcJJhPAIIIIAAAiEWIAAIceVSNAQQQAABBJwECACcZBiPAAIIIIBAiAUIAEJcuRQNAQQQQAABJwECACcZxiOAAAIIIBBiAQKAEFcuRUMAAQQQQMBJgADASYbxCCCAAAIIhFiAACDElUvREEAAAQQQcBIgAHCSYTwCCCCAAAIhFiAACHHlUjQEEEAAAQScBAgAnGQYjwACCCCAQIgFCABCXLkUDQEEEEAAAScBAgAnGcYjgAACCCAQYgECgBBXLkVDAAEEEEDASYAAwEmG8QgggAACCIRYgAAgxJVL0RBAAAEEEHASIABwkmE8AggggAACIRYgAAhx5VI0BBBAAAEEnAQIAJxkGI8AAggggECIBQgAQly5FA0BBBBAAAEnAQIAJxnGI4AAAgggEGIBAoAQVy5FQwABBBBAwEmAAMBJhvEIIIAAAgiEWIAAIMSVS9EQQAABBBBwEiAAcJJhPAIIIIAAAiEWIAAIceVSNAQQQAABBJwECACcZBiPAAIIIIBAiAUIAEJcuRQNAQQQQAABJwECACcZxiOAAAIIIBBiAQKAEFcuRUMAAQQQQMBJgADASYbxCCCAAAIIhFiAACDElUvREEAAAQQQcBIgAHCSYTwCCCCAAAIhFiAACHHlUjQEEEAAAQScBAgAnGQYjwACCCCAQIgFCABCXLkUDQEEEEAAAScBAgAnGcYjgAACCCAQYoGyEJctckWrKC+XMaMGy7jRtTJmxCDp0qWilcHhw02yZt2bsuq1OlmzdrM0HTvWajpfEDBJ4IzOFTJ2ZK2cc/YQGTl8oHTq1LFV9vbtP5jcnl9ds1lWrd3YahpfzBWIc9ppTOUQABhTFYVlpKpHd5l1+XlyybTxMnLYgKwrmTp5TMs8q1/fLAuee0WemP+S7D9wqGU8HxAolUD/vtVy5TvOk+kXjJXhQ/plzcYMa7tPDSte3SgLF1vb89MvyaEjTanR/EUAAQcBAgAHGNNH647y4ze8U95xyQSJFxhSjx052DrDGiyfvvEaeeypF+Q3v/+LNDQckGbrPwYE/BQYVttfPmFtz9MvHFtwshPOHir679MfmyVzH10sv5+7gMC2YE3vFmxm9+Idbp5rJgDIE6zUs5dZB/uPXH+5/P3175CyDu60pel6rr3yQrny0vPk5//zmMx95DmCgFJXdETS18tWn7pxlrz36qkFB7JtqSo6lcsNs2fKte+8UH768wflL88sazsL3xFAwBIgAAjQZqBn/d/66kdyauovpFjl5WXyhZuvlWkXjJbv3v57qW/YX8hqWAaBnARGDR8s3/zSh2RAv+qc5s93pm5dO8u//tOH5KIpZ8sPfna/HDlyjMA2X0QP5i+wwdKDnLBKd04hcfRc4NKLzpX/vfNLnh387QWYdM5Z8r93fEkmjj/LPprPCLgmMPua6XLXT77g2cHfnlHtJ3DPf39Fhg/N3qfAvhyfEQi7AAFAAGr4misulG9aZzJ6hu7XoGdPt337Zqsz1ji/kiSdiAh88sNXyT9+6jpfS1vdq1L+8/ufse6OGexruiTWXoA+AO1NSjWGAKBU8jmmq2dKX/n8+127PppjssnZtG/Ad7769zL1/MI7ZuWTHvOGX+CWG9+V7L9SipLqbbE/+96nCQJKgU+aRgoQABhZLacydeXM830/U2rLoUHAD7/xcZl4NpcD2trwPT+Bj1qdVz/w3hn5LeTy3NpBUIOAIQNrXF4zq8tVgD4AuUp5Px8BgPfGBaWgO6gvfe59BS3rxULamap7tzO8WDXrjICABpAf/9AVRpRUg4Dvff1GKe/o3yU1IwpuSCa4BGBIRVjZIAAwpy5a5eQ7X/2or9f8WyWe5oteQ53z2femmcIoBDIL6K1+GkAW+ryKzGsvbKreefDpj11T2MIsVZQALQBF8bm6MAGAq5zurOy6WdNk8MA+7qzMxbVcOn0C109d9IzKqj7yd5eJBpCmDfo701trGfwVoAXAX+9MqREAZNIpwTQ9W7rxA5eXIOXckvzCze/ObUbmQsASqKrsKh+4boaRFtq/5eaPXWVk3sKcKVoAzKldAgBz6iKZk3e9c4r07NHNsFydzo4+OnjC2cNPj+ATAhkE/s7q9Ofn7asZspJ20oyp46VvdVXaaYz0RoAWAG9cC1krAUAhah4uc/11F3u4dndWff27zc+jOyVlLcUKXHfVlGJX4eny2i/hhvfN8DQNVt5agBaA1h6l/EYAUEr9NmlPnjBK+vbu0WaseV+nTh7NHQHmVYtxOdLbWNu+ktq4TFoZesclE0XfscHgjwAtAP4455IKW30uSj7Nc+nFE3xKqbhk9KxJm04ZEMgkMHN6MLYRferl5EmjMxWFaS4KEGu5iFnkqggAigR0c/Fzxw1zc3WermvC+ODk1VMIVp5WIG7dYayv5g3KcG6A8hoUU6d80gLgJOP/eAIA/83TpljVo7v0qwlOZ6Rxo4ekLQcjEVCBEcMHBqL5P1Vb48ayPacsvP5LC4DXwrmvnwAgdytP5xxee6an63d75dpXgSepua0anvXVGvgci0y6Qwb2zTSZaS4K0ALgImaRqyIAKBLQrcX79+/l1qp8W08tz1P3zTpoCQ3sH6wH7GhnRR517c9WRguAP865pEIAkIuSD/N0tXZAQRv69O4ZtCyTX58EupwRvO25L9uzL1sHLQC+MOeUCAFATkzez2TSc9JzLW3vavMe75pr3pnPW4HysuC9aKe6V3er6yK7RG+3DNZukgBbuyG1EcQAIIitFoZUN9kwUKCyaxdptv5jQCAqAgQAUalpyokAAggggIBNgADAhsFHBBBAAAEEoiJAABCVmqacCCCAAAII2AQIAGwYfEQAAQQQQCAqAgQAUalpyokAAggggIBNgADAhsFHBBBAAAEEoiJAABCVmqacCCCAAAII2AQIAGwYfEQAAQQQQCAqAgQAUalpyokAAggggIBNgADAhsFHBBBAAAEEoiJAABCVmqacCCCAAAII2AQIAGwYfEQAAQQQQCAqAgQAUalpyokAAggggIBNgADAhsFHBBBAAAEEoiJAABCVmqacCCCAAAII2AQIAGwYfEQAAQQQQCAqAgQAUalpyokAAggggIBNgADAhsFHBBBAAAEEoiJAABCVmqacCCCAAAII2AQIAGwYfEQAAQQQQCAqAgQAUalpyokAAggggIBNgADAhsFHBBBAAAEEoiJAABCVmqacCCCAAAII2AQIAGwYfEQAAQQQQCAqAgQAUalpyokAAggggIBNgADAhsFHBBBAAAEEoiJAABCVmqacCCCAAAII2AQIAGwYfEQAAQQQQCAqAgQAUalpyokAAggggIBNgADAhsFHBBBAAAEEoiJAABCVmqacCCCAAAII2AQIAGwYfEQAAQQQQCAqAgQAUalpyokAAggggIBNgADAhsFHBBBAAAEEoiJAABCVmqacCCCAAAII2AQIAGwYfEQAAQQQQCAqAgQAUalpyokAAggggIBNgADAhsFHBBBAAAEEoiJAABCVmqacCCCAAAII2AQIAGwYfEQAAQQQQCAqAgQAUalpyokAAggggIBNgADAhsFHBBBAAAEEoiJAABCVmqacCCCAAAII2AQIAGwYfEQAAQQQQCAqAgQAUalpyokAAggggIBNgADAhsFHBBBAAAEEoiJAABCVmqacCCCAAAII2AQIAGwYfEQAAQQQQCAqAgQAUalpyokAAggggIBNgADAhsFHBBBAAAEEoiJAABCVmqacCCCAAAII2AQIAGwYfEQAAQQQQCAqAgQAUalpyokAAggggIBNgADAhsFHBBBAAAEEoiJAABCVmqacCCCAAAII2AQIAGwYfEQAAQQQQCAqAgQAUalpyokAAggggIBNgADAhsFHBBBAAAEEoiJAABCVmqacCCCAAAII2AQIAGwYfEQAAQQQQCAqAgQAUalpyokAAggggIBNgADAhsFHBBBAAAEEoiJAABCVmqacCCCAAAII2AQIAGwYfEQAAQQQQCAqAgQAUalpyokAAggggIBNgADAhsFHBBBAAAEEoiJAABCVmqacCCCAAAII2AQIAGwYfEQAAQQQQCAqAgQAUalpyokAAggggIBNgADAhsFHBBBAAAEEoiJAABCVmqacCCCAAAII2AQIAGwYfEQAAQQQQCAqAgQAUalpyokAAggggIBNgADAhsFHBBBAAAEEoiJAABCVmqacCCCAAAII2AQIAGwYfEQAAQQQQCAqAgQAUalpyokAAggggIBNgADAhsFHBBBAAAEEoiJAABCVmqacCCCAAAII2AQIAGwYfEQAAQQQQCAqAgQAUalpyokAAggggIBNgADAhsFHBBBAAAEEoiJAABCVmqacCCCAAAII2AQIAGwYfEQAAQQQQCAqAgQAUalpyokAAggggIBNgADAhsFHBBBAAAEEoiJAABCVmqacCCCAAAII2AQIAGwYfEQAAQQQQCAqAgQAUalpyokAAggggIBNgADAhsFHBBBAAAEEoiJAAGBITTc3NxuSE7JhmkAigJvGyZMnTWMMZX6amxOhLBeF8keAAMAf56ypNDUdyzqPaTMcPNxkWpay5udwAJ0PB9D56NHjWevCtBmCtj3HJS6HDx81jTFrfg4fCt5+I2uhAjoDAYAhFXfoSPB+yIcOBu+HHMSDadAOTPqTCmSeDx0xZG+QWzaapdkKAIL3Gzx4OFjOudVGMOciADCk3nbv3mdITnLPxo5db+U+syFz7qoPoPPOvYbo5Z6N3YF0bsi9gIbMubu+0ZCc5J6Nrdt35z4zc3oqQADgKW/uK9+2oz73mQ2Z881tuwzJSe7Z2LIteM7bdgYvz1u3BStoOXbshOyqD14AELRtY3/jIQniZbjc9zDBmpMAwJD62rarPlDNefV7G2X/gUOG6OWejc1v7hDd2Qdl2LBpuxw7Hpz8plw3bt4uQerYun7TtlTWA/V33RtbA5XfteuDld9A4RaQWQKAAtC8WmT5yje8WrXr633plXWur9OPFZ6w7rZY9domP5JyJY0Vqze6sh6/V3LoSJOst4KXoAzLVqwPSlZb5bO+Yb9s3R6cFqJXVgdnH9cKOqRfCAAMqtggHVRfXB7MAECre9krwdnZB9n5by+tNejXlTkrLwY0ANBSvfjy65kLZ9DUvy0LTl4NYvMsKwQAntHmv+IFi1YFotn0xMlmWfzC6vwLaMgSCxe/akhOMmdDe3i/sOy1zDMZPPWZJasMzt3prL2174CseHXD6REB+7TQ2m8EYdCWinUbuQRgUl0RABhUGw379svLq8xvInt26UrRJt6gDlu27pLXA3Dt9K/PrhC9ZBHUQXf2QWiefnL+sqASJ/O9/NX1on1yTB/+snC56VmMXP4IAAyr8j8+9JxhOWqfnXsfWNB+ZJDGWFv9fXMXGp1j7UD3hwefNTqPuWTu3rlmbyvamvX7EDj/8WGzt5Wmo8fkj//3TC6bDPP4KEAA4CN2LkkteXG1aM9vU4clL6wJRTPe/OdeNvrs9K/PrJAt24N3m2Xb7fbRvzwvu/aY++yFx556QbTlLejDw48vFb2UYerwf/OWyJEjwXvaqamebuWLAMAtSRfX8/2f3i96ZmLaoNekf3zHn0zLVsH5+c5t9xW8rJcLHjh4RP7jrv/zMglf1/2j/3jA1/RyTUwPmHf++pFcZzd6Pr0k99NfPmRkHjUAvPveJ63nFpq3TzMSzMdMEQD4iJ1rUnrt9J4Hns51dt/m+8+7HxG97Sgsw5p1m+WBh8275PLvd84N5DMWnLaLF1aslSfmv+Q0uWTjf2AFJkHuy9IWTlu1Fi5e2XZ0yb9/9/bfS9Mxzv5LXhFpMkAAkAbFhFG/ufcvsvr1zSZkJZmHRc+vFm3ODdvw8/951KhLLvOeelF0Rx624bY75sr2neY8ae8Pf14oerktbMMPfna/UZdcfnXPE4G+wyJs20fb8hAAtBUx5Ls2l33tu7814rre5i275Vs/vscQGXezoU/Z+/q//Vb0EaWlHrTvx+3/HZ5LLHZPPQP852/fbcTTLjWw/sVv59mzF5rP2qLxte/+xoinXeo9/7+737yWzNBUtgsFIQBwAdGrVWjnpC9/q7Q/Zr1O+sVv3BXqJjx9DPM3vv87r6oxp/XqbVxf/MavAvnY35wKaM20actO+da/l7bfhd6W+JVv3R3o2yuzeeslxH/76R+yzebpdD1p+OYP/5fr/p4qF7/yDqlVDBox5dqYyMTUd/6aIaDX3F+ynlJ22UXnSMeOZb5mSjvvfO4rd8qOPcF6sUshSDt2N8grqzfJzOnjpays5WdRyKryXkabxm/5yh1W/wpze8vnXSiHBbZs3yPrN+6QGdPGSzxu7XF8HPSg9Pmv/JfsC+A7LPJl2vTmTtm2fa9cdOFYicX8ddZnbNzy5f8KVf+KfP0Nn3/5lnVLk71fW/Z0BADmVtmevftl6UuvUbU3DwAADKJJREFUy+SJI6Vb186+ZFSbSef86y9lT/1+SVj/RWHYsatBXly+QaaeP1q6dOnkS5H1scRf/uZdUv9WeDpXZoN7c9tueeXVTTLlvFHSucIfZ7199avf/XUkDv4p/zc275A1a7fIhZZzRafy1GhP/85ftEL+9Xu/5eDvqXLRKycAKJrQ5xVoU/yjT/4tGQCMHjHIs9T1gR2/vu9J+Z7VhHj4yNHIHPxToNrios49e1TKiGH9U6Nd/6u3VN5ldZD6d+u2yiOWedSGnVaLy2N/fVH69O4hQwef6VnxtW/Hnb95VP7zVw/J0WPHPUvH1BXr64KfmL9c+vbpLkMG1XiWTd0//eTnD8pdv3tcjp8I3tsrPYMxc8UtAUBL29C0a+bcZX35hJn5JVd2gf59q+Xmj10ll06fYB9d9Ge9Je6e+/8qDY0Hi15XGFYwZGCN3Pz3V8t0qxnVrUFfRfzAI8/J760n5AXxdcpuOdjXM2LogKTzBZNG2kcX9VkD2T88+Ixob/8w3epXDMqYEYPlMzdeIxPOHlrMalotq4HsfZbx/ZY1t/q1ojH2i9We+6vFj97+Sc0gAYCx1ZQ9Y8Nq+8v7r71ILrv4nIKb+DRy12eh3//Qs6G6xz+7Xu5z6AHq+vdcIlfMLLyLjDo/YrUszLWCLAKs9PZ6gLr+uouLCmy1M+XDTz4vf350EQFWOmbrWTxTLxgr777yQpk6eUy6OXIap/2DHrGc/2RtzwRYOZEZMxMBgDFV4U5GKsrL5eIp46wD1CTJ5SxKz470gSFPLXhZ9CEtDLkJnNG5Qi6eOs7qkHluTs56drRg8SqZb73UB+fsxnGJJ3uNq/M7Lj5X3jFjYk5nq/rkxL8+s1zmL1rJPefZmVvm6N7tDLn04gnyTmu/MXbk4JbxTh80iNUXVC14bqWsWrvRaTbGGy5AAGB4BRWbPb1E0Nu6ttqnV3fp1atSmq3HCu9paJSdVie33fX7ONMvEjh1oFLnvr17SrVlnHLeZfnuts6OcC4S2bb4wH59pXd1pbU990j+bWo6IbvqrW15T2PSOQzP8rcVt2QfU859rX1HdVVlsg+QdkBOOu/eS8tVyWrG3YTtAYC/95W5Ww7W5iCg97XrPwZvBFLPNMfZG9+2a9WXIoXhxUhty2Xad5xNqxHv88ODgLw3JgUEEEAAAQSMEyAAMK5KyBACCCCAAALeCxAAeG9MCggggAACCBgnQABgXJWQIQQQQAABBLwXIADw3pgUEEAAAQQQME6AAMC4KiFDCCCAAAIIeC9AAOC9MSkggAACCCBgnAABgHFVQoYQQAABBBDwXoAAwHtjUkAAAQQQQMA4AQIA46qEDCGAAAIIIOC9AAGA98akgAACCCCAgHECBADGVQkZQgABBBBAwHsBAgDvjUkBAQQQQAAB4wQIAIyrEjKEAAIIIICA9wIEAN4bkwICCCCAAALGCRAAGFclZAgBBBBAAAHvBQgAvDcmBQQQQAABBIwTIAAwrkrIEAIIIIAAAt4LEAB4b0wKCCCAAAIIGCdAAGBclZAhBBBAAAEEvBcgAPDemBQQQAABBBAwToAAwLgqIUMIIIAAAgh4L0AA4L0xKSCAAAIIIGCcAAGAcVVChhBAAAEEEPBegADAe2NSQAABBBBAwDgBAgDjqoQMIYAAAggg4L0AAYD3xqSAAAIIIICAcQIEAMZVCRlCAAEEEEDAewECAO+NSQEBBBBAAAHjBAgAjKsSMoQAAggggID3AgQA3huTAgIIIIAAAsYJEAAYVyVkCAEEEEAAAe8FCAC8NyYFBBBAAAEEjBMgADCuSsgQAggggAAC3gsQAHhvTAoIIIAAAggYJ0AAYFyVkCEEEEAAAQS8FyAA8N6YFBBAAAEEEDBOgADAuCohQwgggAACCHgvQADgvTEpIIAAAgggYJwAAYBxVUKGEEAAAQQQ8F6AAMB7Y1JAAAEEEEDAOAECAOOqhAwhgAACCCDgvQABgPfGpIAAAggggIBxAgQAxlUJGUIAAQQQQMB7AQIA741JAQEEEEAAAeMECACMqxIyhAACCCCAgPcCBADeG5MCAggggAACxgkQABhXJWQIAQQQQAAB7wUIALw3JgUEEEAAAQSMEyAAMK5KyBACCCCAAALeCxAAeG9MCggggAACCBgnQABgXJWQIQQQQAABBLwXIADw3pgUEEAAAQQQME6AAMC4KiFDCCCAAAIIeC9AAOC9MSkggAACCCBgnEBLABBPSJNxuSNDCCCAAAIIIOCagP1Y3xIAnBQ55FoKrAgBBBBAAAEEjBOwH+tbAoB4LHHQuJySIQQQQAABBBBwTcB+rG8JAERih11LgRUhgAACCCCAgHkCCWlIZaolAIglZHdqJH8RQAABBBBAIHwCiVhsb6pULQHAyUTszdRI/iKAAAIIIIBAuATiEpeYyNpUqVoCgBNHm1anRvIXAQQQQAABBMIl0CzN8tbBpjdSpWoJAF54+o691rQDqQn8RQABBBBAAIEQCSRkz+qFd7Z0+G8JALSI9qaBEBWZoiCAAAIIIICAJFq19LcKAJpjiUUIIYAAAggggEC4BN6+/r/AXqpWAYDVBrDQPpHPCCCAAAIIIBB8Ab3+fzIRXyhya8txv+WDFm/foab51p9m/cyAAAIIIIAAAiERaJamo7sOLLUCgJZjfKsAQDsHxJplWUiKSzEQQAABBBBAQAXiiQXLlvWzngR8emgVAOjohMTuPT2ZTwgggAACCCAQeIFE7E/2s38tT7sA4NjRpnus8S1NBIEvNAVAAAEEEEAgygJW8/9bh5r+2JagXQCQfB6AJJ5sOyPfEUAAAQQQQCCAAnH5s/3+/1QJ2gUAOiGRiP08NQN/EUAAAQQQQCC4As3NsV+ky33aAGDxvMpHrc4ALY8LTLcg4xBAAAEEEEDAcIGEvLrksdueTZfLtAHAqY4CidvTLcA4BBBAAAEEEAiGQCIm33XKqUMAIFJ2qPuvrVaAPU4LMh4BBBBAAAEEDBZols2LH618wCmHjgHAwoW3NlkvB/iBPj6QAQEEEEAAAQSCJRCLydfb3vpnL0HGo/uiRyt/2pxopi+AXYzPCCCAAAIIGC5gPdTvxefm3a639TsOGQOAZOSQSHyOVgBHPyYggAACCCBgnEAiLp/MlqksAYDIosd+8kTzyeYHs62I6QgggAACCCBggECz/GLRo7e/ki0nWQMAXcGxY0c1kthOS0A2TqYjgAACCCBQQoGErCs7XPmPueQgpwBAnw5oPUjgg/o6QQYEEEAAAQQQMFAgIccTJ09em+zEn0P2OuQwT3KWLeuXbh5w1pTOVq/C6bkuw3wIIIAAAggg4JdA4guLH//pE7mmllMLQGplS+ZVfs16UPDjqe/8RQABBBBAAIHSCyREfrVo3k/uzCcneQUAeldA2cHu77USejmfRJgXAQQQQAABBLwSSDxuPfDnU/muPc8AQESvLRw/cvRy3hWQLzXzI4AAAggg4K6A3u+vJ+aZHvjjlGLMaUK28dMu/3K/WPmJBdbTAkdkm5fpCCCAAAIIIOCyQEKWvHWo6Z3pXvWbS0p5twCkVrr4qR9tP9Z0dCqXA1Ii/EUAAQQQQMAngURiYdmhyssKPfhrLgtuAUgVceyMz3bteUbFk9aapqbG8RcBBBBAAAEEPBO4z3rQzw3Frj3n2wCdEtpT9+Kx3pXjflfetbynFQRMdpqP8QgggAACCCBQlECz1f/uq4vm3T6nqLW8vXDRLQD2TFw0a86HrUsCv7YCgY728XxGAAEEEEAAgSIEErKnORF735LHbnu2iLW0WrTgPgCt1vL2F33zkPUUonFiXZtIN51xCCCAAAIIIJCnQEJ+bfW5G+3mwV9z4GoLgL1IU6+eMzseT/zUSmKAfTyfEUAAAQQQQCC7gHaytw7SNy56tHJVIbf5ZUvBswBAE54x49aKE10OfEriiS9bX/tlywzTEUAAAQQQiLxAQl5NxOS71sN9HvDiwJ/y9TQASCWif6fPmvNxq/PCN+Lx+GBeKmSX4TMCCCCAAAJWe7n1UJ9mPfDPu/1hPzx8CwBOFebW+PSr918hidjNEpdr6CzoRxWTBgIIIICAsQLNcsDK233WMfG/rVv7XvEznz4HAKeLdupJgsffI7HYNKtl4HIrGOh9eiqfEEAAAQQQCKlAQt6wjnt/TcRlwb6DTfOKeZhPMUIlCwBOZ/pW606EW5unXzPnHKvDw6hYQmotmCFWv4FBseZYtXUdpLs1b09rXDcrQqo4vRyfEEAAAQQQMEygWZqsY1WDdcw6aOWsXpplVyKeqIsl4ptFml9PHO+4Up+ka0Ku/z8Ex8B1Wj41fAAAAABJRU5ErkJggg==;fontColor=#000000;strokeColor=#000000;" vertex="1" parent="1">
          <mxGeometry x="130" y="330" width="60" height="60" as="geometry" />
        </mxCell>
        <mxCell id="KUH8EgF7bkCMcGg_cEMo-13" value="Nginx Load Balancing Monitoring Dashboard Architecture" style="text;html=1;align=left;verticalAlign=middle;whiteSpace=wrap;rounded=0;fontColor=#000000;fontStyle=1;fontSize=15;" vertex="1" parent="1">
          <mxGeometry x="110" y="20" width="420" height="30" as="geometry" />
        </mxCell>
      </root>
    </mxGraphModel>
  </diagram>
</mxfile>
